Cambay Devanagari-Bold.ufo
<glyph name="parenright" format="1">
  <advance width="267"/>
  <unicode hex="0029"/>
  <outline>
    <contour>
      <point x="127" y="169"/>
      <point x="118" y="111"/>
      <point x="101" y="50" type="curve" smooth="yes"/>
      <point x="83" y="-11"/>
      <point x="63" y="-65"/>
      <point x="30" y="-122" type="curve"/>
      <point x="90" y="-154" type="line"/>
      <point x="152" y="-54"/>
      <point x="214" y="78"/>
      <point x="214" y="224" type="curve" smooth="yes"/>
      <point x="214" y="370"/>
      <point x="153" y="503"/>
      <point x="91" y="603" type="curve"/>
      <point x="30" y="570" type="line"/>
      <point x="63" y="513"/>
      <point x="83" y="459"/>
      <point x="101" y="398" type="curve" smooth="yes"/>
      <point x="118" y="337"/>
      <point x="127" y="279"/>
      <point x="127" y="222" type="curve" smooth="yes"/>
    </contour>
  </outline>
</glyph>
<glyph name="comma" format="1">
  <advance width="220"/>
  <unicode hex="002C"/>
  <outline>
    <contour>
      <point x="27" y="-86" type="line"/>
      <point x="79" y="-86" type="line"/>
      <point x="138" y="66" type="line"/>
      <point x="75" y="66" type="line"/>
    </contour>
  </outline>
</glyph>
<glyph name="one" format="1">
  <advance width="296"/>
  <unicode hex="0031"/>
  <outline>
    <contour>
      <point x="107" y="466" type="line"/>
      <point x="10" y="425" type="line"/>
      <point x="39" y="359" type="line"/>
      <point x="115" y="390" type="line"/>
      <point x="115" y="70" type="line"/>
      <point x="29" y="70" type="line"/>
      <point x="29" y="0" type="line"/>
      <point x="286" y="0" type="line"/>
      <point x="286" y="70" type="line"/>
      <point x="204" y="70" type="line"/>
      <point x="204" y="466" type="line"/>
    </contour>
  </outline>
</glyph>
<glyph name="five" format="1">
  <advance width="357"/>
  <unicode hex="0035"/>
  <outline>
    <contour>
      <point x="216" y="228"/>
      <point x="254" y="204"/>
      <point x="254" y="150" type="curve" smooth="yes"/>
      <point x="254" y="94"/>
      <point x="224" y="70"/>
      <point x="150" y="70" type="curve" smooth="yes"/>
      <point x="111" y="70"/>
      <point x="74" y="82"/>
      <point x="42" y="92" type="curve"/>
      <point x="20" y="16" type="line"/>
      <point x="60" y="2"/>
      <point x="115" y="-9"/>
      <point x="160" y="-9" type="curve" smooth="yes"/>
      <point x="251" y="-9"/>
      <point x="337" y="30"/>
      <point x="337" y="147" type="curve" smooth="yes"/>
      <point x="337" y="240"/>
      <point x="282" y="305"/>
      <point x="169" y="305" type="curve" smooth="yes"/>
      <point x="150" y="305"/>
      <point x="141" y="305"/>
      <point x="120" y="303" type="curve"/>
      <point x="120" y="394" type="line"/>
      <point x="320" y="394" type="line"/>
      <point x="320" y="466" type="line"/>
      <point x="40" y="466" type="line"/>
      <point x="40" y="228" type="line"/>
      <point x="55" y="218" type="line"/>
      <point x="83" y="222"/>
      <point x="118" y="228"/>
      <point x="145" y="228" type="curve" smooth="yes"/>
    </contour>
  </outline>
</glyph>
<glyph name="semicolon" format="1">
  <advance width="236"/>
  <unicode hex="003B"/>
  <outline>
    <contour>
      <point x="149" y="217"/>
      <point x="172" y="240"/>
      <point x="172" y="271" type="curve" smooth="yes"/>
      <point x="172" y="302"/>
      <point x="149" y="325"/>
      <point x="118" y="325" type="curve" smooth="yes"/>
      <point x="87" y="325"/>
      <point x="64" y="302"/>
      <point x="64" y="271" type="curve" smooth="yes"/>
      <point x="64" y="240"/>
      <point x="87" y="217"/>
      <point x="118" y="217" type="curve" smooth="yes"/>
    </contour>
    <contour>
      <point x="126" y="-75"/>
      <point x="172" y="-25"/>
      <point x="172" y="35" type="curve"/>
      <point x="172" y="74"/>
      <point x="152" y="97"/>
      <point x="118" y="97" type="curve" smooth="yes"/>
      <point x="87" y="97"/>
      <point x="64" y="77"/>
      <point x="64" y="43" type="curve" smooth="yes"/>
      <point x="64" y="17"/>
      <point x="79" y="-2"/>
      <point x="102" y="-9" type="curve"/>
      <point x="57" y="-93" type="line"/>
      <point x="89" y="-114" type="line"/>
    </contour>
  </outline>
</glyph>
<glyph name="B" format="1">
  <advance width="515"/>
  <unicode hex="0042"/>
  <outline>
    <contour>
      <point x="161" y="324" type="line"/>
      <point x="232" y="324" type="line" smooth="yes"/>
      <point x="313" y="324"/>
      <point x="345" y="347"/>
      <point x="345" y="394" type="curve" smooth="yes"/>
      <point x="345" y="436"/>
      <point x="322" y="465"/>
      <point x="232" y="465" type="curve" smooth="yes"/>
      <point x="161" y="465" type="line"/>
    </contour>
    <contour>
      <point x="161" y="86" type="line"/>
      <point x="225" y="86" type="line" smooth="yes"/>
      <point x="328" y="86"/>
      <point x="387" y="101"/>
      <point x="387" y="161" type="curve" smooth="yes"/>
      <point x="387" y="212"/>
      <point x="342" y="242"/>
      <point x="225" y="242" type="curve" smooth="yes"/>
      <point x="161" y="241" type="line"/>
    </contour>
    <contour>
      <point x="412" y="550"/>
      <point x="440" y="459"/>
      <point x="440" y="407" type="curve" smooth="yes"/>
      <point x="440" y="358"/>
      <point x="419" y="316"/>
      <point x="368" y="285" type="curve"/>
      <point x="445" y="269"/>
      <point x="484" y="207"/>
      <point x="484" y="150" type="curve" smooth="yes"/>
      <point x="484" y="86"/>
      <point x="442" y="0"/>
      <point x="237" y="0" type="curve" smooth="yes"/>
      <point x="63" y="0" type="line"/>
      <point x="63" y="550" type="line"/>
      <point x="250" y="550" type="line" smooth="yes"/>
    </contour>
  </outline>
</glyph>
<glyph name="C" format="1">
  <advance width="542"/>
  <unicode hex="0043"/>
  <outline>
    <contour>
      <point x="377" y="555"/>
      <point x="430" y="548"/>
      <point x="487" y="524" type="curve"/>
      <point x="503" y="518" type="line"/>
      <point x="470" y="441" type="line"/>
      <point x="455" y="446" type="line"/>
      <point x="394" y="469"/>
      <point x="356" y="468"/>
      <point x="331" y="468" type="curve" smooth="yes"/>
      <point x="212" y="468"/>
      <point x="140" y="382"/>
      <point x="140" y="276" type="curve" smooth="yes"/>
      <point x="140" y="160"/>
      <point x="215" y="81"/>
      <point x="345" y="81" type="curve" smooth="yes"/>
      <point x="378" y="81"/>
      <point x="421" y="91"/>
      <point x="464" y="107" type="curve"/>
      <point x="478" y="113" type="line"/>
      <point x="510" y="34" type="line"/>
      <point x="496" y="28" type="line"/>
      <point x="437" y="5"/>
      <point x="387" y="-9"/>
      <point x="328" y="-9" type="curve" smooth="yes"/>
      <point x="147" y="-9"/>
      <point x="40" y="120"/>
      <point x="40" y="275" type="curve" smooth="yes"/>
      <point x="40" y="434"/>
      <point x="153" y="555"/>
      <point x="333" y="555" type="curve" smooth="yes"/>
    </contour>
    <contour>
      <point x="333" y="560" type="move" name="top.cap"/>
    </contour>
  </outline>
</glyph>
<glyph name="D" format="1">
  <advance width="583"/>
  <unicode hex="0044"/>
  <outline>
    <contour>
      <point x="161" y="89" type="line"/>
      <point x="225" y="89" type="line" smooth="yes"/>
      <point x="282" y="89"/>
      <point x="376" y="92"/>
      <point x="419" y="176" type="curve"/>
      <point x="430" y="193"/>
      <point x="443" y="227"/>
      <point x="443" y="279" type="curve" smooth="yes"/>
      <point x="443" y="400"/>
      <point x="375" y="462"/>
      <point x="251" y="462" type="curve" smooth="yes"/>
      <point x="161" y="462" type="line"/>
    </contour>
    <contour>
      <point x="482" y="550"/>
      <point x="543" y="407"/>
      <point x="543" y="292" type="curve" smooth="yes"/>
      <point x="543" y="174"/>
      <point x="496" y="54"/>
      <point x="344" y="11" type="curve"/>
      <point x="296" y="0"/>
      <point x="249" y="0"/>
      <point x="200" y="0" type="curve" smooth="yes"/>
      <point x="63" y="0" type="line"/>
      <point x="63" y="550" type="line"/>
      <point x="249" y="550" type="line" smooth="yes"/>
    </contour>
    <contour>
      <point x="240" y="550" type="move" name="top.cap"/>
    </contour>
  </outline>
</glyph>
<glyph name="E" format="1">
  <advance width="467"/>
  <unicode hex="0045"/>
  <outline>
    <contour>
      <point x="424" y="550" type="line"/>
      <point x="424" y="462" type="line"/>
      <point x="161" y="462" type="line"/>
      <point x="161" y="324" type="line"/>
      <point x="394" y="324" type="line"/>
      <point x="394" y="235" type="line"/>
      <point x="161" y="235" type="line"/>
      <point x="161" y="89" type="line"/>
      <point x="424" y="89" type="line"/>
      <point x="424" y="0" type="line"/>
      <point x="63" y="0" type="line"/>
      <point x="63" y="550" type="line"/>
    </contour>
    <contour>
      <point x="243" y="560" type="move" name="top.cap"/>
    </contour>
  </outline>
</glyph>
<glyph name="J" format="1">
  <advance width="364"/>
  <unicode hex="004A"/>
  <outline>
    <contour>
      <point x="315" y="199" type="line" smooth="yes"/>
      <point x="315" y="111"/>
      <point x="293" y="-7"/>
      <point x="110" y="-7" type="curve" smooth="yes"/>
      <point x="83" y="-7"/>
      <point x="56" y="-4"/>
      <point x="29" y="3" type="curve"/>
      <point x="16" y="8" type="line"/>
      <point x="31" y="93" type="line"/>
      <point x="48" y="89" type="line" smooth="yes"/>
      <point x="67" y="84"/>
      <point x="82" y="83"/>
      <point x="99" y="83" type="curve" smooth="yes"/>
      <point x="212" y="83"/>
      <point x="218" y="159"/>
      <point x="218" y="199" type="curve" smooth="yes"/>
      <point x="218" y="550" type="line"/>
      <point x="315" y="550" type="line"/>
    </contour>
    <contour>
      <point x="267" y="550" type="move" name="top.cap"/>
    </contour>
  </outline>
</glyph>
<glyph name="K" format="1">
  <advance width="522"/>
  <unicode hex="004B"/>
  <outline>
    <contour>
      <point x="63" y="0" type="line"/>
      <point x="63" y="550" type="line"/>
      <point x="161" y="550" type="line"/>
      <point x="161" y="0" type="line"/>
    </contour>
    <contour>
      <point x="498" y="550" type="line"/>
      <point x="281" y="284" type="line"/>
      <point x="514" y="0" type="line"/>
      <point x="398" y="0" type="line"/>
      <point x="169" y="284" type="line"/>
      <point x="388" y="550" type="line"/>
    </contour>
    <contour>
      <point x="280" y="-10" type="move" name="bottom"/>
    </contour>
  </outline>
</glyph>
<glyph name="P" format="1">
  <advance width="494"/>
  <unicode hex="0050"/>
  <outline>
    <contour>
      <point x="314" y="550"/>
      <point x="469" y="541"/>
      <point x="469" y="388" type="curve" smooth="yes"/>
      <point x="470" y="232"/>
      <point x="323" y="213"/>
      <point x="205" y="212" type="curve" smooth="yes"/>
      <point x="188" y="212"/>
      <point x="176" y="214"/>
      <point x="161" y="215" type="curve"/>
      <point x="161" y="0" type="line"/>
      <point x="63" y="0" type="line"/>
      <point x="63" y="550" type="line"/>
      <point x="243" y="550" type="line" smooth="yes"/>
    </contour>
    <contour>
      <point x="178" y="304"/>
      <point x="193" y="301"/>
      <point x="209" y="301" type="curve" smooth="yes"/>
      <point x="292" y="301"/>
      <point x="370" y="310"/>
      <point x="370" y="386" type="curve" smooth="yes"/>
      <point x="370" y="452"/>
      <point x="305" y="462"/>
      <point x="233" y="462" type="curve" smooth="yes"/>
      <point x="161" y="462" type="line"/>
      <point x="161" y="304" type="line"/>
    </contour>
  </outline>
</glyph>
<glyph name="Q" format="1">
  <advance width="622"/>
  <unicode hex="0051"/>
  <outline>
    <contour>
      <point x="467" y="42" type="line"/>
      <point x="422" y="9"/>
      <point x="369" y="-7"/>
      <point x="309" y="-7" type="curve" smooth="yes"/>
      <point x="173" y="-7"/>
      <point x="40" y="88"/>
      <point x="40" y="275" type="curve" smooth="yes"/>
      <point x="40" y="445"/>
      <point x="159" y="557"/>
      <point x="312" y="557" type="curve" smooth="yes"/>
      <point x="463" y="557"/>
      <point x="583" y="450"/>
      <point x="583" y="280" type="curve" smooth="yes"/>
      <point x="583" y="209"/>
      <point x="563" y="147"/>
      <point x="526" y="99" type="curve"/>
      <point x="602" y="29" type="line"/>
      <point x="545" y="-29" type="line"/>
    </contour>
    <contour>
      <point x="225" y="466"/>
      <point x="140" y="413"/>
      <point x="140" y="281" type="curve" smooth="yes"/>
      <point x="140" y="159"/>
      <point x="217" y="85"/>
      <point x="315" y="85" type="curve" smooth="yes"/>
      <point x="342" y="85"/>
      <point x="371" y="92"/>
      <point x="398" y="105" type="curve"/>
      <point x="290" y="206" type="line"/>
      <point x="349" y="268" type="line"/>
      <point x="457" y="165" type="line"/>
      <point x="472" y="194"/>
      <point x="483" y="228"/>
      <point x="483" y="275" type="curve" smooth="yes"/>
      <point x="483" y="413"/>
      <point x="388" y="466"/>
      <point x="308" y="466" type="curve" smooth="yes"/>
    </contour>
  </outline>
</glyph>
<glyph name="R" format="1">
  <advance width="509"/>
  <unicode hex="0052"/>
  <outline>
    <contour>
      <point x="314" y="550"/>
      <point x="469" y="541"/>
      <point x="469" y="388" type="curve" smooth="yes"/>
      <point x="469" y="295"/>
      <point x="412" y="252"/>
      <point x="347" y="230" type="curve"/>
      <point x="485" y="0" type="line"/>
      <point x="374" y="0" type="line"/>
      <point x="248" y="214" type="line"/>
      <point x="233" y="213"/>
      <point x="218" y="213"/>
      <point x="205" y="213" type="curve" smooth="yes"/>
      <point x="188" y="213"/>
      <point x="176" y="214"/>
      <point x="161" y="215" type="curve"/>
      <point x="161" y="0" type="line"/>
      <point x="63" y="0" type="line"/>
      <point x="63" y="550" type="line"/>
      <point x="243" y="550" type="line" smooth="yes"/>
    </contour>
    <contour>
      <point x="178" y="302"/>
      <point x="193" y="301"/>
      <point x="209" y="301" type="curve" smooth="yes"/>
      <point x="292" y="301"/>
      <point x="370" y="310"/>
      <point x="370" y="386" type="curve" smooth="yes"/>
      <point x="370" y="452"/>
      <point x="305" y="462"/>
      <point x="233" y="462" type="curve" smooth="yes"/>
      <point x="161" y="462" type="line"/>
      <point x="161" y="304" type="line"/>
    </contour>
    <contour>
      <point x="255" y="560" type="move" name="top.cap"/>
    </contour>
    <contour>
      <point x="265" y="-10" type="move" name="bottom"/>
    </contour>
  </outline>
</glyph>
<glyph name="V" format="1">
  <advance width="530"/>
  <unicode hex="0056"/>
  <outline>
    <contour>
      <point x="275" y="105" type="line"/>
      <point x="414" y="550" type="line"/>
      <point x="519" y="550" type="line"/>
      <point x="329" y="0" type="line"/>
      <point x="212" y="0" type="line"/>
      <point x="11" y="550" type="line"/>
      <point x="122" y="550" type="line"/>
    </contour>
  </outline>
</glyph>
<glyph name="W" format="1">
  <advance width="830"/>
  <unicode hex="0057"/>
  <outline>
    <contour>
      <point x="226" y="128" type="line"/>
      <point x="359" y="550" type="line"/>
      <point x="470" y="550" type="line"/>
      <point x="578" y="128" type="line"/>
      <point x="716" y="550" type="line"/>
      <point x="821" y="550" type="line"/>
      <point x="625" y="0" type="line"/>
      <point x="523" y="0" type="line"/>
      <point x="410" y="423" type="line"/>
      <point x="279" y="0" type="line"/>
      <point x="178" y="0" type="line"/>
      <point x="11" y="550" type="line"/>
      <point x="116" y="550" type="line"/>
    </contour>
  </outline>
</glyph>
<glyph name="X" format="1">
  <advance width="534"/>
  <unicode hex="0058"/>
  <outline>
    <contour>
      <point x="503" y="550" type="line"/>
      <point x="323" y="287" type="line"/>
      <point x="518" y="0" type="line"/>
      <point x="406" y="0" type="line"/>
      <point x="267" y="205" type="line"/>
      <point x="128" y="0" type="line"/>
      <point x="16" y="0" type="line"/>
      <point x="211" y="287" type="line"/>
      <point x="31" y="550" type="line"/>
      <point x="142" y="550" type="line"/>
      <point x="267" y="368" type="line"/>
      <point x="390" y="550" type="line"/>
    </contour>
  </outline>
</glyph>
<glyph name="Z" format="1">
  <advance width="486"/>
  <unicode hex="005A"/>
  <outline>
    <contour>
      <point x="455" y="491" type="line"/>
      <point x="161" y="89" type="line"/>
      <point x="457" y="89" type="line"/>
      <point x="457" y="0" type="line"/>
      <point x="29" y="0" type="line"/>
      <point x="29" y="61" type="line"/>
      <point x="315" y="462" type="line"/>
      <point x="48" y="462" type="line"/>
      <point x="48" y="550" type="line"/>
      <point x="455" y="550" type="line"/>
    </contour>
    <contour>
      <point x="251" y="560" type="move" name="top.cap"/>
    </contour>
  </outline>
</glyph>
<glyph name="bracketright" format="1">
  <advance width="294"/>
  <unicode hex="005D"/>
  <outline>
    <contour>
      <point x="241" y="-154" type="line"/>
      <point x="241" y="611" type="line"/>
      <point x="53" y="611" type="line"/>
      <point x="53" y="536" type="line"/>
      <point x="160" y="536" type="line"/>
      <point x="160" y="-79" type="line"/>
      <point x="53" y="-79" type="line"/>
      <point x="53" y="-154" type="line"/>
    </contour>
  </outline>
</glyph>
<glyph name="grave" format="1">
  <advance width="244"/>
  <unicode hex="0060"/>
  <outline>
    <contour>
      <point x="239" y="477" type="line"/>
      <point x="188" y="418" type="line"/>
      <point x="5" y="560" type="line"/>
      <point x="70" y="634" type="line"/>
    </contour>
    <contour>
      <point x="110" y="384" type="move" name="_top"/>
    </contour>
  </outline>
</glyph>
<glyph name="a" format="1">
  <advance width="408"/>
  <unicode hex="0061"/>
  <outline>
    <contour>
      <point x="329" y="390"/>
      <point x="364" y="325"/>
      <point x="364" y="236" type="curve" smooth="yes"/>
      <point x="364" y="0" type="line"/>
      <point x="288" y="0" type="line"/>
      <point x="277" y="27" type="line"/>
      <point x="248" y="4"/>
      <point x="210" y="-9"/>
      <point x="165" y="-9" type="curve" smooth="yes"/>
      <point x="80" y="-9"/>
      <point x="29" y="40"/>
      <point x="29" y="105" type="curve" smooth="yes"/>
      <point x="29" y="181"/>
      <point x="88" y="223"/>
      <point x="189" y="228" type="curve" smooth="yes"/>
      <point x="264" y="232" type="line"/>
      <point x="264" y="297"/>
      <point x="246" y="318"/>
      <point x="175" y="318" type="curve" smooth="yes"/>
      <point x="138" y="318"/>
      <point x="106" y="309"/>
      <point x="77" y="298" type="curve"/>
      <point x="62" y="364" type="line"/>
      <point x="89" y="373"/>
      <point x="140" y="390"/>
      <point x="190" y="390" type="curve" smooth="yes"/>
    </contour>
    <contour>
      <point x="200" y="162" type="line" smooth="yes"/>
      <point x="150" y="159"/>
      <point x="125" y="143"/>
      <point x="125" y="112" type="curve" smooth="yes"/>
      <point x="125" y="81"/>
      <point x="149" y="63"/>
      <point x="189" y="63" type="curve" smooth="yes"/>
      <point x="232" y="63"/>
      <point x="245" y="74"/>
      <point x="268" y="85" type="curve"/>
      <point x="268" y="167" type="line"/>
    </contour>
    <contour>
      <point x="200" y="384" type="move" name="top"/>
    </contour>
  </outline>
</glyph>
<glyph name="b" format="1">
  <advance width="457"/>
  <unicode hex="0062"/>
  <outline>
    <contour>
      <point x="149" y="374" type="line"/>
      <point x="176" y="386"/>
      <point x="207" y="390"/>
      <point x="240" y="390" type="curve" smooth="yes"/>
      <point x="324" y="390"/>
      <point x="427" y="340"/>
      <point x="427" y="191" type="curve" smooth="yes"/>
      <point x="427" y="69"/>
      <point x="356" y="-9"/>
      <point x="231" y="-9" type="curve" smooth="yes"/>
      <point x="190" y="-9"/>
      <point x="156" y="5"/>
      <point x="129" y="21" type="curve"/>
      <point x="121" y="0" type="line"/>
      <point x="53" y="0" type="line"/>
      <point x="53" y="550" type="line"/>
      <point x="149" y="550" type="line"/>
    </contour>
    <contour>
      <point x="195" y="315"/>
      <point x="174" y="313"/>
      <point x="149" y="302" type="curve"/>
      <point x="149" y="85" type="line"/>
      <point x="165" y="74"/>
      <point x="187" y="66"/>
      <point x="215" y="66" type="curve" smooth="yes"/>
      <point x="276" y="66"/>
      <point x="329" y="96"/>
      <point x="329" y="186" type="curve" smooth="yes"/>
      <point x="329" y="285"/>
      <point x="279" y="315"/>
      <point x="218" y="315" type="curve" smooth="yes"/>
    </contour>
  </outline>
</glyph>
<glyph name="c" format="1">
  <advance width="396"/>
  <unicode hex="0063"/>
  <outline>
    <contour>
      <point x="128" y="118"/>
      <point x="171" y="66"/>
      <point x="244" y="66" type="curve" smooth="yes"/>
      <point x="285" y="66"/>
      <point x="316" y="78"/>
      <point x="348" y="89" type="curve"/>
      <point x="375" y="27" type="line"/>
      <point x="340" y="7"/>
      <point x="297" y="-10"/>
      <point x="228" y="-10" type="curve" smooth="yes"/>
      <point x="107" y="-10"/>
      <point x="29" y="70"/>
      <point x="29" y="190" type="curve" smooth="yes"/>
      <point x="29" y="314"/>
      <point x="107" y="390"/>
      <point x="228" y="390" type="curve" smooth="yes"/>
      <point x="297" y="390"/>
      <point x="337" y="373"/>
      <point x="375" y="355" type="curve"/>
      <point x="348" y="292" type="line"/>
      <point x="316" y="303"/>
      <point x="285" y="315"/>
      <point x="244" y="315" type="curve" smooth="yes"/>
      <point x="165" y="315"/>
      <point x="128" y="263"/>
      <point x="128" y="190" type="curve" smooth="yes"/>
    </contour>
    <contour>
      <point x="228" y="384" type="move" name="top"/>
    </contour>
  </outline>
</glyph>
<glyph name="e" format="1">
  <advance width="416"/>
  <unicode hex="0065"/>
  <outline>
    <contour>
      <point x="326" y="390"/>
      <point x="387" y="311"/>
      <point x="387" y="190" type="curve" smooth="yes"/>
      <point x="387" y="153" type="line"/>
      <point x="126" y="153" type="line"/>
      <point x="131" y="84"/>
      <point x="177" y="66"/>
      <point x="245" y="66" type="curve" smooth="yes"/>
      <point x="290" y="66"/>
      <point x="323" y="71"/>
      <point x="351" y="78" type="curve"/>
      <point x="368" y="13" type="line"/>
      <point x="331" y="0"/>
      <point x="284" y="-10"/>
      <point x="232" y="-10" type="curve" smooth="yes"/>
      <point x="96" y="-10"/>
      <point x="29" y="75"/>
      <point x="29" y="190" type="curve" smooth="yes"/>
      <point x="29" y="314"/>
      <point x="115" y="390"/>
      <point x="207" y="390" type="curve" smooth="yes"/>
    </contour>
    <contour>
      <point x="172" y="315"/>
      <point x="131" y="284"/>
      <point x="128" y="220" type="curve"/>
      <point x="292" y="220" type="line"/>
      <point x="292" y="284"/>
      <point x="256" y="315"/>
      <point x="209" y="315" type="curve" smooth="yes"/>
    </contour>
    <contour>
      <point x="207" y="384" type="move" name="top"/>
    </contour>
  </outline>
</glyph>
<glyph name="h" format="1">
  <advance width="449"/>
  <unicode hex="0068"/>
  <outline>
    <contour>
      <point x="221" y="309"/>
      <point x="190" y="304"/>
      <point x="149" y="288" type="curve"/>
      <point x="149" y="0" type="line"/>
      <point x="53" y="0" type="line"/>
      <point x="53" y="550" type="line"/>
      <point x="149" y="550" type="line"/>
      <point x="149" y="364" type="line"/>
      <point x="178" y="376"/>
      <point x="221" y="389"/>
      <point x="265" y="389" type="curve" smooth="yes"/>
      <point x="396" y="389"/>
      <point x="405" y="286"/>
      <point x="405" y="218" type="curve" smooth="yes"/>
      <point x="405" y="0" type="line"/>
      <point x="309" y="0" type="line"/>
      <point x="309" y="231" type="line" smooth="yes"/>
      <point x="309" y="268"/>
      <point x="300" y="309"/>
      <point x="240" y="309" type="curve" smooth="yes"/>
    </contour>
  </outline>
</glyph>
<glyph name="l" format="1">
  <advance width="244"/>
  <unicode hex="006C"/>
  <outline>
    <contour>
      <point x="206" y="66"/>
      <point x="222" y="69"/>
      <point x="237" y="73" type="curve"/>
      <point x="237" y="10" type="line"/>
      <point x="222" y="3"/>
      <point x="196" y="-9"/>
      <point x="151" y="-9" type="curve" smooth="yes"/>
      <point x="71" y="-9"/>
      <point x="53" y="46"/>
      <point x="53" y="99" type="curve" smooth="yes"/>
      <point x="53" y="550" type="line"/>
      <point x="147" y="550" type="line"/>
      <point x="147" y="127" type="line" smooth="yes"/>
      <point x="147" y="90"/>
      <point x="155" y="66"/>
      <point x="191" y="66" type="curve" smooth="yes"/>
    </contour>
    <contour>
      <point x="208" y="550" type="move" name="top"/>
    </contour>
    <contour>
      <point x="151" y="0" type="move" name="bottom"/>
    </contour>
  </outline>
</glyph>
<glyph name="n" format="1">
  <advance width="445"/>
  <unicode hex="006E"/>
  <outline>
    <contour>
      <point x="158" y="371"/>
      <point x="207" y="389"/>
      <point x="260" y="389" type="curve" smooth="yes"/>
      <point x="393" y="389"/>
      <point x="399" y="284"/>
      <point x="399" y="218" type="curve" smooth="yes"/>
      <point x="399" y="0" type="line"/>
      <point x="304" y="0" type="line"/>
      <point x="304" y="230" type="line" smooth="yes"/>
      <point x="304" y="259"/>
      <point x="293" y="308"/>
      <point x="235" y="308" type="curve" smooth="yes"/>
      <point x="215" y="308"/>
      <point x="186" y="303"/>
      <point x="142" y="287" type="curve"/>
      <point x="142" y="0" type="line"/>
      <point x="47" y="0" type="line"/>
      <point x="47" y="384" type="line"/>
      <point x="115" y="384" type="line"/>
      <point x="127" y="356" type="line"/>
    </contour>
    <contour>
      <point x="229" y="384" type="move" name="top"/>
    </contour>
    <contour>
      <point x="223" y="0" type="move" name="bottom"/>
    </contour>
  </outline>
</glyph>
<glyph name="o" format="1">
  <advance width="455"/>
  <unicode hex="006F"/>
  <outline>
    <contour>
      <point x="175" y="315"/>
      <point x="129" y="272"/>
      <point x="129" y="190" type="curve" smooth="yes"/>
      <point x="129" y="109"/>
      <point x="174" y="67"/>
      <point x="227" y="67" type="curve" smooth="yes"/>
      <point x="283" y="67"/>
      <point x="326" y="109"/>
      <point x="326" y="190" type="curve" smooth="yes"/>
      <point x="326" y="273"/>
      <point x="280" y="315"/>
      <point x="227" y="315" type="curve" smooth="yes"/>
    </contour>
    <contour>
      <point x="108" y="-9"/>
      <point x="30" y="74"/>
      <point x="30" y="190" type="curve" smooth="yes"/>
      <point x="30" y="314"/>
      <point x="108" y="390"/>
      <point x="228" y="390" type="curve" smooth="yes"/>
      <point x="348" y="390"/>
      <point x="425" y="313"/>
      <point x="425" y="191" type="curve" smooth="yes"/>
      <point x="425" y="73"/>
      <point x="347" y="-9"/>
      <point x="227" y="-9" type="curve" smooth="yes"/>
    </contour>
    <contour>
      <point x="228" y="384" type="move" name="top"/>
    </contour>
  </outline>
</glyph>
<glyph name="r" format="1">
  <advance width="319"/>
  <unicode hex="0072"/>
  <outline>
    <contour>
      <point x="160" y="377"/>
      <point x="199" y="390"/>
      <point x="240" y="390" type="curve" smooth="yes"/>
      <point x="265" y="390"/>
      <point x="288" y="385"/>
      <point x="310" y="375" type="curve"/>
      <point x="291" y="288" type="line"/>
      <point x="287" y="287" type="line"/>
      <point x="244" y="311"/>
      <point x="186" y="313"/>
      <point x="142" y="296" type="curve"/>
      <point x="142" y="0" type="line"/>
      <point x="47" y="0" type="line"/>
      <point x="47" y="384" type="line"/>
      <point x="115" y="384" type="line"/>
      <point x="127" y="356" type="line"/>
    </contour>
    <contour>
      <point x="174" y="383" type="move" name="top"/>
    </contour>
    <contour>
      <point x="94" y="0" type="move" name="bottom"/>
    </contour>
  </outline>
</glyph>
<glyph name="s" format="1">
  <advance width="381"/>
  <unicode hex="0073"/>
  <outline>
    <contour>
      <point x="102" y="85"/>
      <point x="153" y="73"/>
      <point x="185" y="73" type="curve" smooth="yes"/>
      <point x="244" y="73"/>
      <point x="261" y="86"/>
      <point x="261" y="110" type="curve" smooth="yes"/>
      <point x="261" y="162"/>
      <point x="44" y="142"/>
      <point x="44" y="285" type="curve" smooth="yes"/>
      <point x="44" y="320"/>
      <point x="59" y="390"/>
      <point x="207" y="390" type="curve"/>
      <point x="254" y="390"/>
      <point x="309" y="376"/>
      <point x="334" y="368" type="curve"/>
      <point x="310" y="294" type="line"/>
      <point x="286" y="301"/>
      <point x="247" y="312"/>
      <point x="208" y="312" type="curve" smooth="yes"/>
      <point x="145" y="312"/>
      <point x="134" y="299"/>
      <point x="134" y="281" type="curve" smooth="yes"/>
      <point x="134" y="220"/>
      <point x="353" y="245"/>
      <point x="353" y="109" type="curve" smooth="yes"/>
      <point x="353" y="64"/>
      <point x="324" y="-9"/>
      <point x="180" y="-9" type="curve" smooth="yes"/>
      <point x="128" y="-9"/>
      <point x="74" y="6"/>
      <point x="31" y="26" type="curve"/>
      <point x="58" y="101" type="line"/>
    </contour>
    <contour>
      <point x="207" y="384" type="move" name="top"/>
    </contour>
    <contour>
      <point x="180" y="0" type="move" name="bottom"/>
    </contour>
  </outline>
</glyph>
<glyph name="u" format="1">
  <advance width="439"/>
  <unicode hex="0075"/>
  <outline>
    <contour>
      <point x="280" y="12"/>
      <point x="239" y="-9"/>
      <point x="187" y="-9" type="curve" smooth="yes"/>
      <point x="54" y="-9"/>
      <point x="47" y="99"/>
      <point x="47" y="165" type="curve" smooth="yes"/>
      <point x="47" y="384" type="line"/>
      <point x="142" y="384" type="line"/>
      <point x="142" y="152" type="line" smooth="yes"/>
      <point x="142" y="122"/>
      <point x="151" y="73"/>
      <point x="212" y="73" type="curve" smooth="yes"/>
      <point x="229" y="73"/>
      <point x="261" y="76"/>
      <point x="296" y="96" type="curve"/>
      <point x="296" y="384" type="line"/>
      <point x="390" y="384" type="line"/>
      <point x="390" y="-1" type="line"/>
      <point x="324" y="-1" type="line"/>
      <point x="312" y="27" type="line"/>
    </contour>
    <contour>
      <point x="219" y="384" type="move" name="top"/>
    </contour>
  </outline>
</glyph>
<glyph name="w" format="1">
  <advance width="662"/>
  <unicode hex="0077"/>
  <outline>
    <contour>
      <point x="465" y="105" type="line"/>
      <point x="544" y="384" type="line"/>
      <point x="646" y="384" type="line"/>
      <point x="508" y="0" type="line"/>
      <point x="417" y="0" type="line"/>
      <point x="332" y="272" type="line"/>
      <point x="245" y="0" type="line"/>
      <point x="153" y="0" type="line"/>
      <point x="16" y="384" type="line"/>
      <point x="118" y="384" type="line"/>
      <point x="197" y="105" type="line"/>
      <point x="279" y="384" type="line"/>
      <point x="384" y="384" type="line"/>
    </contour>
  </outline>
</glyph>
<glyph name="y" format="1">
  <advance width="435"/>
  <unicode hex="0079"/>
  <outline>
    <contour>
      <point x="224" y="89" type="line"/>
      <point x="327" y="384" type="line"/>
      <point x="427" y="384" type="line"/>
      <point x="192" y="-206" type="line"/>
      <point x="85" y="-206" type="line"/>
      <point x="172" y="-3" type="line"/>
      <point x="0" y="384" type="line"/>
      <point x="109" y="384" type="line"/>
    </contour>
    <contour>
      <point x="218" y="384" type="move" name="top"/>
    </contour>
  </outline>
</glyph>
<glyph name="braceright" format="1">
  <advance width="313"/>
  <unicode hex="007D"/>
  <outline>
    <contour>
      <point x="288" y="255" type="line"/>
      <point x="229" y="263"/>
      <point x="194" y="293"/>
      <point x="194" y="347" type="curve" smooth="yes"/>
      <point x="194" y="424" type="line" smooth="yes"/>
      <point x="194" y="543"/>
      <point x="114" y="591"/>
      <point x="35" y="601" type="curve"/>
      <point x="15" y="522" type="line"/>
      <point x="76" y="508"/>
      <point x="116" y="499"/>
      <point x="116" y="401" type="curve" smooth="yes"/>
      <point x="116" y="335" type="line" smooth="yes"/>
      <point x="116" y="273"/>
      <point x="157" y="235"/>
      <point x="188" y="214" type="curve"/>
      <point x="157" y="193"/>
      <point x="116" y="155"/>
      <point x="116" y="93" type="curve" smooth="yes"/>
      <point x="116" y="27" type="line" smooth="yes"/>
      <point x="116" y="-71"/>
      <point x="76" y="-80"/>
      <point x="15" y="-94" type="curve"/>
      <point x="35" y="-173" type="line"/>
      <point x="114" y="-163"/>
      <point x="194" y="-115"/>
      <point x="194" y="4" type="curve" smooth="yes"/>
      <point x="194" y="81" type="line" smooth="yes"/>
      <point x="194" y="135"/>
      <point x="229" y="165"/>
      <point x="288" y="173" type="curve"/>
    </contour>
  </outline>
</glyph>
<glyph name="sterling" format="1">
  <advance width="441"/>
  <unicode hex="00A3"/>
  <outline>
    <contour>
      <point x="127" y="75" type="line"/>
      <point x="127" y="189" type="line"/>
      <point x="59" y="189" type="line"/>
      <point x="59" y="265" type="line"/>
      <point x="127" y="265" type="line"/>
      <point x="127" y="276" type="line" smooth="yes"/>
      <point x="127" y="395"/>
      <point x="168" y="477"/>
      <point x="307" y="477" type="curve" smooth="yes"/>
      <point x="337" y="477"/>
      <point x="371" y="471"/>
      <point x="401" y="461" type="curve"/>
      <point x="370" y="383" type="line"/>
      <point x="345" y="388"/>
      <point x="326" y="393"/>
      <point x="303" y="393" type="curve" smooth="yes"/>
      <point x="232" y="393"/>
      <point x="216" y="358"/>
      <point x="216" y="294" type="curve"/>
      <point x="216" y="265" type="line"/>
      <point x="378" y="265" type="line"/>
      <point x="378" y="189" type="line"/>
      <point x="216" y="189" type="line"/>
      <point x="216" y="75" type="line"/>
      <point x="400" y="75" type="line"/>
      <point x="400" y="0" type="line"/>
      <point x="50" y="0" type="line"/>
      <point x="50" y="75" type="line"/>
    </contour>
  </outline>
</glyph>
<glyph name="section" format="1">
  <advance width="422"/>
  <unicode hex="00A7"/>
  <outline>
    <contour>
      <point x="121" y="85"/>
      <point x="172" y="73"/>
      <point x="204" y="73" type="curve" smooth="yes"/>
      <point x="263" y="73"/>
      <point x="280" y="86"/>
      <point x="280" y="110" type="curve" smooth="yes"/>
      <point x="280" y="136"/>
      <point x="226" y="148"/>
      <point x="172" y="167" type="curve" smooth="yes"/>
      <point x="117" y="187"/>
      <point x="63" y="213"/>
      <point x="63" y="285" type="curve" smooth="yes"/>
      <point x="63" y="314"/>
      <point x="78" y="370"/>
      <point x="168" y="387" type="curve" smooth="yes"/>
      <point x="186" y="390"/>
      <point x="202" y="390"/>
      <point x="226" y="390" type="curve"/>
      <point x="227" y="346" type="line"/>
      <point x="179" y="326"/>
      <point x="153" y="319"/>
      <point x="153" y="291" type="curve" smooth="yes"/>
      <point x="153" y="262"/>
      <point x="185" y="247"/>
      <point x="227" y="233" type="curve" smooth="yes"/>
      <point x="290" y="212"/>
      <point x="372" y="190"/>
      <point x="372" y="109" type="curve" smooth="yes"/>
      <point x="372" y="64"/>
      <point x="343" y="-9"/>
      <point x="199" y="-9" type="curve" smooth="yes"/>
      <point x="147" y="-9"/>
      <point x="93" y="6"/>
      <point x="50" y="26" type="curve"/>
      <point x="77" y="101" type="line"/>
    </contour>
    <contour>
      <point x="221" y="214" type="line"/>
      <point x="262" y="232"/>
      <point x="280" y="246"/>
      <point x="280" y="270" type="curve" smooth="yes"/>
      <point x="280" y="298"/>
      <point x="217" y="310"/>
      <point x="159" y="333" type="curve" smooth="yes"/>
      <point x="109" y="353"/>
      <point x="63" y="379"/>
      <point x="63" y="445" type="curve" smooth="yes"/>
      <point x="63" y="480"/>
      <point x="78" y="550"/>
      <point x="226" y="550" type="curve"/>
      <point x="273" y="550"/>
      <point x="328" y="536"/>
      <point x="353" y="528" type="curve"/>
      <point x="329" y="454" type="line"/>
      <point x="305" y="461"/>
      <point x="266" y="473"/>
      <point x="227" y="473" type="curve" smooth="yes"/>
      <point x="164" y="473"/>
      <point x="153" y="459"/>
      <point x="153" y="441" type="curve" smooth="yes"/>
      <point x="153" y="412"/>
      <point x="204" y="400"/>
      <point x="255" y="381" type="curve" smooth="yes"/>
      <point x="312" y="360"/>
      <point x="372" y="340"/>
      <point x="372" y="269" type="curve" smooth="yes"/>
      <point x="372" y="230"/>
      <point x="341" y="181"/>
      <point x="253" y="155" type="curve"/>
    </contour>
    <contour>
      <point x="179" y="0" type="move" name="bottom"/>
    </contour>
  </outline>
</glyph>
<glyph name="ordfeminine" format="1">
  <advance width="266"/>
  <unicode hex="00AA"/>
  <outline>
    <contour>
      <point x="217" y="554"/>
      <point x="236" y="514"/>
      <point x="236" y="456" type="curve" smooth="yes"/>
      <point x="236" y="308" type="line"/>
      <point x="189" y="308" type="line"/>
      <point x="182" y="324" type="line"/>
      <point x="162" y="312"/>
      <point x="142" y="302"/>
      <point x="113" y="302" type="curve" smooth="yes"/>
      <point x="62" y="302"/>
      <point x="30" y="334"/>
      <point x="30" y="375" type="curve" smooth="yes"/>
      <point x="30" y="422"/>
      <point x="65" y="447"/>
      <point x="130" y="452" type="curve" smooth="yes"/>
      <point x="175" y="455" type="line"/>
      <point x="175" y="495"/>
      <point x="165" y="509"/>
      <point x="120" y="509" type="curve" smooth="yes"/>
      <point x="97" y="509"/>
      <point x="73" y="499"/>
      <point x="54" y="495" type="curve"/>
      <point x="42" y="535" type="line"/>
      <point x="60" y="543"/>
      <point x="99" y="554"/>
      <point x="131" y="554" type="curve" smooth="yes"/>
    </contour>
    <contour>
      <point x="136" y="410" type="line"/>
      <point x="105" y="409"/>
      <point x="89" y="398"/>
      <point x="89" y="378" type="curve" smooth="yes"/>
      <point x="89" y="361"/>
      <point x="105" y="348"/>
      <point x="130" y="348" type="curve" smooth="yes"/>
      <point x="155" y="348"/>
      <point x="164" y="352"/>
      <point x="177" y="363" type="curve"/>
      <point x="177" y="414" type="line"/>
    </contour>
  </outline>
</glyph>
<glyph name="logicalnot" format="1">
  <advance width="485"/>
  <unicode hex="00AC"/>
  <outline>
    <contour>
      <point x="45" y="247" type="line"/>
      <point x="45" y="180" type="line"/>
      <point x="370" y="180" type="line"/>
      <point x="370" y="56" type="line"/>
      <point x="440" y="56" type="line"/>
      <point x="440" y="247" type="line"/>
    </contour>
  </outline>
</glyph>
<glyph name="macron" format="1">
  <advance width="262"/>
  <unicode hex="00AF"/>
  <outline>
    <contour>
      <point x="257" y="447" type="line"/>
      <point x="5" y="447" type="line"/>
      <point x="5" y="525" type="line"/>
      <point x="257" y="525" type="line"/>
    </contour>
    <contour>
      <point x="132" y="384" type="move" name="_top"/>
    </contour>
  </outline>
</glyph>
<glyph name="twosuperior" format="1">
  <advance width="266"/>
  <unicode hex="00B2"/>
  <outline>
    <contour>
      <point x="51" y="576"/>
      <point x="88" y="593"/>
      <point x="133" y="593" type="curve" smooth="yes"/>
      <point x="193" y="593"/>
      <point x="239" y="553"/>
      <point x="239" y="491" type="curve" smooth="yes"/>
      <point x="239" y="444"/>
      <point x="209" y="401"/>
      <point x="147" y="338" type="curve"/>
      <point x="246" y="338" type="line"/>
      <point x="246" y="276" type="line"/>
      <point x="35" y="276" type="line"/>
      <point x="35" y="317" type="line"/>
      <point x="54" y="335"/>
      <point x="69" y="348"/>
      <point x="93" y="373" type="curve"/>
      <point x="139" y="416"/>
      <point x="169" y="453"/>
      <point x="169" y="480" type="curve" smooth="yes"/>
      <point x="169" y="511"/>
      <point x="155" y="525"/>
      <point x="122" y="525" type="curve" smooth="yes"/>
      <point x="93" y="525"/>
      <point x="69" y="512"/>
      <point x="52" y="503" type="curve"/>
      <point x="30" y="564" type="line"/>
    </contour>
  </outline>
</glyph>
<glyph name="threesuperior" format="1">
  <advance width="272"/>
  <unicode hex="00B3"/>
  <outline>
    <contour>
      <point x="120" y="466" type="line" smooth="yes"/>
      <point x="152" y="466"/>
      <point x="172" y="475"/>
      <point x="172" y="501" type="curve" smooth="yes"/>
      <point x="172" y="520"/>
      <point x="158" y="528"/>
      <point x="138" y="528" type="curve" smooth="yes"/>
      <point x="115" y="528"/>
      <point x="88" y="519"/>
      <point x="64" y="507" type="curve"/>
      <point x="40" y="568" type="line"/>
      <point x="69" y="583"/>
      <point x="100" y="596"/>
      <point x="137" y="596" type="curve" smooth="yes"/>
      <point x="199" y="596"/>
      <point x="242" y="565"/>
      <point x="242" y="504" type="curve" smooth="yes"/>
      <point x="242" y="477"/>
      <point x="223" y="451"/>
      <point x="203" y="435" type="curve"/>
      <point x="224" y="424"/>
      <point x="252" y="398"/>
      <point x="252" y="363" type="curve" smooth="yes"/>
      <point x="252" y="300"/>
      <point x="201" y="272"/>
      <point x="136" y="272" type="curve" smooth="yes"/>
      <point x="107" y="272"/>
      <point x="59" y="281"/>
      <point x="35" y="293" type="curve"/>
      <point x="56" y="356" type="line"/>
      <point x="69" y="351"/>
      <point x="105" y="340"/>
      <point x="135" y="340" type="curve" smooth="yes"/>
      <point x="166" y="340"/>
      <point x="179" y="351"/>
      <point x="179" y="372" type="curve" smooth="yes"/>
      <point x="179" y="396"/>
      <point x="159" y="404"/>
      <point x="122" y="404" type="curve" smooth="yes"/>
      <point x="97" y="404" type="line"/>
      <point x="97" y="466" type="line"/>
    </contour>
  </outline>
</glyph>
<glyph name="uni00B5" format="1">
  <advance width="444"/>
  <unicode hex="00B5"/>
  <outline>
    <contour>
      <point x="301" y="384" type="line"/>
      <point x="301" y="99" type="line"/>
      <point x="266" y="79"/>
      <point x="239" y="74"/>
      <point x="217" y="74" type="curve" smooth="yes"/>
      <point x="156" y="74"/>
      <point x="147" y="122"/>
      <point x="147" y="182" type="curve" smooth="yes"/>
      <point x="147" y="384" type="line"/>
      <point x="54" y="384" type="line"/>
      <point x="54" y="-174" type="line"/>
      <point x="144" y="-174" type="line"/>
      <point x="144" y="8" type="line"/>
      <point x="160" y="-1"/>
      <point x="183" y="-9"/>
      <point x="209" y="-9" type="curve" smooth="yes"/>
      <point x="250" y="-9"/>
      <point x="285" y="8"/>
      <point x="317" y="27" type="curve"/>
      <point x="329" y="-1" type="line"/>
      <point x="395" y="-1" type="line"/>
      <point x="395" y="384" type="line"/>
    </contour>
    <contour>
      <point x="224" y="384" type="move" name="top"/>
    </contour>
  </outline>
</glyph>
<glyph name="onequarter" format="1">
  <advance width="660"/>
  <unicode hex="00BC"/>
  <outline>
    <contour>
      <point x="526" y="550" type="line"/>
      <point x="179" y="0" type="line"/>
      <point x="92" y="0" type="line"/>
      <point x="442" y="550" type="line"/>
    </contour>
    <contour>
      <point x="178" y="239" type="line"/>
      <point x="106" y="239" type="line"/>
      <point x="106" y="477" type="line"/>
      <point x="50" y="461" type="line"/>
      <point x="25" y="517" type="line"/>
      <point x="126" y="550" type="line"/>
      <point x="178" y="550" type="line"/>
    </contour>
    <contour>
      <point x="571" y="123" type="line"/>
      <point x="620" y="123" type="line"/>
      <point x="620" y="63" type="line"/>
      <point x="571" y="63" type="line"/>
      <point x="571" y="0" type="line"/>
      <point x="504" y="0" type="line"/>
      <point x="504" y="63" type="line"/>
      <point x="358" y="63" type="line"/>
      <point x="358" y="117" type="line"/>
      <point x="491" y="309" type="line"/>
      <point x="571" y="309" type="line"/>
    </contour>
    <contour>
      <point x="504" y="213" type="line"/>
      <point x="441" y="123" type="line"/>
      <point x="504" y="123" type="line"/>
    </contour>
  </outline>
</glyph>
<glyph name="threequarters" format="1">
  <advance width="720"/>
  <unicode hex="00BE"/>
  <outline>
    <contour>
      <point x="586" y="550" type="line"/>
      <point x="239" y="0" type="line"/>
      <point x="152" y="0" type="line"/>
      <point x="502" y="550" type="line"/>
    </contour>
    <contour>
      <point x="631" y="123" type="line"/>
      <point x="680" y="123" type="line"/>
      <point x="680" y="63" type="line"/>
      <point x="631" y="63" type="line"/>
      <point x="631" y="0" type="line"/>
      <point x="564" y="0" type="line"/>
      <point x="564" y="63" type="line"/>
      <point x="418" y="63" type="line"/>
      <point x="418" y="117" type="line"/>
      <point x="551" y="309" type="line"/>
      <point x="631" y="309" type="line"/>
    </contour>
    <contour>
      <point x="564" y="213" type="line"/>
      <point x="501" y="123" type="line"/>
      <point x="564" y="123" type="line"/>
    </contour>
    <contour>
      <point x="130" y="420" type="line" smooth="yes"/>
      <point x="162" y="420"/>
      <point x="182" y="429"/>
      <point x="182" y="455" type="curve" smooth="yes"/>
      <point x="182" y="474"/>
      <point x="168" y="482"/>
      <point x="148" y="482" type="curve" smooth="yes"/>
      <point x="125" y="482"/>
      <point x="98" y="473"/>
      <point x="74" y="461" type="curve"/>
      <point x="50" y="522" type="line"/>
      <point x="79" y="537"/>
      <point x="110" y="550"/>
      <point x="147" y="550" type="curve" smooth="yes"/>
      <point x="209" y="550"/>
      <point x="252" y="519"/>
      <point x="252" y="458" type="curve" smooth="yes"/>
      <point x="252" y="431"/>
      <point x="233" y="405"/>
      <point x="213" y="389" type="curve"/>
      <point x="234" y="378"/>
      <point x="262" y="352"/>
      <point x="262" y="317" type="curve" smooth="yes"/>
      <point x="262" y="254"/>
      <point x="211" y="226"/>
      <point x="146" y="226" type="curve" smooth="yes"/>
      <point x="117" y="226"/>
      <point x="69" y="235"/>
      <point x="45" y="247" type="curve"/>
      <point x="66" y="310" type="line"/>
      <point x="79" y="305"/>
      <point x="115" y="294"/>
      <point x="145" y="294" type="curve" smooth="yes"/>
      <point x="176" y="294"/>
      <point x="189" y="305"/>
      <point x="189" y="326" type="curve" smooth="yes"/>
      <point x="189" y="350"/>
      <point x="169" y="358"/>
      <point x="132" y="358" type="curve" smooth="yes"/>
      <point x="107" y="358" type="line"/>
      <point x="107" y="420" type="line"/>
    </contour>
  </outline>
</glyph>
<glyph name="questiondown" format="1">
  <advance width="432"/>
  <unicode hex="00BF"/>
  <outline>
    <contour>
      <point x="30" y="192"/>
      <point x="178" y="182"/>
      <point x="178" y="313" type="curve" smooth="yes"/>
      <point x="178" y="329" type="line"/>
      <point x="270" y="329" type="line"/>
      <point x="270" y="313" type="line" smooth="yes"/>
      <point x="270" y="149"/>
      <point x="121" y="147"/>
      <point x="121" y="51" type="curve" smooth="yes"/>
      <point x="121" y="19"/>
      <point x="143" y="-13"/>
      <point x="211" y="-13" type="curve" smooth="yes"/>
      <point x="256" y="-13"/>
      <point x="297" y="3"/>
      <point x="332" y="22" type="curve"/>
      <point x="362" y="-58" type="line"/>
      <point x="307" y="-83"/>
      <point x="259" y="-97"/>
      <point x="202" y="-97" type="curve" smooth="yes"/>
      <point x="109" y="-97"/>
      <point x="30" y="-50"/>
      <point x="30" y="48" type="curve" smooth="yes"/>
    </contour>
    <contour>
      <point x="192" y="483"/>
      <point x="168" y="459"/>
      <point x="168" y="428" type="curve" smooth="yes"/>
      <point x="168" y="397"/>
      <point x="192" y="373"/>
      <point x="223" y="373" type="curve" smooth="yes"/>
      <point x="254" y="373"/>
      <point x="278" y="397"/>
      <point x="278" y="428" type="curve" smooth="yes"/>
      <point x="278" y="459"/>
      <point x="254" y="483"/>
      <point x="223" y="483" type="curve" smooth="yes"/>
    </contour>
  </outline>
</glyph>
<glyph name="Aring" format="1">
  <advance width="535"/>
  <unicode hex="00C5"/>
  <outline>
    <contour>
      <point x="367" y="570"/>
      <point x="352" y="538"/>
      <point x="328" y="521" type="curve"/>
      <point x="522" y="0" type="line"/>
      <point x="423" y="0" type="line"/>
      <point x="367" y="145" type="line"/>
      <point x="164" y="145" type="line"/>
      <point x="109" y="0" type="line"/>
      <point x="13" y="0" type="line"/>
      <point x="207" y="518" type="line"/>
      <point x="183" y="537"/>
      <point x="165" y="568"/>
      <point x="165" y="603" type="curve" smooth="yes"/>
      <point x="165" y="659"/>
      <point x="209" y="705"/>
      <point x="266" y="705" type="curve" smooth="yes"/>
      <point x="322" y="705"/>
      <point x="367" y="659"/>
      <point x="367" y="603" type="curve" smooth="yes"/>
    </contour>
    <contour>
      <point x="195" y="233" type="line"/>
      <point x="335" y="233" type="line"/>
      <point x="265" y="439" type="line"/>
    </contour>
    <contour>
      <point x="243" y="642"/>
      <point x="227" y="623"/>
      <point x="227" y="603" type="curve" smooth="yes"/>
      <point x="227" y="580"/>
      <point x="242" y="562"/>
      <point x="266" y="562" type="curve" smooth="yes"/>
      <point x="286" y="562"/>
      <point x="304" y="580"/>
      <point x="304" y="603" type="curve" smooth="yes"/>
      <point x="304" y="623"/>
      <point x="286" y="642"/>
      <point x="266" y="642" type="curve" smooth="yes"/>
    </contour>
  </outline>
</glyph>
<glyph name="AE" format="1">
  <advance width="757"/>
  <unicode hex="00C6"/>
  <outline>
    <contour>
      <point x="361" y="233" type="line"/>
      <point x="361" y="462" type="line"/>
      <point x="315" y="462" type="line"/>
      <point x="215" y="233" type="line"/>
    </contour>
    <contour>
      <point x="177" y="145" type="line"/>
      <point x="111" y="0" type="line"/>
      <point x="13" y="0" type="line"/>
      <point x="250" y="550" type="line"/>
      <point x="712" y="550" type="line"/>
      <point x="712" y="462" type="line"/>
      <point x="455" y="462" type="line"/>
      <point x="455" y="324" type="line"/>
      <point x="684" y="324" type="line"/>
      <point x="684" y="235" type="line"/>
      <point x="455" y="235" type="line"/>
      <point x="455" y="89" type="line"/>
      <point x="712" y="89" type="line"/>
      <point x="712" y="0" type="line"/>
      <point x="361" y="0" type="line"/>
      <point x="361" y="145" type="line"/>
    </contour>
  </outline>
</glyph>
<glyph name="Ccedilla" format="1">
  <advance width="542"/>
  <unicode hex="00C7"/>
  <outline>
    <contour>
      <point x="323" y="-142"/>
      <point x="326" y="-134"/>
      <point x="326" y="-129" type="curve" smooth="yes"/>
      <point x="326" y="-121"/>
      <point x="323" y="-113"/>
      <point x="288" y="-102" type="curve" smooth="yes"/>
      <point x="232" y="-86" type="line"/>
      <point x="256" y="-1" type="line"/>
      <point x="120" y="26"/>
      <point x="40" y="141"/>
      <point x="40" y="275" type="curve" smooth="yes"/>
      <point x="40" y="434"/>
      <point x="153" y="555"/>
      <point x="333" y="555" type="curve" smooth="yes"/>
      <point x="377" y="555"/>
      <point x="430" y="548"/>
      <point x="487" y="524" type="curve"/>
      <point x="503" y="518" type="line"/>
      <point x="470" y="441" type="line"/>
      <point x="455" y="446" type="line"/>
      <point x="394" y="469"/>
      <point x="356" y="468"/>
      <point x="331" y="468" type="curve" smooth="yes"/>
      <point x="212" y="468"/>
      <point x="140" y="382"/>
      <point x="140" y="276" type="curve" smooth="yes"/>
      <point x="140" y="160"/>
      <point x="215" y="81"/>
      <point x="345" y="81" type="curve" smooth="yes"/>
      <point x="378" y="81"/>
      <point x="421" y="91"/>
      <point x="464" y="107" type="curve"/>
      <point x="478" y="113" type="line"/>
      <point x="510" y="33" type="line"/>
      <point x="496" y="28" type="line"/>
      <point x="437" y="3"/>
      <point x="380" y="-9"/>
      <point x="328" y="-9" type="curve"/>
      <point x="319" y="-42" type="line"/>
      <point x="360" y="-53"/>
      <point x="398" y="-76"/>
      <point x="398" y="-124" type="curve" smooth="yes"/>
      <point x="398" y="-167"/>
      <point x="372" y="-208"/>
      <point x="300" y="-208" type="curve" smooth="yes"/>
      <point x="272" y="-208"/>
      <point x="241" y="-203"/>
      <point x="208" y="-191" type="curve"/>
      <point x="192" y="-187" type="line"/>
      <point x="212" y="-121" type="line"/>
      <point x="267" y="-136" type="line"/>
      <point x="283" y="-140"/>
      <point x="298" y="-142"/>
      <point x="306" y="-142" type="curve" smooth="yes"/>
    </contour>
  </outline>
</glyph>
<glyph name="Oslash" format="1">
  <advance width="623"/>
  <unicode hex="00D8"/>
  <outline>
    <contour>
      <point x="80" y="-16" type="line"/>
      <point x="12" y="56" type="line"/>
      <point x="558" y="574" type="line"/>
      <point x="625" y="503" type="line"/>
    </contour>
    <component base="O"/>
  </outline>
</glyph>
<glyph name="germandbls" format="1">
  <advance width="528"/>
  <unicode hex="00DF"/>
  <outline>
    <contour>
      <point x="357" y="554"/>
      <point x="410" y="476"/>
      <point x="410" y="410" type="curve" smooth="yes"/>
      <point x="410" y="323"/>
      <point x="297" y="302"/>
      <point x="297" y="271" type="curve" smooth="yes"/>
      <point x="297" y="222"/>
      <point x="488" y="246"/>
      <point x="488" y="108" type="curve" smooth="yes"/>
      <point x="488" y="60"/>
      <point x="458" y="-10"/>
      <point x="335" y="-10" type="curve" smooth="yes"/>
      <point x="300" y="-10"/>
      <point x="250" y="-6"/>
      <point x="195" y="9" type="curve"/>
      <point x="177" y="13" type="line"/>
      <point x="200" y="93" type="line"/>
      <point x="217" y="89" type="line"/>
      <point x="254" y="79"/>
      <point x="291" y="73"/>
      <point x="320" y="73" type="curve" smooth="yes"/>
      <point x="373" y="73"/>
      <point x="389" y="87"/>
      <point x="389" y="112" type="curve" smooth="yes"/>
      <point x="389" y="183"/>
      <point x="189" y="147"/>
      <point x="189" y="271" type="curve" smooth="yes"/>
      <point x="189" y="356"/>
      <point x="306" y="366"/>
      <point x="306" y="413" type="curve" smooth="yes"/>
      <point x="306" y="443"/>
      <point x="286" y="465"/>
      <point x="232" y="465" type="curve" smooth="yes"/>
      <point x="215" y="465"/>
      <point x="157" y="457"/>
      <point x="157" y="380" type="curve" smooth="yes"/>
      <point x="157" y="0" type="line"/>
      <point x="62" y="0" type="line"/>
      <point x="62" y="380" type="line" smooth="yes"/>
      <point x="62" y="506"/>
      <point x="150" y="554"/>
      <point x="240" y="554" type="curve" smooth="yes"/>
    </contour>
  </outline>
</glyph>
<glyph name="eth" format="1">
  <advance width="448"/>
  <unicode hex="00F0"/>
  <outline>
    <contour>
      <point x="407" y="478" type="line"/>
      <point x="383" y="539" type="line"/>
      <point x="297" y="504" type="line"/>
      <point x="257" y="537"/>
      <point x="217" y="556"/>
      <point x="194" y="568" type="curve"/>
      <point x="158" y="505" type="line"/>
      <point x="175" y="496"/>
      <point x="196" y="486"/>
      <point x="218" y="471" type="curve"/>
      <point x="161" y="448" type="line"/>
      <point x="186" y="388" type="line"/>
      <point x="271" y="422" type="line"/>
      <point x="286" y="403"/>
      <point x="298" y="380"/>
      <point x="305" y="351" type="curve"/>
      <point x="277" y="362"/>
      <point x="246" y="367"/>
      <point x="218" y="367" type="curve" smooth="yes"/>
      <point x="115" y="367"/>
      <point x="28" y="305"/>
      <point x="28" y="182" type="curve" smooth="yes"/>
      <point x="28" y="65"/>
      <point x="103" y="-9"/>
      <point x="225" y="-9" type="curve" smooth="yes"/>
      <point x="330" y="-9"/>
      <point x="424" y="73"/>
      <point x="424" y="218" type="curve" smooth="yes"/>
      <point x="424" y="326"/>
      <point x="390" y="401"/>
      <point x="348" y="454" type="curve"/>
    </contour>
    <contour>
      <point x="170" y="67"/>
      <point x="125" y="110"/>
      <point x="125" y="182" type="curve" smooth="yes"/>
      <point x="125" y="269"/>
      <point x="180" y="295"/>
      <point x="240" y="295" type="curve" smooth="yes"/>
      <point x="268" y="295"/>
      <point x="296" y="287"/>
      <point x="325" y="272" type="curve"/>
      <point x="346" y="101"/>
      <point x="279" y="67"/>
      <point x="225" y="67" type="curve" smooth="yes"/>
    </contour>
  </outline>
</glyph>
<glyph name="thorn" format="1">
  <advance width="440"/>
  <unicode hex="00FE"/>
  <outline>
    <contour>
      <point x="131" y="370" type="line"/>
      <point x="158" y="385"/>
      <point x="180" y="390"/>
      <point x="225" y="390" type="curve" smooth="yes"/>
      <point x="339" y="390"/>
      <point x="409" y="316"/>
      <point x="409" y="191" type="curve" smooth="yes"/>
      <point x="409" y="69"/>
      <point x="338" y="-9"/>
      <point x="215" y="-9" type="curve" smooth="yes"/>
      <point x="180" y="-9"/>
      <point x="158" y="-1"/>
      <point x="131" y="11" type="curve"/>
      <point x="131" y="-206" type="line"/>
      <point x="36" y="-206" type="line"/>
      <point x="36" y="550" type="line"/>
      <point x="131" y="550" type="line"/>
    </contour>
    <contour>
      <point x="132" y="85" type="line"/>
      <point x="149" y="74"/>
      <point x="170" y="66"/>
      <point x="198" y="66" type="curve" smooth="yes"/>
      <point x="259" y="66"/>
      <point x="312" y="106"/>
      <point x="312" y="197" type="curve" smooth="yes"/>
      <point x="312" y="286"/>
      <point x="262" y="317"/>
      <point x="202" y="317" type="curve" smooth="yes"/>
      <point x="171" y="317"/>
      <point x="149" y="310"/>
      <point x="132" y="298" type="curve"/>
    </contour>
  </outline>
</glyph>
<glyph name="Aogonek" format="1">
  <advance width="535"/>
  <unicode hex="0104"/>
  <outline>
    <contour>
      <point x="195" y="233" type="line"/>
      <point x="335" y="233" type="line"/>
      <point x="265" y="439" type="line"/>
    </contour>
    <contour>
      <point x="164" y="145" type="line"/>
      <point x="109" y="0" type="line"/>
      <point x="13" y="0" type="line"/>
      <point x="220" y="550" type="line"/>
      <point x="315" y="550" type="line"/>
      <point x="522" y="0" type="line"/>
      <point x="395" y="-39"/>
      <point x="365" y="-56"/>
      <point x="365" y="-87" type="curve" smooth="yes"/>
      <point x="365" y="-115"/>
      <point x="379" y="-137"/>
      <point x="414" y="-137" type="curve" smooth="yes"/>
      <point x="439" y="-137"/>
      <point x="465" y="-125"/>
      <point x="485" y="-118" type="curve"/>
      <point x="508" y="-162" type="line"/>
      <point x="475" y="-182"/>
      <point x="438" y="-200"/>
      <point x="383" y="-200" type="curve" smooth="yes"/>
      <point x="311" y="-200"/>
      <point x="272" y="-156"/>
      <point x="272" y="-99" type="curve" smooth="yes"/>
      <point x="272" y="-40"/>
      <point x="320" y="-12"/>
      <point x="411" y="25" type="curve"/>
      <point x="367" y="145" type="line"/>
    </contour>
  </outline>
</glyph>
<glyph name="aogonek" format="1">
  <advance width="405"/>
  <unicode hex="0105"/>
  <outline>
    <contour>
      <point x="311" y="-27"/>
      <point x="252" y="-61"/>
      <point x="252" y="-101" type="curve" smooth="yes"/>
      <point x="252" y="-126"/>
      <point x="269" y="-140"/>
      <point x="297" y="-140" type="curve" smooth="yes"/>
      <point x="321" y="-140"/>
      <point x="350" y="-124"/>
      <point x="369" y="-113" type="curve"/>
      <point x="395" y="-158" type="line"/>
      <point x="362" y="-179"/>
      <point x="327" y="-200"/>
      <point x="270" y="-200" type="curve" smooth="yes"/>
      <point x="210" y="-200"/>
      <point x="162" y="-164"/>
      <point x="162" y="-116" type="curve" smooth="yes"/>
      <point x="162" y="-44"/>
      <point x="241" y="-15"/>
      <point x="286" y="9" type="curve"/>
      <point x="277" y="27" type="line"/>
      <point x="248" y="4"/>
      <point x="210" y="-9"/>
      <point x="165" y="-9" type="curve" smooth="yes"/>
      <point x="80" y="-9"/>
      <point x="29" y="40"/>
      <point x="29" y="105" type="curve" smooth="yes"/>
      <point x="29" y="181"/>
      <point x="88" y="223"/>
      <point x="189" y="228" type="curve" smooth="yes"/>
      <point x="264" y="232" type="line"/>
      <point x="264" y="297"/>
      <point x="246" y="318"/>
      <point x="175" y="318" type="curve" smooth="yes"/>
      <point x="138" y="318"/>
      <point x="106" y="309"/>
      <point x="77" y="298" type="curve"/>
      <point x="62" y="364" type="line"/>
      <point x="89" y="373"/>
      <point x="140" y="390"/>
      <point x="190" y="390" type="curve" smooth="yes"/>
      <point x="329" y="390"/>
      <point x="364" y="325"/>
      <point x="364" y="236" type="curve" smooth="yes"/>
      <point x="364" y="0" type="line"/>
    </contour>
    <contour>
      <point x="200" y="162" type="line" smooth="yes"/>
      <point x="150" y="159"/>
      <point x="125" y="143"/>
      <point x="125" y="112" type="curve" smooth="yes"/>
      <point x="125" y="81"/>
      <point x="149" y="63"/>
      <point x="189" y="63" type="curve" smooth="yes"/>
      <point x="232" y="63"/>
      <point x="245" y="74"/>
      <point x="268" y="85" type="curve"/>
      <point x="268" y="167" type="line"/>
    </contour>
  </outline>
</glyph>
<glyph name="gcommaaccent" format="1">
  <advance width="455"/>
  <unicode hex="0123"/>
  <outline>
    <contour>
      <point x="258" y="450" type="line"/>
      <point x="187" y="450" type="line"/>
      <point x="213" y="626" type="line"/>
      <point x="305" y="626" type="line"/>
    </contour>
    <component base="g"/>
  </outline>
</glyph>
<glyph name="iogonek" format="1">
  <advance width="205"/>
  <unicode hex="012F"/>
  <outline>
    <contour>
      <point x="82" y="-19"/>
      <point x="53" y="-48"/>
      <point x="53" y="-87" type="curve" smooth="yes"/>
      <point x="53" y="-115"/>
      <point x="69" y="-137"/>
      <point x="102" y="-137" type="curve" smooth="yes"/>
      <point x="127" y="-137"/>
      <point x="154" y="-125"/>
      <point x="174" y="-118" type="curve"/>
      <point x="197" y="-162" type="line"/>
      <point x="162" y="-182"/>
      <point x="126" y="-200"/>
      <point x="70" y="-200" type="curve" smooth="yes"/>
      <point x="2" y="-200"/>
      <point x="-40" y="-156"/>
      <point x="-40" y="-99" type="curve" smooth="yes"/>
      <point x="-40" y="-52"/>
      <point x="-6" y="-13"/>
      <point x="62" y="20" type="curve"/>
      <point x="62" y="384" type="line"/>
      <point x="157" y="384" type="line"/>
      <point x="157" y="18" type="line"/>
    </contour>
    <component base="dotaccent" xOffset="42"/>
    <contour>
      <point x="109" y="384" type="move" name="top"/>
    </contour>
  </outline>
</glyph>
<glyph name="lcaron" format="1">
  <advance width="295"/>
  <unicode hex="013E"/>
  <outline>
    <contour>
      <point x="278" y="420" type="line"/>
      <point x="207" y="420" type="line"/>
      <point x="233" y="596" type="line"/>
      <point x="325" y="596" type="line"/>
    </contour>
    <component base="l"/>
  </outline>
</glyph>
<glyph name="Lslash" format="1">
  <advance width="463"/>
  <unicode hex="0141"/>
  <outline>
    <contour>
      <point x="299" y="325" type="line"/>
      <point x="0" y="150" type="line"/>
      <point x="0" y="250" type="line"/>
      <point x="299" y="424" type="line"/>
    </contour>
    <contour>
      <point x="182" y="89" type="line"/>
      <point x="443" y="89" type="line"/>
      <point x="443" y="0" type="line"/>
      <point x="85" y="0" type="line"/>
      <point x="85" y="550" type="line"/>
      <point x="182" y="550" type="line"/>
    </contour>
  </outline>
</glyph>
<glyph name="lslash" format="1">
  <advance width="252"/>
  <unicode hex="0142"/>
  <outline>
    <contour>
      <point x="162" y="66"/>
      <point x="153" y="90"/>
      <point x="153" y="127" type="curve" smooth="yes"/>
      <point x="153" y="242" type="line"/>
      <point x="232" y="287" type="line"/>
      <point x="232" y="375" type="line"/>
      <point x="153" y="330" type="line"/>
      <point x="153" y="550" type="line"/>
      <point x="61" y="550" type="line"/>
      <point x="61" y="277" type="line"/>
      <point x="0" y="242" type="line"/>
      <point x="0" y="155" type="line"/>
      <point x="61" y="190" type="line"/>
      <point x="61" y="99" type="line" smooth="yes"/>
      <point x="61" y="46"/>
      <point x="76" y="-9"/>
      <point x="158" y="-9" type="curve" smooth="yes"/>
      <point x="202" y="-9"/>
      <point x="229" y="3"/>
      <point x="244" y="10" type="curve"/>
      <point x="244" y="73" type="line"/>
      <point x="229" y="69"/>
      <point x="212" y="66"/>
      <point x="199" y="66" type="curve" smooth="yes"/>
    </contour>
  </outline>
</glyph>
<glyph name="OE" format="1">
  <advance width="778"/>
  <unicode hex="0152"/>
  <outline>
    <contour>
      <point x="732" y="462" type="line"/>
      <point x="479" y="462" type="line"/>
      <point x="479" y="324" type="line"/>
      <point x="705" y="324" type="line"/>
      <point x="705" y="235" type="line"/>
      <point x="479" y="235" type="line"/>
      <point x="479" y="89" type="line"/>
      <point x="732" y="89" type="line"/>
      <point x="732" y="0" type="line"/>
      <point x="383" y="0" type="line" smooth="yes"/>
      <point x="336" y="0"/>
      <point x="288" y="0"/>
      <point x="240" y="11" type="curve"/>
      <point x="86" y="54"/>
      <point x="40" y="174"/>
      <point x="40" y="292" type="curve" smooth="yes"/>
      <point x="40" y="407"/>
      <point x="101" y="550"/>
      <point x="333" y="550" type="curve" smooth="yes"/>
      <point x="732" y="550" type="line"/>
    </contour>
    <contour>
      <point x="208" y="462"/>
      <point x="140" y="400"/>
      <point x="140" y="279" type="curve" smooth="yes"/>
      <point x="140" y="147"/>
      <point x="208" y="89"/>
      <point x="334" y="89" type="curve" smooth="yes"/>
      <point x="383" y="89" type="line"/>
      <point x="383" y="462" type="line"/>
      <point x="332" y="462" type="line" smooth="yes"/>
    </contour>
  </outline>
</glyph>
<glyph name="oe" format="1">
  <advance width="687"/>
  <unicode hex="0153"/>
  <outline>
    <contour>
      <point x="658" y="190" type="line" smooth="yes"/>
      <point x="658" y="311"/>
      <point x="610" y="390"/>
      <point x="490" y="390" type="curve" smooth="yes"/>
      <point x="443" y="390"/>
      <point x="398" y="370"/>
      <point x="365" y="334" type="curve"/>
      <point x="331" y="370"/>
      <point x="288" y="390"/>
      <point x="227" y="390" type="curve" smooth="yes"/>
      <point x="107" y="390"/>
      <point x="29" y="314"/>
      <point x="29" y="190" type="curve" smooth="yes"/>
      <point x="29" y="74"/>
      <point x="107" y="-9"/>
      <point x="226" y="-9" type="curve" smooth="yes"/>
      <point x="286" y="-9"/>
      <point x="330" y="11"/>
      <point x="361" y="47" type="curve"/>
      <point x="395" y="11"/>
      <point x="445" y="-10"/>
      <point x="515" y="-10" type="curve" smooth="yes"/>
      <point x="567" y="-10"/>
      <point x="608" y="0"/>
      <point x="641" y="13" type="curve"/>
      <point x="626" y="78" type="line"/>
      <point x="597" y="71"/>
      <point x="567" y="66"/>
      <point x="520" y="66" type="curve" smooth="yes"/>
      <point x="451" y="66"/>
      <point x="415" y="84"/>
      <point x="408" y="153" type="curve"/>
      <point x="658" y="153" type="line"/>
    </contour>
    <contour>
      <point x="173" y="67"/>
      <point x="128" y="109"/>
      <point x="128" y="190" type="curve" smooth="yes"/>
      <point x="128" y="272"/>
      <point x="174" y="315"/>
      <point x="226" y="315" type="curve" smooth="yes"/>
      <point x="279" y="315"/>
      <point x="325" y="273"/>
      <point x="325" y="190" type="curve" smooth="yes"/>
      <point x="325" y="109"/>
      <point x="282" y="67"/>
      <point x="226" y="67" type="curve" smooth="yes"/>
    </contour>
    <contour>
      <point x="410" y="220" type="line"/>
      <point x="410" y="284"/>
      <point x="456" y="315"/>
      <point x="493" y="315" type="curve" smooth="yes"/>
      <point x="538" y="315"/>
      <point x="566" y="284"/>
      <point x="566" y="220" type="curve"/>
    </contour>
  </outline>
</glyph>
<glyph name="Scedilla" format="1">
  <advance width="499"/>
  <unicode hex="015E"/>
  <outline>
    <contour>
      <point x="264" y="-141"/>
      <point x="270" y="-134"/>
      <point x="270" y="-129" type="curve" smooth="yes"/>
      <point x="270" y="-121"/>
      <point x="267" y="-113"/>
      <point x="232" y="-102" type="curve" smooth="yes"/>
      <point x="177" y="-86" type="line"/>
      <point x="199" y="-7" type="line"/>
      <point x="143" y="-2"/>
      <point x="98" y="14"/>
      <point x="53" y="30" type="curve"/>
      <point x="40" y="36" type="line"/>
      <point x="73" y="125" type="line"/>
      <point x="88" y="119" type="line" smooth="yes"/>
      <point x="160" y="92"/>
      <point x="209" y="85"/>
      <point x="238" y="85" type="curve" smooth="yes"/>
      <point x="310" y="85"/>
      <point x="358" y="112"/>
      <point x="358" y="153" type="curve"/>
      <point x="362" y="256"/>
      <point x="62" y="208"/>
      <point x="62" y="400" type="curve" smooth="yes"/>
      <point x="62" y="490"/>
      <point x="141" y="555"/>
      <point x="268" y="555" type="curve" smooth="yes"/>
      <point x="351" y="555"/>
      <point x="412" y="532"/>
      <point x="430" y="526" type="curve" smooth="yes"/>
      <point x="441" y="522" type="line"/>
      <point x="409" y="433" type="line"/>
      <point x="365" y="450"/>
      <point x="322" y="463"/>
      <point x="271" y="463" type="curve" smooth="yes"/>
      <point x="203" y="463"/>
      <point x="162" y="437"/>
      <point x="162" y="396" type="curve" smooth="yes"/>
      <point x="162" y="302"/>
      <point x="459" y="342"/>
      <point x="459" y="153" type="curve" smooth="yes"/>
      <point x="459" y="79"/>
      <point x="409" y="9"/>
      <point x="273" y="-7" type="curve"/>
      <point x="264" y="-42" type="line"/>
      <point x="303" y="-52"/>
      <point x="343" y="-76"/>
      <point x="343" y="-124" type="curve" smooth="yes"/>
      <point x="343" y="-167"/>
      <point x="314" y="-208"/>
      <point x="245" y="-208" type="curve" smooth="yes"/>
      <point x="217" y="-208"/>
      <point x="186" y="-203"/>
      <point x="153" y="-191" type="curve"/>
      <point x="137" y="-187" type="line"/>
      <point x="157" y="-121" type="line"/>
      <point x="211" y="-136" type="line"/>
      <point x="230" y="-137"/>
      <point x="238" y="-141"/>
      <point x="247" y="-141" type="curve" smooth="yes"/>
    </contour>
  </outline>
</glyph>
<glyph name="scedilla" format="1">
  <advance width="381"/>
  <unicode hex="015F"/>
  <outline>
    <contour>
      <point x="210" y="-141"/>
      <point x="215" y="-134"/>
      <point x="215" y="-129" type="curve" smooth="yes"/>
      <point x="215" y="-121"/>
      <point x="210" y="-113"/>
      <point x="177" y="-102" type="curve"/>
      <point x="121" y="-86" type="line"/>
      <point x="142" y="-7" type="line"/>
      <point x="103" y="0"/>
      <point x="63" y="10"/>
      <point x="31" y="26" type="curve"/>
      <point x="58" y="101" type="line"/>
      <point x="102" y="85"/>
      <point x="153" y="73"/>
      <point x="185" y="73" type="curve" smooth="yes"/>
      <point x="244" y="73"/>
      <point x="261" y="86"/>
      <point x="261" y="115" type="curve" smooth="yes"/>
      <point x="261" y="162"/>
      <point x="44" y="142"/>
      <point x="44" y="279" type="curve" smooth="yes"/>
      <point x="44" y="320"/>
      <point x="59" y="390"/>
      <point x="207" y="390" type="curve"/>
      <point x="251" y="393"/>
      <point x="309" y="375"/>
      <point x="334" y="368" type="curve"/>
      <point x="310" y="294" type="line"/>
      <point x="286" y="301"/>
      <point x="247" y="312"/>
      <point x="208" y="312" type="curve" smooth="yes"/>
      <point x="145" y="312"/>
      <point x="134" y="287"/>
      <point x="134" y="276" type="curve" smooth="yes"/>
      <point x="134" y="223"/>
      <point x="353" y="245"/>
      <point x="353" y="115" type="curve" smooth="yes"/>
      <point x="353" y="67"/>
      <point x="329" y="7"/>
      <point x="218" y="-7" type="curve"/>
      <point x="208" y="-42" type="line"/>
      <point x="248" y="-52"/>
      <point x="287" y="-77"/>
      <point x="287" y="-124" type="curve" smooth="yes"/>
      <point x="287" y="-167"/>
      <point x="259" y="-208"/>
      <point x="189" y="-208" type="curve" smooth="yes"/>
      <point x="161" y="-208"/>
      <point x="130" y="-203"/>
      <point x="98" y="-191" type="curve"/>
      <point x="81" y="-187" type="line"/>
      <point x="101" y="-121" type="line"/>
      <point x="156" y="-136" type="line"/>
      <point x="173" y="-137"/>
      <point x="183" y="-141"/>
      <point x="191" y="-141" type="curve" smooth="yes"/>
    </contour>
  </outline>
</glyph>
<glyph name="Tcedilla" format="1">
  <advance width="476"/>
  <unicode hex="0162"/>
  <outline>
    <contour>
      <point x="252" y="-141"/>
      <point x="258" y="-134"/>
      <point x="258" y="-129" type="curve" smooth="yes"/>
      <point x="258" y="-121"/>
      <point x="255" y="-113"/>
      <point x="220" y="-102" type="curve" smooth="yes"/>
      <point x="165" y="-86" type="line"/>
      <point x="189" y="1" type="line"/>
      <point x="189" y="462" type="line"/>
      <point x="9" y="462" type="line"/>
      <point x="9" y="550" type="line"/>
      <point x="467" y="550" type="line"/>
      <point x="467" y="462" type="line"/>
      <point x="287" y="462" type="line"/>
      <point x="287" y="0" type="line"/>
      <point x="276" y="-41" type="line"/>
      <point x="307" y="-52"/>
      <point x="331" y="-73"/>
      <point x="331" y="-124" type="curve" smooth="yes"/>
      <point x="331" y="-167"/>
      <point x="302" y="-208"/>
      <point x="233" y="-208" type="curve" smooth="yes"/>
      <point x="204" y="-208"/>
      <point x="174" y="-203"/>
      <point x="141" y="-191" type="curve"/>
      <point x="125" y="-187" type="line"/>
      <point x="145" y="-121" type="line"/>
      <point x="199" y="-136" type="line"/>
      <point x="216" y="-137"/>
      <point x="225" y="-141"/>
      <point x="236" y="-141" type="curve" smooth="yes"/>
    </contour>
  </outline>
</glyph>
<glyph name="tcaron" format="1">
  <advance width="332"/>
  <unicode hex="0165"/>
  <outline>
    <contour>
      <point x="280" y="430" type="line"/>
      <point x="209" y="430" type="line"/>
      <point x="233" y="596" type="line"/>
      <point x="325" y="596" type="line"/>
    </contour>
    <component base="t"/>
  </outline>
</glyph>
<glyph name="Uogonek" format="1">
  <advance width="566"/>
  <unicode hex="0172"/>
  <outline>
    <contour>
      <point x="508" y="130"/>
      <point x="494" y="70"/>
      <point x="443" y="38" type="curve"/>
      <point x="374" y="-10"/>
      <point x="284" y="-36"/>
      <point x="284" y="-92" type="curve" smooth="yes"/>
      <point x="284" y="-119"/>
      <point x="302" y="-138"/>
      <point x="335" y="-138" type="curve" smooth="yes"/>
      <point x="360" y="-138"/>
      <point x="389" y="-125"/>
      <point x="406" y="-118" type="curve"/>
      <point x="428" y="-162" type="line"/>
      <point x="396" y="-182"/>
      <point x="358" y="-200"/>
      <point x="302" y="-200" type="curve" smooth="yes"/>
      <point x="235" y="-200"/>
      <point x="189" y="-157"/>
      <point x="189" y="-107" type="curve" smooth="yes"/>
      <point x="189" y="-66"/>
      <point x="218" y="-27"/>
      <point x="257" y="-8" type="curve"/>
      <point x="63" y="0"/>
      <point x="58" y="137"/>
      <point x="58" y="199" type="curve" smooth="yes"/>
      <point x="58" y="550" type="line"/>
      <point x="155" y="550" type="line"/>
      <point x="155" y="204" type="line" smooth="yes"/>
      <point x="155" y="187"/>
      <point x="157" y="171"/>
      <point x="160" y="157" type="curve" smooth="yes"/>
      <point x="172" y="109"/>
      <point x="215" y="82"/>
      <point x="282" y="82" type="curve" smooth="yes"/>
      <point x="350" y="82"/>
      <point x="394" y="109"/>
      <point x="406" y="157" type="curve" smooth="yes"/>
      <point x="409" y="171"/>
      <point x="410" y="187"/>
      <point x="410" y="204" type="curve" smooth="yes"/>
      <point x="410" y="550" type="line"/>
      <point x="508" y="550" type="line"/>
      <point x="508" y="199" type="line" smooth="yes"/>
    </contour>
  </outline>
</glyph>
<glyph name="uogonek" format="1">
  <advance width="432"/>
  <unicode hex="0173"/>
  <outline>
    <contour>
      <point x="280" y="12"/>
      <point x="239" y="-9"/>
      <point x="187" y="-9" type="curve" smooth="yes"/>
      <point x="54" y="-9"/>
      <point x="47" y="99"/>
      <point x="47" y="165" type="curve" smooth="yes"/>
      <point x="47" y="383" type="line"/>
      <point x="142" y="383" type="line"/>
      <point x="142" y="148" type="line" smooth="yes"/>
      <point x="142" y="118"/>
      <point x="151" y="69"/>
      <point x="212" y="69" type="curve" smooth="yes"/>
      <point x="229" y="69"/>
      <point x="261" y="74"/>
      <point x="296" y="91" type="curve"/>
      <point x="296" y="383" type="line"/>
      <point x="390" y="383" type="line"/>
      <point x="390" y="0" type="line"/>
      <point x="339" y="-26"/>
      <point x="279" y="-62"/>
      <point x="279" y="-101" type="curve" smooth="yes"/>
      <point x="279" y="-126"/>
      <point x="297" y="-140"/>
      <point x="324" y="-140" type="curve" smooth="yes"/>
      <point x="351" y="-140"/>
      <point x="380" y="-124"/>
      <point x="395" y="-113" type="curve"/>
      <point x="423" y="-158" type="line"/>
      <point x="391" y="-179"/>
      <point x="353" y="-200"/>
      <point x="297" y="-200" type="curve" smooth="yes"/>
      <point x="239" y="-200"/>
      <point x="189" y="-164"/>
      <point x="189" y="-116" type="curve" smooth="yes"/>
      <point x="189" y="-50"/>
      <point x="277" y="-17"/>
      <point x="321" y="7" type="curve"/>
      <point x="312" y="27" type="line"/>
    </contour>
  </outline>
</glyph>
<glyph name="dotlessj" format="1">
  <advance width="201"/>
  <unicode hex="0237"/>
  <outline>
    <contour>
      <point x="153" y="-29" type="line" smooth="yes"/>
      <point x="153" y="-92"/>
      <point x="138" y="-165"/>
      <point x="22" y="-207" type="curve"/>
      <point x="9" y="-211" type="line"/>
      <point x="-24" y="-145" type="line"/>
      <point x="-10" y="-137" type="line"/>
      <point x="52" y="-105"/>
      <point x="59" y="-83"/>
      <point x="59" y="3" type="curve" smooth="yes"/>
      <point x="59" y="384" type="line"/>
      <point x="153" y="384" type="line"/>
    </contour>
    <contour>
      <point x="106" y="384" type="move" name="top"/>
    </contour>
  </outline>
</glyph>
<glyph name="circumflex" format="1">
  <advance width="286"/>
  <unicode hex="02C6"/>
  <outline>
    <contour>
      <point x="5" y="483" type="line"/>
      <point x="143" y="634" type="line"/>
      <point x="281" y="483" type="line"/>
      <point x="229" y="430" type="line"/>
      <point x="143" y="524" type="line"/>
      <point x="57" y="430" type="line"/>
    </contour>
    <contour>
      <point x="143" y="384" type="move" name="_top"/>
    </contour>
  </outline>
</glyph>
<glyph name="breve" format="1">
  <advance width="288"/>
  <unicode hex="02D8"/>
  <outline>
    <contour>
      <point x="63" y="440"/>
      <point x="21" y="508"/>
      <point x="5" y="550" type="curve"/>
      <point x="69" y="577" type="line"/>
      <point x="85" y="547"/>
      <point x="103" y="510"/>
      <point x="144" y="510" type="curve" smooth="yes"/>
      <point x="184" y="510"/>
      <point x="204" y="547"/>
      <point x="218" y="577" type="curve"/>
      <point x="283" y="550" type="line"/>
      <point x="267" y="508"/>
      <point x="225" y="440"/>
      <point x="144" y="440" type="curve" smooth="yes"/>
    </contour>
    <contour>
      <point x="144" y="384" type="move" name="_top"/>
    </contour>
  </outline>
</glyph>
<glyph name="dotaccent" format="1">
  <advance width="132"/>
  <unicode hex="02D9"/>
  <outline>
    <contour>
      <point x="100" y="449"/>
      <point x="127" y="476"/>
      <point x="127" y="510" type="curve" smooth="yes"/>
      <point x="127" y="544"/>
      <point x="100" y="571"/>
      <point x="66" y="571" type="curve" smooth="yes"/>
      <point x="32" y="571"/>
      <point x="5" y="544"/>
      <point x="5" y="510" type="curve" smooth="yes"/>
      <point x="5" y="476"/>
      <point x="32" y="449"/>
      <point x="66" y="449" type="curve" smooth="yes"/>
    </contour>
    <contour>
      <point x="66" y="384" type="move" name="_top"/>
    </contour>
  </outline>
</glyph>
<glyph name="ogonek" format="1">
  <advance width="256"/>
  <unicode hex="02DB"/>
  <outline>
    <contour>
      <point x="130" y="-18"/>
      <point x="101" y="-57"/>
      <point x="101" y="-104" type="curve" smooth="yes"/>
      <point x="101" y="-130"/>
      <point x="121" y="-157"/>
      <point x="157" y="-157" type="curve" smooth="yes"/>
      <point x="181" y="-157"/>
      <point x="203" y="-146"/>
      <point x="223" y="-138" type="curve"/>
      <point x="246" y="-182" type="line"/>
      <point x="211" y="-202"/>
      <point x="176" y="-220"/>
      <point x="129" y="-220" type="curve" smooth="yes"/>
      <point x="50" y="-220"/>
      <point x="10" y="-166"/>
      <point x="10" y="-109" type="curve" smooth="yes"/>
      <point x="10" y="-51"/>
      <point x="55" y="-1"/>
      <point x="145" y="36" type="curve"/>
      <point x="205" y="14" type="line"/>
    </contour>
  </outline>
</glyph>
<glyph name="tilde" format="1">
  <advance width="335"/>
  <unicode hex="02DC"/>
  <outline>
    <contour>
      <point x="151" y="551"/>
      <point x="195" y="514"/>
      <point x="220" y="514" type="curve" smooth="yes"/>
      <point x="245" y="514"/>
      <point x="251" y="530"/>
      <point x="258" y="549" type="curve"/>
      <point x="330" y="525" type="line"/>
      <point x="325" y="481"/>
      <point x="289" y="435"/>
      <point x="225" y="435" type="curve" smooth="yes"/>
      <point x="179" y="435"/>
      <point x="141" y="473"/>
      <point x="119" y="473" type="curve" smooth="yes"/>
      <point x="94" y="473"/>
      <point x="88" y="454"/>
      <point x="80" y="437" type="curve"/>
      <point x="7" y="460" type="line"/>
      <point x="15" y="510"/>
      <point x="55" y="551"/>
      <point x="105" y="551" type="curve" smooth="yes"/>
    </contour>
    <contour>
      <point x="168" y="384" type="move" name="_top"/>
    </contour>
  </outline>
</glyph>
<glyph name="uni0326" format="1">
  <advance width="156"/>
  <unicode hex="0326"/>
  <outline>
    <contour>
      <point x="86" y="-217" type="line"/>
      <point x="5" y="-217" type="line"/>
      <point x="41" y="-41" type="line"/>
      <point x="151" y="-41" type="line"/>
    </contour>
    <contour>
      <point x="99" y="0" type="move" name="_bottom"/>
    </contour>
  </outline>
</glyph>
<glyph name="candraBindu-deva" format="1">
  <advance width="0"/>
  <unicode hex="0901"/>
  <outline>
    <contour>
      <point x="-76" y="626"/>
      <point x="-59" y="643"/>
      <point x="-59" y="668" type="curve" smooth="yes"/>
      <point x="-59" y="694"/>
      <point x="-76" y="711"/>
      <point x="-102" y="711" type="curve" smooth="yes"/>
      <point x="-127" y="711"/>
      <point x="-144" y="694"/>
      <point x="-144" y="668" type="curve" smooth="yes"/>
      <point x="-144" y="643"/>
      <point x="-127" y="626"/>
      <point x="-102" y="626" type="curve" smooth="yes"/>
    </contour>
    <contour>
      <point x="-19" y="519"/>
      <point x="31" y="566"/>
      <point x="47" y="624" type="curve"/>
      <point x="-15" y="652" type="line"/>
      <point x="-33" y="607"/>
      <point x="-60" y="585"/>
      <point x="-101" y="585" type="curve" smooth="yes"/>
      <point x="-142" y="585"/>
      <point x="-169" y="607"/>
      <point x="-187" y="652" type="curve"/>
      <point x="-249" y="624" type="line"/>
      <point x="-233" y="566"/>
      <point x="-183" y="519"/>
      <point x="-101" y="519" type="curve" smooth="yes"/>
    </contour>
    <contour>
      <point x="-101" y="447" type="move" name="_top"/>
    </contour>
  </outline>
</glyph>
<glyph name="visarga-deva" format="1">
  <advance width="181"/>
  <unicode hex="0903"/>
  <outline>
    <contour>
      <point x="120" y="246"/>
      <point x="141" y="267"/>
      <point x="141" y="297" type="curve" smooth="yes"/>
      <point x="141" y="326"/>
      <point x="120" y="347"/>
      <point x="91" y="347" type="curve" smooth="yes"/>
      <point x="61" y="347"/>
      <point x="40" y="326"/>
      <point x="40" y="297" type="curve" smooth="yes"/>
      <point x="40" y="267"/>
      <point x="61" y="246"/>
      <point x="91" y="246" type="curve" smooth="yes"/>
    </contour>
    <contour>
      <point x="120" y="40"/>
      <point x="141" y="61"/>
      <point x="141" y="91" type="curve" smooth="yes"/>
      <point x="141" y="120"/>
      <point x="120" y="141"/>
      <point x="91" y="141" type="curve" smooth="yes"/>
      <point x="61" y="141"/>
      <point x="40" y="120"/>
      <point x="40" y="91" type="curve" smooth="yes"/>
      <point x="40" y="61"/>
      <point x="61" y="40"/>
      <point x="91" y="40" type="curve" smooth="yes"/>
    </contour>
  </outline>
</glyph>
<glyph name="a-deva" format="1">
  <advance width="616"/>
  <unicode hex="0905"/>
  <outline>
    <contour>
      <point x="399" y="466" type="line"/>
      <point x="399" y="396" type="line"/>
      <point x="640" y="396" type="line"/>
      <point x="640" y="466" type="line"/>
    </contour>
    <contour>
      <point x="468" y="0" type="line"/>
      <point x="553" y="0" type="line"/>
      <point x="553" y="466" type="line"/>
      <point x="468" y="466" type="line"/>
    </contour>
    <contour>
      <point x="378" y="187"/>
      <point x="362" y="199"/>
      <point x="341" y="219" type="curve" smooth="yes"/>
      <point x="322" y="237"/>
      <point x="301" y="244"/>
      <point x="281" y="251" type="curve"/>
      <point x="325" y="263"/>
      <point x="361" y="299"/>
      <point x="361" y="353" type="curve" smooth="yes"/>
      <point x="361" y="423"/>
      <point x="314" y="474"/>
      <point x="222" y="474" type="curve" smooth="yes"/>
      <point x="150" y="474"/>
      <point x="112" y="438"/>
      <point x="92" y="420" type="curve"/>
      <point x="137" y="360" type="line"/>
      <point x="158" y="379"/>
      <point x="181" y="396"/>
      <point x="221" y="396" type="curve" smooth="yes"/>
      <point x="261" y="396"/>
      <point x="281" y="376"/>
      <point x="281" y="347" type="curve" smooth="yes"/>
      <point x="281" y="326"/>
      <point x="273" y="290"/>
      <point x="182" y="290" type="curve" smooth="yes"/>
      <point x="159" y="290" type="line"/>
      <point x="159" y="214" type="line"/>
      <point x="178" y="214" type="line"/>
      <point x="256" y="218"/>
      <point x="296" y="187"/>
      <point x="296" y="147" type="curve" smooth="yes"/>
      <point x="296" y="110"/>
      <point x="269" y="87"/>
      <point x="221" y="87" type="curve" smooth="yes"/>
      <point x="151" y="87"/>
      <point x="116" y="133"/>
      <point x="72" y="213" type="curve"/>
      <point x="1" y="171" type="line"/>
      <point x="57" y="72"/>
      <point x="107" y="5"/>
      <point x="222" y="5" type="curve" smooth="yes"/>
      <point x="318" y="5"/>
      <point x="378" y="64"/>
      <point x="378" y="137" type="curve" smooth="yes"/>
    </contour>
    <contour>
      <point x="421" y="211"/>
      <point x="381" y="206"/>
      <point x="271" y="257" type="curve"/>
      <point x="253" y="216" type="line"/>
      <point x="330" y="153"/>
      <point x="406" y="127"/>
      <point x="485" y="173" type="curve"/>
      <point x="483" y="257" type="line"/>
    </contour>
  </outline>
</glyph>
<glyph name="i-deva" format="1">
  <advance width="376"/>
  <unicode hex="0907"/>
  <outline>
    <contour>
      <point x="252" y="152"/>
      <point x="264" y="133"/>
      <point x="264" y="116" type="curve" smooth="yes"/>
      <point x="264" y="93"/>
      <point x="242" y="70"/>
      <point x="178" y="70" type="curve" smooth="yes"/>
      <point x="158" y="70"/>
      <point x="150" y="72"/>
      <point x="138" y="76" type="curve"/>
      <point x="89" y="138" type="line"/>
      <point x="63" y="138"/>
      <point x="27" y="128"/>
      <point x="27" y="86" type="curve"/>
      <point x="27" y="39"/>
      <point x="101" y="-3"/>
      <point x="189" y="-3" type="curve" smooth="yes"/>
      <point x="285" y="-3"/>
      <point x="345" y="46"/>
      <point x="345" y="120" type="curve" smooth="yes"/>
      <point x="345" y="189"/>
      <point x="291" y="227"/>
      <point x="204" y="223" type="curve" smooth="yes"/>
      <point x="153" y="221"/>
      <point x="117" y="226"/>
      <point x="117" y="254" type="curve" smooth="yes"/>
      <point x="117" y="272"/>
      <point x="133" y="279"/>
      <point x="183" y="279" type="curve" smooth="yes"/>
      <point x="248" y="279"/>
      <point x="270" y="272"/>
      <point x="305" y="268" type="curve"/>
      <point x="315" y="275" type="line"/>
      <point x="315" y="456" type="line"/>
      <point x="239" y="456" type="line"/>
      <point x="239" y="348" type="line"/>
      <point x="218" y="350"/>
      <point x="208" y="351"/>
      <point x="175" y="351" type="curve" smooth="yes"/>
      <point x="98" y="351"/>
      <point x="37" y="322"/>
      <point x="37" y="250" type="curve" smooth="yes"/>
      <point x="37" y="172"/>
      <point x="104" y="142"/>
      <point x="192" y="148" type="curve" smooth="yes"/>
    </contour>
    <contour>
      <point x="-24" y="466" type="line"/>
      <point x="-24" y="396" type="line"/>
      <point x="401" y="396" type="line"/>
      <point x="401" y="466" type="line"/>
    </contour>
    <contour>
      <point x="81" y="47" type="line"/>
      <point x="188" y="-119" type="line"/>
      <point x="258" y="-74" type="line"/>
      <point x="140" y="59" type="line"/>
    </contour>
    <contour>
      <point x="279" y="447" type="move" name="top"/>
    </contour>
  </outline>
</glyph>
<glyph name="uu-deva" format="1">
  <advance width="600"/>
  <unicode hex="090A"/>
  <outline>
    <contour>
      <point x="394" y="206"/>
      <point x="342" y="235"/>
      <point x="297" y="246" type="curve"/>
      <point x="341" y="258"/>
      <point x="377" y="299"/>
      <point x="377" y="353" type="curve" smooth="yes"/>
      <point x="377" y="401"/>
      <point x="355" y="440"/>
      <point x="312" y="460" type="curve"/>
      <point x="237" y="396" type="line"/>
      <point x="277" y="396"/>
      <point x="297" y="376"/>
      <point x="297" y="347" type="curve" smooth="yes"/>
      <point x="297" y="326"/>
      <point x="289" y="285"/>
      <point x="198" y="285" type="curve" smooth="yes"/>
      <point x="175" y="285" type="line"/>
      <point x="175" y="209" type="line"/>
      <point x="194" y="209" type="line"/>
      <point x="262" y="213"/>
      <point x="312" y="187"/>
      <point x="312" y="140" type="curve" smooth="yes"/>
      <point x="312" y="110"/>
      <point x="285" y="87"/>
      <point x="237" y="87" type="curve" smooth="yes"/>
      <point x="167" y="87"/>
      <point x="131" y="132"/>
      <point x="87" y="212" type="curve"/>
      <point x="17" y="171" type="line"/>
      <point x="73" y="72"/>
      <point x="128" y="5"/>
      <point x="238" y="5" type="curve" smooth="yes"/>
      <point x="334" y="5"/>
      <point x="394" y="64"/>
      <point x="394" y="137" type="curve" smooth="yes"/>
    </contour>
    <contour>
      <point x="-24" y="466" type="line"/>
      <point x="-24" y="396" type="line"/>
      <point x="624" y="396" type="line"/>
      <point x="624" y="466" type="line"/>
    </contour>
    <contour>
      <point x="354" y="148" type="line"/>
      <point x="372" y="173"/>
      <point x="403" y="212"/>
      <point x="441" y="212" type="curve" smooth="yes"/>
      <point x="471" y="212"/>
      <point x="485" y="193"/>
      <point x="485" y="170" type="curve" smooth="yes"/>
      <point x="485" y="128"/>
      <point x="460" y="111"/>
      <point x="434" y="90" type="curve"/>
      <point x="434" y="90"/>
      <point x="482" y="38"/>
      <point x="482" y="38" type="curve"/>
      <point x="512" y="60"/>
      <point x="558" y="98"/>
      <point x="558" y="170" type="curve" smooth="yes"/>
      <point x="558" y="243"/>
      <point x="507" y="284"/>
      <point x="445" y="284" type="curve" smooth="yes"/>
      <point x="370" y="284"/>
      <point x="320" y="218"/>
      <point x="320" y="218" type="curve"/>
    </contour>
  </outline>
</glyph>
<glyph name="eshortdeva" format="1">
  <advance width="439"/>
  <unicode hex="090E"/>
  <outline>
    <contour>
      <point x="381" y="542"/>
      <point x="305" y="578"/>
      <point x="242" y="578" type="curve"/>
      <point x="214" y="578"/>
      <point x="206" y="579"/>
      <point x="196" y="580" type="curve" smooth="yes"/>
      <point x="155" y="585"/>
      <point x="139" y="610"/>
      <point x="131" y="667" type="curve"/>
      <point x="60" y="641" type="line"/>
      <point x="67" y="544"/>
      <point x="132" y="506"/>
      <point x="207" y="506" type="curve"/>
      <point x="283" y="506"/>
      <point x="298" y="488"/>
      <point x="299" y="437" type="curve"/>
      <point x="381" y="437" type="line"/>
    </contour>
    <component base="edeva"/>
  </outline>
</glyph>
<glyph name="edeva" format="1">
  <advance width="439"/>
  <unicode hex="090F"/>
  <outline>
    <contour>
      <point x="51" y="152" type="line"/>
      <point x="314" y="-62" type="line"/>
      <point x="368" y="0" type="line"/>
      <point x="135" y="191" type="line"/>
      <point x="135" y="466" type="line"/>
      <point x="50" y="466" type="line"/>
    </contour>
    <contour>
      <point x="-24" y="466" type="line"/>
      <point x="-24" y="396" type="line"/>
      <point x="463" y="396" type="line"/>
      <point x="463" y="466" type="line"/>
    </contour>
    <contour>
      <point x="295" y="284" type="line"/>
      <point x="293" y="228"/>
      <point x="296" y="206"/>
      <point x="251" y="189" type="curve"/>
      <point x="290" y="116" type="line"/>
      <point x="355" y="142"/>
      <point x="379" y="173"/>
      <point x="379" y="253" type="curve"/>
      <point x="379" y="466" type="line"/>
      <point x="295" y="466" type="line"/>
    </contour>
    <contour>
      <point x="214" y="447" type="move" name="top"/>
    </contour>
  </outline>
</glyph>
<glyph name="ka-deva" format="1">
  <advance width="605"/>
  <unicode hex="0915"/>
  <outline>
    <contour>
      <point x="561" y="291"/>
      <point x="501" y="340"/>
      <point x="419" y="340" type="curve" smooth="yes"/>
      <point x="347" y="340"/>
      <point x="314" y="303"/>
      <point x="287" y="285" type="curve"/>
      <point x="301" y="205" type="line"/>
      <point x="317" y="217"/>
      <point x="369" y="262"/>
      <point x="415" y="262" type="curve" smooth="yes"/>
      <point x="460" y="262"/>
      <point x="479" y="236"/>
      <point x="479" y="200" type="curve" smooth="yes"/>
      <point x="479" y="154"/>
      <point x="446" y="127"/>
      <point x="425" y="107" type="curve"/>
      <point x="482" y="50" type="line"/>
      <point x="522" y="83"/>
      <point x="561" y="129"/>
      <point x="561" y="199" type="curve" smooth="yes"/>
    </contour>
    <contour>
      <point x="-24" y="466" type="line"/>
      <point x="-24" y="396" type="line"/>
      <point x="629" y="396" type="line"/>
      <point x="629" y="466" type="line"/>
    </contour>
    <contour>
      <point x="276" y="0" type="line"/>
      <point x="358" y="0" type="line"/>
      <point x="358" y="466" type="line"/>
      <point x="276" y="466" type="line"/>
    </contour>
    <contour>
      <point x="121" y="245"/>
      <point x="160" y="265"/>
      <point x="206" y="265" type="curve" smooth="yes"/>
      <point x="258" y="265"/>
      <point x="284" y="240"/>
      <point x="300" y="223" type="curve"/>
      <point x="316" y="299" type="line"/>
      <point x="289" y="315"/>
      <point x="256" y="340"/>
      <point x="192" y="340" type="curve" smooth="yes"/>
      <point x="109" y="340"/>
      <point x="42" y="290"/>
      <point x="42" y="197" type="curve" smooth="yes"/>
      <point x="42" y="108"/>
      <point x="109" y="55"/>
      <point x="192" y="55" type="curve" smooth="yes"/>
      <point x="254" y="55"/>
      <point x="289" y="77"/>
      <point x="316" y="95" type="curve"/>
      <point x="300" y="170" type="line"/>
      <point x="284" y="158"/>
      <point x="258" y="129"/>
      <point x="206" y="129" type="curve" smooth="yes"/>
      <point x="160" y="129"/>
      <point x="121" y="149"/>
      <point x="121" y="197" type="curve" smooth="yes"/>
    </contour>
    <contour>
      <point x="324" y="447" type="move" name="top"/>
    </contour>
    <contour>
      <point x="324" y="5" type="move" name="bottom"/>
    </contour>
  </outline>
</glyph>
<glyph name="kadeva" format="1">
  <advance width="611"/>
  <unicode hex="0915"/>
  <outline>
    <contour>
      <point x="564" y="291"/>
      <point x="504" y="340"/>
      <point x="422" y="340" type="curve" smooth="yes"/>
      <point x="350" y="340"/>
      <point x="317" y="303"/>
      <point x="290" y="285" type="curve"/>
      <point x="304" y="205" type="line"/>
      <point x="320" y="217"/>
      <point x="372" y="262"/>
      <point x="418" y="262" type="curve" smooth="yes"/>
      <point x="463" y="262"/>
      <point x="482" y="236"/>
      <point x="482" y="200" type="curve" smooth="yes"/>
      <point x="482" y="154"/>
      <point x="449" y="127"/>
      <point x="428" y="107" type="curve"/>
      <point x="485" y="50" type="line"/>
      <point x="525" y="83"/>
      <point x="564" y="129"/>
      <point x="564" y="199" type="curve" smooth="yes"/>
    </contour>
    <contour>
      <point x="-24" y="466" type="line"/>
      <point x="-24" y="396" type="line"/>
      <point x="635" y="396" type="line"/>
      <point x="635" y="466" type="line"/>
    </contour>
    <contour>
      <point x="279" y="0" type="line"/>
      <point x="361" y="0" type="line"/>
      <point x="361" y="466" type="line"/>
      <point x="279" y="466" type="line"/>
    </contour>
    <contour>
      <point x="124" y="245"/>
      <point x="163" y="265"/>
      <point x="209" y="265" type="curve" smooth="yes"/>
      <point x="261" y="265"/>
      <point x="287" y="240"/>
      <point x="303" y="223" type="curve"/>
      <point x="319" y="299" type="line"/>
      <point x="292" y="315"/>
      <point x="259" y="340"/>
      <point x="195" y="340" type="curve" smooth="yes"/>
      <point x="112" y="340"/>
      <point x="45" y="290"/>
      <point x="45" y="197" type="curve" smooth="yes"/>
      <point x="45" y="108"/>
      <point x="112" y="55"/>
      <point x="195" y="55" type="curve" smooth="yes"/>
      <point x="257" y="55"/>
      <point x="292" y="77"/>
      <point x="319" y="95" type="curve"/>
      <point x="303" y="170" type="line"/>
      <point x="287" y="158"/>
      <point x="261" y="129"/>
      <point x="209" y="129" type="curve" smooth="yes"/>
      <point x="163" y="129"/>
      <point x="124" y="149"/>
      <point x="124" y="197" type="curve" smooth="yes"/>
    </contour>
    <contour>
      <point x="327" y="447" type="move" name="top"/>
    </contour>
    <contour>
      <point x="327" y="5" type="move" name="bottom"/>
    </contour>
  </outline>
</glyph>
<glyph name="khadeva" format="1">
  <advance width="628"/>
  <unicode hex="0916"/>
  <outline>
    <contour>
      <point x="74" y="423"/>
      <point x="160" y="403"/>
      <point x="160" y="306" type="curve" smooth="yes"/>
      <point x="160" y="217"/>
      <point x="51" y="216"/>
      <point x="51" y="216" type="curve" smooth="yes"/>
      <point x="51" y="216"/>
      <point x="81" y="148"/>
      <point x="81" y="148" type="curve"/>
      <point x="139" y="148"/>
      <point x="238" y="195"/>
      <point x="238" y="304" type="curve" smooth="yes"/>
      <point x="238" y="410"/>
      <point x="150" y="448"/>
      <point x="150" y="448" type="curve"/>
      <point x="74" y="423" type="line"/>
    </contour>
    <contour>
      <point x="205" y="-25" type="line"/>
      <point x="205" y="-25"/>
      <point x="267" y="26"/>
      <point x="267" y="26" type="curve"/>
      <point x="67" y="254" type="line"/>
      <point x="9" y="205" type="line"/>
    </contour>
    <contour>
      <point x="-24" y="466" type="line"/>
      <point x="-24" y="396" type="line"/>
      <point x="294" y="396" type="line"/>
      <point x="294" y="466" type="line"/>
    </contour>
    <contour>
      <point x="200" y="466" type="line"/>
      <point x="200" y="396" type="line"/>
      <point x="652" y="396" type="line"/>
      <point x="652" y="466" type="line"/>
    </contour>
    <contour>
      <point x="338" y="245"/>
      <point x="367" y="265"/>
      <point x="413" y="265" type="curve" smooth="yes"/>
      <point x="475" y="265"/>
      <point x="501" y="220"/>
      <point x="517" y="203" type="curve"/>
      <point x="533" y="284" type="line"/>
      <point x="515" y="307"/>
      <point x="469" y="345"/>
      <point x="405" y="345" type="curve" smooth="yes"/>
      <point x="322" y="345"/>
      <point x="254" y="295"/>
      <point x="254" y="197" type="curve" smooth="yes"/>
      <point x="254" y="103"/>
      <point x="326" y="53"/>
      <point x="409" y="53" type="curve" smooth="yes"/>
      <point x="481" y="53"/>
      <point x="506" y="82"/>
      <point x="533" y="100" type="curve"/>
      <point x="517" y="180" type="line"/>
      <point x="501" y="163"/>
      <point x="475" y="129"/>
      <point x="423" y="129" type="curve" smooth="yes"/>
      <point x="377" y="129"/>
      <point x="338" y="149"/>
      <point x="338" y="197" type="curve" smooth="yes"/>
    </contour>
    <contour>
      <point x="475" y="0" type="line"/>
      <point x="560" y="0" type="line"/>
      <point x="560" y="466" type="line"/>
      <point x="475" y="466" type="line"/>
    </contour>
    <contour>
      <point x="518" y="447" type="move" name="top"/>
    </contour>
    <contour>
      <point x="518" y="5" type="move" name="bottom"/>
    </contour>
  </outline>
</glyph>
<glyph name="ga-deva" format="1">
  <advance width="458"/>
  <unicode hex="0917"/>
  <outline>
    <contour>
      <point x="-24" y="466" type="line"/>
      <point x="-24" y="396" type="line"/>
      <point x="482" y="396" type="line"/>
      <point x="482" y="466" type="line"/>
    </contour>
    <contour>
      <point x="308" y="0" type="line"/>
      <point x="393" y="0" type="line"/>
      <point x="393" y="466" type="line"/>
      <point x="308" y="466" type="line"/>
    </contour>
    <contour>
      <point x="28" y="240" type="line"/>
      <point x="28" y="198" type="line"/>
      <point x="118" y="75" type="line"/>
      <point x="118" y="75"/>
      <point x="175" y="75"/>
      <point x="175" y="75" type="curve"/>
      <point x="175" y="240" type="line"/>
    </contour>
    <contour>
      <point x="90" y="180" type="line"/>
      <point x="175" y="180" type="line"/>
      <point x="175" y="466" type="line"/>
      <point x="90" y="466" type="line"/>
    </contour>
    <contour>
      <point x="350" y="447" type="move" name="top"/>
    </contour>
    <contour>
      <point x="350" y="5" type="move" name="bottom"/>
    </contour>
  </outline>
</glyph>
<glyph name="gadeva" format="1">
  <advance width="464"/>
  <unicode hex="0917"/>
  <outline>
    <contour>
      <point x="-24" y="466" type="line"/>
      <point x="-24" y="396" type="line"/>
      <point x="488" y="396" type="line"/>
      <point x="488" y="466" type="line"/>
    </contour>
    <contour>
      <point x="311" y="0" type="line"/>
      <point x="396" y="0" type="line"/>
      <point x="396" y="466" type="line"/>
      <point x="311" y="466" type="line"/>
    </contour>
    <contour>
      <point x="31" y="240" type="line"/>
      <point x="31" y="198" type="line"/>
      <point x="121" y="75" type="line"/>
      <point x="121" y="75"/>
      <point x="178" y="75"/>
      <point x="178" y="75" type="curve"/>
      <point x="178" y="240" type="line"/>
    </contour>
    <contour>
      <point x="93" y="180" type="line"/>
      <point x="178" y="180" type="line"/>
      <point x="178" y="466" type="line"/>
      <point x="93" y="466" type="line"/>
    </contour>
    <contour>
      <point x="355" y="447" type="move" name="top"/>
    </contour>
    <contour>
      <point x="355" y="5" type="move" name="bottom"/>
    </contour>
  </outline>
</glyph>
<glyph name="gha-deva" format="1">
  <advance width="487"/>
  <unicode hex="0918"/>
  <outline>
    <contour>
      <point x="220" y="277" type="line"/>
      <point x="220" y="277"/>
      <point x="121" y="284"/>
      <point x="121" y="354" type="curve" smooth="yes"/>
      <point x="121" y="426"/>
      <point x="200" y="456"/>
      <point x="200" y="456" type="curve" smooth="yes"/>
      <point x="97" y="456" type="line" smooth="yes"/>
      <point x="97" y="456"/>
      <point x="37" y="422"/>
      <point x="37" y="354" type="curve" smooth="yes"/>
      <point x="37" y="279"/>
      <point x="100" y="249"/>
      <point x="116" y="237" type="curve"/>
    </contour>
    <contour>
      <point x="114" y="294"/>
      <point x="61" y="255"/>
      <point x="61" y="191" type="curve" smooth="yes"/>
      <point x="61" y="109"/>
      <point x="128" y="61"/>
      <point x="224" y="61" type="curve" smooth="yes"/>
      <point x="309" y="61"/>
      <point x="364" y="107"/>
      <point x="364" y="108" type="curve"/>
      <point x="364" y="201" type="line"/>
      <point x="364" y="201"/>
      <point x="311" y="139"/>
      <point x="221" y="139" type="curve" smooth="yes"/>
      <point x="183" y="139"/>
      <point x="146" y="154"/>
      <point x="146" y="184" type="curve" smooth="yes"/>
      <point x="146" y="210"/>
      <point x="181" y="229"/>
      <point x="248" y="237" type="curve"/>
      <point x="228" y="310" type="line"/>
    </contour>
    <contour>
      <point x="-24" y="466" type="line"/>
      <point x="-24" y="396" type="line"/>
      <point x="511" y="396" type="line"/>
      <point x="511" y="466" type="line"/>
    </contour>
    <contour>
      <point x="337" y="0" type="line"/>
      <point x="422" y="0" type="line"/>
      <point x="422" y="466" type="line"/>
      <point x="337" y="466" type="line"/>
    </contour>
    <contour>
      <point x="379" y="447" type="move" name="top"/>
    </contour>
    <contour>
      <point x="379" y="5" type="move" name="bottom"/>
    </contour>
  </outline>
</glyph>
<glyph name="ghadeva" format="1">
  <advance width="493"/>
  <unicode hex="0918"/>
  <outline>
    <contour>
      <point x="223" y="277" type="line"/>
      <point x="223" y="277"/>
      <point x="124" y="284"/>
      <point x="124" y="354" type="curve" smooth="yes"/>
      <point x="124" y="426"/>
      <point x="203" y="456"/>
      <point x="203" y="456" type="curve" smooth="yes"/>
      <point x="100" y="456" type="line" smooth="yes"/>
      <point x="100" y="456"/>
      <point x="40" y="422"/>
      <point x="40" y="354" type="curve" smooth="yes"/>
      <point x="40" y="279"/>
      <point x="103" y="249"/>
      <point x="119" y="237" type="curve"/>
    </contour>
    <contour>
      <point x="117" y="294"/>
      <point x="64" y="255"/>
      <point x="64" y="191" type="curve" smooth="yes"/>
      <point x="64" y="109"/>
      <point x="131" y="61"/>
      <point x="227" y="61" type="curve" smooth="yes"/>
      <point x="312" y="61"/>
      <point x="367" y="107"/>
      <point x="367" y="108" type="curve"/>
      <point x="367" y="201" type="line"/>
      <point x="367" y="201"/>
      <point x="314" y="139"/>
      <point x="224" y="139" type="curve" smooth="yes"/>
      <point x="186" y="139"/>
      <point x="149" y="154"/>
      <point x="149" y="184" type="curve" smooth="yes"/>
      <point x="149" y="210"/>
      <point x="184" y="229"/>
      <point x="251" y="237" type="curve"/>
      <point x="231" y="310" type="line"/>
    </contour>
    <contour>
      <point x="-24" y="466" type="line"/>
      <point x="-24" y="396" type="line"/>
      <point x="517" y="396" type="line"/>
      <point x="517" y="466" type="line"/>
    </contour>
    <contour>
      <point x="340" y="0" type="line"/>
      <point x="425" y="0" type="line"/>
      <point x="425" y="466" type="line"/>
      <point x="340" y="466" type="line"/>
    </contour>
    <contour>
      <point x="391" y="447" type="move" name="top"/>
    </contour>
    <contour>
      <point x="391" y="5" type="move" name="bottom"/>
    </contour>
  </outline>
</glyph>
<glyph name="nga-deva" format="1">
  <advance width="503"/>
  <unicode hex="0919"/>
  <outline>
    <contour>
      <point x="300" y="154"/>
      <point x="312" y="133"/>
      <point x="312" y="116" type="curve" smooth="yes"/>
      <point x="312" y="93"/>
      <point x="288" y="75"/>
      <point x="244" y="75" type="curve" smooth="yes"/>
      <point x="180" y="75"/>
      <point x="138" y="94"/>
      <point x="90" y="141" type="curve"/>
      <point x="38" y="85" type="line"/>
      <point x="88" y="36"/>
      <point x="149" y="-3"/>
      <point x="237" y="-3" type="curve" smooth="yes"/>
      <point x="333" y="-3"/>
      <point x="393" y="46"/>
      <point x="393" y="120" type="curve" smooth="yes"/>
      <point x="393" y="189"/>
      <point x="340" y="230"/>
      <point x="247" y="225" type="curve" smooth="yes"/>
      <point x="196" y="222"/>
      <point x="160" y="226"/>
      <point x="160" y="254" type="curve" smooth="yes"/>
      <point x="160" y="272"/>
      <point x="176" y="279"/>
      <point x="226" y="279" type="curve" smooth="yes"/>
      <point x="288" y="279"/>
      <point x="315" y="272"/>
      <point x="350" y="268" type="curve"/>
      <point x="360" y="275" type="line"/>
      <point x="360" y="456" type="line"/>
      <point x="284" y="456" type="line"/>
      <point x="284" y="348" type="line"/>
      <point x="263" y="350"/>
      <point x="251" y="351"/>
      <point x="218" y="351" type="curve" smooth="yes"/>
      <point x="141" y="351"/>
      <point x="80" y="322"/>
      <point x="80" y="250" type="curve" smooth="yes"/>
      <point x="80" y="172"/>
      <point x="152" y="144"/>
      <point x="240" y="150" type="curve" smooth="yes"/>
    </contour>
    <contour>
      <point x="-24" y="466" type="line"/>
      <point x="-24" y="396" type="line"/>
      <point x="527" y="396" type="line"/>
      <point x="527" y="466" type="line"/>
    </contour>
    <component base="nukta-deva" xOffset="468" yOffset="307"/>
    <contour>
      <point x="323" y="447" type="move" name="top"/>
    </contour>
    <contour>
      <point x="237" y="-35" type="move" name="bottom"/>
    </contour>
  </outline>
</glyph>
<glyph name="ca-deva" format="1">
  <advance width="492"/>
  <unicode hex="091A"/>
  <outline>
    <contour>
      <point x="128" y="271"/>
      <point x="96" y="255"/>
      <point x="96" y="197" type="curve" smooth="yes"/>
      <point x="96" y="112"/>
      <point x="163" y="61"/>
      <point x="248" y="61" type="curve" smooth="yes"/>
      <point x="344" y="61"/>
      <point x="379" y="104"/>
      <point x="379" y="105" type="curve"/>
      <point x="379" y="201" type="line"/>
      <point x="379" y="201"/>
      <point x="346" y="139"/>
      <point x="256" y="139" type="curve" smooth="yes"/>
      <point x="218" y="139"/>
      <point x="181" y="154"/>
      <point x="181" y="197" type="curve" smooth="yes"/>
      <point x="181" y="230"/>
      <point x="195" y="261"/>
      <point x="262" y="269" type="curve"/>
      <point x="156" y="279" type="line"/>
    </contour>
    <contour>
      <point x="-24" y="466" type="line"/>
      <point x="-24" y="396" type="line"/>
      <point x="516" y="396" type="line"/>
      <point x="516" y="466" type="line"/>
    </contour>
    <contour>
      <point x="342" y="0" type="line"/>
      <point x="427" y="0" type="line"/>
      <point x="427" y="466" type="line"/>
      <point x="342" y="466" type="line"/>
    </contour>
    <contour>
      <point x="22" y="306" type="line"/>
      <point x="22" y="234" type="line"/>
      <point x="279" y="234" type="line"/>
      <point x="279" y="306" type="line"/>
    </contour>
    <contour>
      <point x="384" y="447" type="move" name="top"/>
    </contour>
    <contour>
      <point x="384" y="5" type="move" name="bottom"/>
    </contour>
  </outline>
</glyph>
<glyph name="cadeva" format="1">
  <advance width="498"/>
  <unicode hex="091A"/>
  <outline>
    <contour>
      <point x="131" y="271"/>
      <point x="99" y="255"/>
      <point x="99" y="197" type="curve" smooth="yes"/>
      <point x="99" y="112"/>
      <point x="166" y="61"/>
      <point x="251" y="61" type="curve" smooth="yes"/>
      <point x="347" y="61"/>
      <point x="382" y="104"/>
      <point x="382" y="105" type="curve"/>
      <point x="382" y="201" type="line"/>
      <point x="382" y="201"/>
      <point x="349" y="139"/>
      <point x="259" y="139" type="curve" smooth="yes"/>
      <point x="221" y="139"/>
      <point x="184" y="154"/>
      <point x="184" y="197" type="curve" smooth="yes"/>
      <point x="184" y="230"/>
      <point x="198" y="261"/>
      <point x="265" y="269" type="curve"/>
      <point x="159" y="279" type="line"/>
    </contour>
    <contour>
      <point x="-24" y="466" type="line"/>
      <point x="-24" y="396" type="line"/>
      <point x="522" y="396" type="line"/>
      <point x="522" y="466" type="line"/>
    </contour>
    <contour>
      <point x="345" y="0" type="line"/>
      <point x="430" y="0" type="line"/>
      <point x="430" y="466" type="line"/>
      <point x="345" y="466" type="line"/>
    </contour>
    <contour>
      <point x="25" y="306" type="line"/>
      <point x="25" y="234" type="line"/>
      <point x="282" y="234" type="line"/>
      <point x="282" y="306" type="line"/>
    </contour>
    <contour>
      <point x="386" y="447" type="move" name="top"/>
    </contour>
    <contour>
      <point x="386" y="5" type="move" name="bottom"/>
    </contour>
  </outline>
</glyph>
<glyph name="chadeva" format="1">
  <advance width="574"/>
  <unicode hex="091B"/>
  <outline>
    <contour>
      <point x="598" y="396" type="line"/>
      <point x="598" y="466" type="line"/>
      <point x="-24" y="466" type="line"/>
      <point x="-24" y="396" type="line"/>
    </contour>
    <contour>
      <point x="463" y="121"/>
      <point x="395" y="64"/>
      <point x="274" y="64" type="curve" smooth="yes"/>
      <point x="199" y="64"/>
      <point x="148" y="99"/>
      <point x="148" y="147" type="curve" smooth="yes"/>
      <point x="148" y="191"/>
      <point x="183" y="223"/>
      <point x="261" y="219" type="curve"/>
      <point x="266" y="219" type="line"/>
      <point x="266" y="282" type="line"/>
      <point x="257" y="282" type="line" smooth="yes"/>
      <point x="163" y="282"/>
      <point x="156" y="323"/>
      <point x="156" y="344" type="curve" smooth="yes"/>
      <point x="156" y="378"/>
      <point x="173" y="400"/>
      <point x="219" y="408" type="curve"/>
      <point x="257" y="456" type="line"/>
      <point x="222" y="456"/>
      <point x="148" y="444"/>
      <point x="117" y="424" type="curve" smooth="yes"/>
      <point x="84" y="403"/>
      <point x="72" y="373"/>
      <point x="72" y="344" type="curve" smooth="yes"/>
      <point x="72" y="295"/>
      <point x="112" y="260"/>
      <point x="137" y="252" type="curve"/>
      <point x="113" y="242"/>
      <point x="64" y="204"/>
      <point x="64" y="138" type="curve" smooth="yes"/>
      <point x="64" y="44"/>
      <point x="161" y="-14"/>
      <point x="274" y="-14" type="curve" smooth="yes"/>
      <point x="408" y="-14"/>
      <point x="541" y="57"/>
      <point x="541" y="199" type="curve" smooth="yes"/>
      <point x="541" y="298"/>
      <point x="483" y="349"/>
      <point x="420" y="349" type="curve" smooth="yes"/>
      <point x="363" y="349"/>
      <point x="306" y="298"/>
      <point x="306" y="211" type="curve" smooth="yes"/>
      <point x="306" y="137"/>
      <point x="345" y="78"/>
      <point x="354" y="63" type="curve"/>
      <point x="354" y="63"/>
      <point x="430" y="94"/>
      <point x="430" y="94" type="curve" smooth="yes"/>
      <point x="430" y="94"/>
      <point x="384" y="140"/>
      <point x="384" y="208" type="curve" smooth="yes"/>
      <point x="384" y="246"/>
      <point x="396" y="274"/>
      <point x="422" y="274" type="curve" smooth="yes"/>
      <point x="444" y="274"/>
      <point x="463" y="253"/>
      <point x="463" y="207" type="curve" smooth="yes"/>
    </contour>
    <contour>
      <point x="386" y="333" type="line"/>
      <point x="466" y="333" type="line"/>
      <point x="466" y="466" type="line"/>
      <point x="386" y="466" type="line"/>
    </contour>
    <contour>
      <point x="426" y="447" type="move" name="top"/>
    </contour>
    <contour>
      <point x="274" y="-19" type="move" name="bottom"/>
    </contour>
  </outline>
</glyph>
<glyph name="ja-deva" format="1">
  <advance width="567"/>
  <unicode hex="091C"/>
  <outline>
    <contour>
      <point x="-24" y="466" type="line"/>
      <point x="-24" y="396" type="line"/>
      <point x="591" y="396" type="line"/>
      <point x="591" y="466" type="line"/>
    </contour>
    <contour>
      <point x="417" y="0" type="line"/>
      <point x="502" y="0" type="line"/>
      <point x="502" y="466" type="line"/>
      <point x="417" y="466" type="line"/>
    </contour>
    <contour>
      <point x="238" y="292" type="line"/>
      <point x="234" y="223" type="line"/>
      <point x="452" y="223" type="line"/>
      <point x="452" y="292" type="line"/>
    </contour>
    <contour>
      <point x="349" y="186"/>
      <point x="340" y="231"/>
      <point x="292" y="265" type="curve" smooth="yes"/>
      <point x="281" y="273"/>
      <point x="261" y="284"/>
      <point x="248" y="292" type="curve"/>
      <point x="205" y="292" type="line"/>
      <point x="205" y="226" type="line"/>
      <point x="256" y="226"/>
      <point x="269" y="197"/>
      <point x="269" y="164" type="curve" smooth="yes"/>
      <point x="269" y="130"/>
      <point x="245" y="107"/>
      <point x="209" y="107" type="curve" smooth="yes"/>
      <point x="157" y="107"/>
      <point x="125" y="153"/>
      <point x="90" y="254" type="curve"/>
      <point x="19" y="225" type="line"/>
      <point x="56" y="104"/>
      <point x="116" y="27"/>
      <point x="211" y="27" type="curve" smooth="yes"/>
      <point x="288" y="27"/>
      <point x="349" y="74"/>
      <point x="349" y="156" type="curve" smooth="yes"/>
    </contour>
    <contour>
      <point x="459" y="447" type="move" name="top"/>
    </contour>
    <contour>
      <point x="459" y="5" type="move" name="bottom"/>
    </contour>
  </outline>
</glyph>
<glyph name="jadeva" format="1">
  <advance width="573"/>
  <unicode hex="091C"/>
  <outline>
    <contour>
      <point x="-24" y="466" type="line"/>
      <point x="-24" y="396" type="line"/>
      <point x="597" y="396" type="line"/>
      <point x="597" y="466" type="line"/>
    </contour>
    <contour>
      <point x="420" y="0" type="line"/>
      <point x="505" y="0" type="line"/>
      <point x="505" y="466" type="line"/>
      <point x="420" y="466" type="line"/>
    </contour>
    <contour>
      <point x="241" y="292" type="line"/>
      <point x="237" y="223" type="line"/>
      <point x="455" y="223" type="line"/>
      <point x="455" y="292" type="line"/>
    </contour>
    <contour>
      <point x="351" y="186"/>
      <point x="343" y="231"/>
      <point x="295" y="265" type="curve" smooth="yes"/>
      <point x="284" y="273"/>
      <point x="264" y="284"/>
      <point x="251" y="292" type="curve"/>
      <point x="208" y="292" type="line"/>
      <point x="208" y="226" type="line"/>
      <point x="259" y="226"/>
      <point x="272" y="197"/>
      <point x="272" y="164" type="curve" smooth="yes"/>
      <point x="272" y="130"/>
      <point x="250" y="107"/>
      <point x="214" y="107" type="curve" smooth="yes"/>
      <point x="162" y="107"/>
      <point x="128" y="153"/>
      <point x="93" y="254" type="curve"/>
      <point x="24" y="226" type="line"/>
      <point x="61" y="105"/>
      <point x="119" y="29"/>
      <point x="214" y="29" type="curve" smooth="yes"/>
      <point x="291" y="29"/>
      <point x="351" y="76"/>
      <point x="351" y="156" type="curve" smooth="yes"/>
    </contour>
    <contour>
      <point x="452" y="447" type="move" name="top"/>
    </contour>
    <contour>
      <point x="452" y="5" type="move" name="bottom"/>
    </contour>
  </outline>
</glyph>
<glyph name="jha-deva" format="1">
  <advance width="585"/>
  <unicode hex="091D"/>
  <outline>
    <contour>
      <point x="262" y="152"/>
      <point x="274" y="133"/>
      <point x="274" y="116" type="curve" smooth="yes"/>
      <point x="274" y="93"/>
      <point x="252" y="70"/>
      <point x="188" y="70" type="curve" smooth="yes"/>
      <point x="168" y="70"/>
      <point x="160" y="72"/>
      <point x="148" y="76" type="curve"/>
      <point x="99" y="138" type="line"/>
      <point x="73" y="138"/>
      <point x="37" y="128"/>
      <point x="37" y="86" type="curve"/>
      <point x="37" y="39"/>
      <point x="111" y="-3"/>
      <point x="199" y="-3" type="curve" smooth="yes"/>
      <point x="295" y="-3"/>
      <point x="355" y="46"/>
      <point x="355" y="120" type="curve" smooth="yes"/>
      <point x="355" y="189"/>
      <point x="301" y="227"/>
      <point x="214" y="223" type="curve" smooth="yes"/>
      <point x="163" y="221"/>
      <point x="127" y="226"/>
      <point x="127" y="254" type="curve" smooth="yes"/>
      <point x="127" y="272"/>
      <point x="143" y="279"/>
      <point x="193" y="279" type="curve" smooth="yes"/>
      <point x="258" y="279"/>
      <point x="280" y="272"/>
      <point x="315" y="268" type="curve"/>
      <point x="325" y="275" type="line"/>
      <point x="325" y="456" type="line"/>
      <point x="249" y="456" type="line"/>
      <point x="249" y="348" type="line"/>
      <point x="228" y="350"/>
      <point x="218" y="351"/>
      <point x="185" y="351" type="curve" smooth="yes"/>
      <point x="108" y="351"/>
      <point x="47" y="322"/>
      <point x="47" y="250" type="curve" smooth="yes"/>
      <point x="47" y="172"/>
      <point x="114" y="142"/>
      <point x="202" y="148" type="curve" smooth="yes"/>
    </contour>
    <contour>
      <point x="-24" y="466" type="line"/>
      <point x="-24" y="396" type="line"/>
      <point x="411" y="396" type="line"/>
      <point x="411" y="466" type="line"/>
    </contour>
    <contour>
      <point x="91" y="47" type="line"/>
      <point x="198" y="-119" type="line"/>
      <point x="268" y="-74" type="line"/>
      <point x="150" y="59" type="line"/>
    </contour>
    <contour>
      <point x="366" y="466" type="line"/>
      <point x="366" y="396" type="line"/>
      <point x="609" y="396" type="line"/>
      <point x="609" y="466" type="line"/>
    </contour>
    <contour>
      <point x="435" y="0" type="line"/>
      <point x="520" y="0" type="line"/>
      <point x="520" y="466" type="line"/>
      <point x="435" y="466" type="line"/>
    </contour>
    <contour>
      <point x="484" y="236"/>
      <point x="451" y="193"/>
      <point x="378" y="193" type="curve" smooth="yes"/>
      <point x="353" y="193"/>
      <point x="298" y="212"/>
      <point x="263" y="220" type="curve"/>
      <point x="251" y="155" type="line"/>
      <point x="287" y="146"/>
      <point x="339" y="123"/>
      <point x="389" y="123" type="curve" smooth="yes"/>
      <point x="443" y="123"/>
      <point x="484" y="159"/>
      <point x="484" y="159" type="curve"/>
      <point x="484" y="236" type="line"/>
    </contour>
    <contour>
      <point x="469" y="447" type="move" name="top"/>
    </contour>
    <contour>
      <point x="469" y="5" type="move" name="bottom"/>
    </contour>
  </outline>
</glyph>
<glyph name="jhadeva" format="1">
  <advance width="591"/>
  <unicode hex="091D"/>
  <outline>
    <contour>
      <point x="265" y="152"/>
      <point x="277" y="133"/>
      <point x="277" y="116" type="curve" smooth="yes"/>
      <point x="277" y="93"/>
      <point x="255" y="70"/>
      <point x="191" y="70" type="curve" smooth="yes"/>
      <point x="171" y="70"/>
      <point x="163" y="72"/>
      <point x="151" y="76" type="curve"/>
      <point x="102" y="138" type="line"/>
      <point x="76" y="138"/>
      <point x="40" y="128"/>
      <point x="40" y="86" type="curve"/>
      <point x="40" y="39"/>
      <point x="114" y="-3"/>
      <point x="202" y="-3" type="curve" smooth="yes"/>
      <point x="298" y="-3"/>
      <point x="358" y="46"/>
      <point x="358" y="120" type="curve" smooth="yes"/>
      <point x="358" y="189"/>
      <point x="304" y="227"/>
      <point x="217" y="223" type="curve" smooth="yes"/>
      <point x="166" y="221"/>
      <point x="130" y="226"/>
      <point x="130" y="254" type="curve" smooth="yes"/>
      <point x="130" y="272"/>
      <point x="146" y="279"/>
      <point x="196" y="279" type="curve" smooth="yes"/>
      <point x="261" y="279"/>
      <point x="283" y="272"/>
      <point x="318" y="268" type="curve"/>
      <point x="328" y="275" type="line"/>
      <point x="328" y="456" type="line"/>
      <point x="252" y="456" type="line"/>
      <point x="252" y="348" type="line"/>
      <point x="231" y="350"/>
      <point x="221" y="351"/>
      <point x="188" y="351" type="curve" smooth="yes"/>
      <point x="111" y="351"/>
      <point x="50" y="322"/>
      <point x="50" y="250" type="curve" smooth="yes"/>
      <point x="50" y="172"/>
      <point x="117" y="142"/>
      <point x="205" y="148" type="curve" smooth="yes"/>
    </contour>
    <contour>
      <point x="-24" y="466" type="line"/>
      <point x="-24" y="396" type="line"/>
      <point x="414" y="396" type="line"/>
      <point x="414" y="466" type="line"/>
    </contour>
    <contour>
      <point x="94" y="47" type="line"/>
      <point x="201" y="-119" type="line"/>
      <point x="271" y="-74" type="line"/>
      <point x="153" y="59" type="line"/>
    </contour>
    <contour>
      <point x="369" y="466" type="line"/>
      <point x="369" y="396" type="line"/>
      <point x="615" y="396" type="line"/>
      <point x="615" y="466" type="line"/>
    </contour>
    <contour>
      <point x="438" y="0" type="line"/>
      <point x="523" y="0" type="line"/>
      <point x="523" y="466" type="line"/>
      <point x="438" y="466" type="line"/>
    </contour>
    <contour>
      <point x="487" y="236"/>
      <point x="454" y="193"/>
      <point x="381" y="193" type="curve" smooth="yes"/>
      <point x="356" y="193"/>
      <point x="301" y="212"/>
      <point x="266" y="220" type="curve"/>
      <point x="254" y="155" type="line"/>
      <point x="290" y="146"/>
      <point x="342" y="123"/>
      <point x="392" y="123" type="curve" smooth="yes"/>
      <point x="446" y="123"/>
      <point x="487" y="159"/>
      <point x="487" y="159" type="curve"/>
      <point x="487" y="236" type="line"/>
    </contour>
    <contour>
      <point x="472" y="447" type="move" name="top"/>
    </contour>
    <contour>
      <point x="472" y="5" type="move" name="bottom"/>
    </contour>
  </outline>
</glyph>
<glyph name="nya-deva" format="1">
  <advance width="577"/>
  <unicode hex="091E"/>
  <outline>
    <contour>
      <point x="263" y="241"/>
      <point x="284" y="222"/>
      <point x="284" y="190" type="curve" smooth="yes"/>
      <point x="284" y="154"/>
      <point x="265" y="131"/>
      <point x="227" y="131" type="curve" smooth="yes"/>
      <point x="165" y="131"/>
      <point x="135" y="178"/>
      <point x="95" y="279" type="curve"/>
      <point x="22" y="249" type="line"/>
      <point x="74" y="107"/>
      <point x="134" y="48"/>
      <point x="226" y="48" type="curve" smooth="yes"/>
      <point x="301" y="48"/>
      <point x="356" y="98"/>
      <point x="366" y="170" type="curve" smooth="yes"/>
      <point x="367" y="174"/>
      <point x="369" y="177"/>
      <point x="369" y="181" type="curve" smooth="yes"/>
      <point x="369" y="271"/>
      <point x="312" y="321"/>
      <point x="236" y="321" type="curve" smooth="yes"/>
      <point x="199" y="321"/>
      <point x="172" y="310"/>
      <point x="149" y="295" type="curve"/>
      <point x="149" y="295"/>
      <point x="184" y="224"/>
      <point x="184" y="224" type="curve" smooth="yes"/>
      <point x="184" y="224"/>
      <point x="207" y="241"/>
      <point x="231" y="241" type="curve" smooth="yes"/>
    </contour>
    <contour>
      <point x="462" y="228"/>
      <point x="427" y="210"/>
      <point x="397" y="210" type="curve" smooth="yes"/>
      <point x="372" y="210"/>
      <point x="355" y="217"/>
      <point x="329" y="230" type="curve"/>
      <point x="325" y="152" type="line"/>
      <point x="351" y="144"/>
      <point x="370" y="138"/>
      <point x="397" y="138" type="curve" smooth="yes"/>
      <point x="420" y="138"/>
      <point x="462" y="151"/>
      <point x="478" y="164" type="curve"/>
      <point x="478" y="241" type="line"/>
    </contour>
    <contour>
      <point x="-24" y="466" type="line"/>
      <point x="-24" y="396" type="line"/>
      <point x="601" y="396" type="line"/>
      <point x="601" y="466" type="line"/>
    </contour>
    <contour>
      <point x="427" y="0" type="line"/>
      <point x="512" y="0" type="line"/>
      <point x="512" y="466" type="line"/>
      <point x="427" y="466" type="line"/>
    </contour>
    <contour>
      <point x="469" y="447" type="move" name="top"/>
    </contour>
    <contour>
      <point x="469" y="5" type="move" name="bottom"/>
    </contour>
  </outline>
</glyph>
<glyph name="nyadeva" format="1">
  <advance width="583"/>
  <unicode hex="091E"/>
  <outline>
    <contour>
      <point x="266" y="241"/>
      <point x="287" y="222"/>
      <point x="287" y="190" type="curve" smooth="yes"/>
      <point x="287" y="154"/>
      <point x="268" y="131"/>
      <point x="230" y="131" type="curve" smooth="yes"/>
      <point x="168" y="131"/>
      <point x="138" y="178"/>
      <point x="98" y="279" type="curve"/>
      <point x="25" y="249" type="line"/>
      <point x="77" y="107"/>
      <point x="137" y="48"/>
      <point x="229" y="48" type="curve" smooth="yes"/>
      <point x="304" y="48"/>
      <point x="359" y="98"/>
      <point x="369" y="170" type="curve" smooth="yes"/>
      <point x="370" y="174"/>
      <point x="372" y="177"/>
      <point x="372" y="181" type="curve" smooth="yes"/>
      <point x="372" y="271"/>
      <point x="315" y="321"/>
      <point x="239" y="321" type="curve" smooth="yes"/>
      <point x="202" y="321"/>
      <point x="175" y="310"/>
      <point x="152" y="295" type="curve"/>
      <point x="152" y="295"/>
      <point x="187" y="224"/>
      <point x="187" y="224" type="curve" smooth="yes"/>
      <point x="187" y="224"/>
      <point x="210" y="241"/>
      <point x="234" y="241" type="curve" smooth="yes"/>
    </contour>
    <contour>
      <point x="465" y="228"/>
      <point x="430" y="210"/>
      <point x="400" y="210" type="curve" smooth="yes"/>
      <point x="375" y="210"/>
      <point x="358" y="217"/>
      <point x="332" y="230" type="curve"/>
      <point x="328" y="152" type="line"/>
      <point x="354" y="144"/>
      <point x="373" y="138"/>
      <point x="400" y="138" type="curve" smooth="yes"/>
      <point x="423" y="138"/>
      <point x="465" y="151"/>
      <point x="481" y="164" type="curve"/>
      <point x="481" y="241" type="line"/>
    </contour>
    <contour>
      <point x="-24" y="466" type="line"/>
      <point x="-24" y="396" type="line"/>
      <point x="607" y="396" type="line"/>
      <point x="607" y="466" type="line"/>
    </contour>
    <contour>
      <point x="430" y="0" type="line"/>
      <point x="515" y="0" type="line"/>
      <point x="515" y="466" type="line"/>
      <point x="430" y="466" type="line"/>
    </contour>
    <contour>
      <point x="500" y="447" type="move" name="top"/>
    </contour>
    <contour>
      <point x="500" y="5" type="move" name="bottom"/>
    </contour>
  </outline>
</glyph>
<glyph name="tta-deva" format="1">
  <advance width="397"/>
  <unicode hex="091F"/>
  <outline>
    <contour>
      <point x="309" y="99"/>
      <point x="269" y="78"/>
      <point x="219" y="78" type="curve" smooth="yes"/>
      <point x="159" y="78"/>
      <point x="121" y="111"/>
      <point x="121" y="163" type="curve" smooth="yes"/>
      <point x="121" y="213"/>
      <point x="155" y="244"/>
      <point x="223" y="244" type="curve" smooth="yes"/>
      <point x="260" y="244"/>
      <point x="285" y="239"/>
      <point x="321" y="235" type="curve"/>
      <point x="330" y="242" type="line"/>
      <point x="330" y="456" type="line"/>
      <point x="254" y="456" type="line"/>
      <point x="254" y="322" type="line"/>
      <point x="254" y="322"/>
      <point x="229" y="322"/>
      <point x="215" y="322" type="curve" smooth="yes"/>
      <point x="100" y="322"/>
      <point x="39" y="259"/>
      <point x="39" y="167" type="curve" smooth="yes"/>
      <point x="39" y="65"/>
      <point x="113" y="-2"/>
      <point x="218" y="-2" type="curve" smooth="yes"/>
      <point x="291" y="-2"/>
      <point x="346" y="27"/>
      <point x="370" y="44" type="curve"/>
      <point x="335" y="115" type="line"/>
    </contour>
    <contour>
      <point x="-24" y="466" type="line"/>
      <point x="-24" y="396" type="line"/>
      <point x="421" y="396" type="line"/>
      <point x="421" y="466" type="line"/>
    </contour>
    <contour>
      <point x="303" y="447" type="move" name="top"/>
    </contour>
    <contour>
      <point x="226" y="-25" type="move" name="bottom"/>
    </contour>
  </outline>
</glyph>
<glyph name="ttadeva" format="1">
  <advance width="410"/>
  <unicode hex="091F"/>
  <outline>
    <contour>
      <point x="319" y="99"/>
      <point x="279" y="78"/>
      <point x="229" y="78" type="curve" smooth="yes"/>
      <point x="169" y="78"/>
      <point x="131" y="111"/>
      <point x="131" y="163" type="curve" smooth="yes"/>
      <point x="131" y="213"/>
      <point x="165" y="244"/>
      <point x="233" y="244" type="curve" smooth="yes"/>
      <point x="270" y="244"/>
      <point x="295" y="239"/>
      <point x="331" y="235" type="curve"/>
      <point x="340" y="242" type="line"/>
      <point x="340" y="456" type="line"/>
      <point x="264" y="456" type="line"/>
      <point x="264" y="322" type="line"/>
      <point x="264" y="322"/>
      <point x="239" y="322"/>
      <point x="225" y="322" type="curve" smooth="yes"/>
      <point x="110" y="322"/>
      <point x="49" y="259"/>
      <point x="49" y="167" type="curve" smooth="yes"/>
      <point x="49" y="65"/>
      <point x="123" y="-2"/>
      <point x="228" y="-2" type="curve" smooth="yes"/>
      <point x="301" y="-2"/>
      <point x="356" y="27"/>
      <point x="380" y="44" type="curve"/>
      <point x="345" y="115" type="line"/>
    </contour>
    <contour>
      <point x="-24" y="466" type="line"/>
      <point x="-24" y="396" type="line"/>
      <point x="434" y="396" type="line"/>
      <point x="434" y="466" type="line"/>
    </contour>
    <contour>
      <point x="313" y="447" type="move" name="top"/>
    </contour>
    <contour>
      <point x="236" y="-25" type="move" name="bottom"/>
    </contour>
  </outline>
</glyph>
<glyph name="ttha-deva" format="1">
  <advance width="458"/>
  <unicode hex="0920"/>
  <outline>
    <contour>
      <point x="-24" y="466" type="line"/>
      <point x="-24" y="396" type="line"/>
      <point x="482" y="396" type="line"/>
      <point x="482" y="466" type="line"/>
    </contour>
    <contour>
      <point x="419" y="238"/>
      <point x="351" y="297"/>
      <point x="301" y="326" type="curve"/>
      <point x="240" y="262" type="line"/>
      <point x="276" y="256"/>
      <point x="336" y="218"/>
      <point x="336" y="154" type="curve" smooth="yes"/>
      <point x="336" y="105"/>
      <point x="296" y="75"/>
      <point x="221" y="75" type="curve" smooth="yes"/>
      <point x="156" y="75"/>
      <point x="121" y="117"/>
      <point x="121" y="169" type="curve" smooth="yes"/>
      <point x="121" y="217"/>
      <point x="161" y="248"/>
      <point x="226" y="248" type="curve" smooth="yes"/>
      <point x="322" y="248" type="line"/>
      <point x="331" y="246" type="line"/>
      <point x="331" y="466" type="line"/>
      <point x="254" y="466" type="line"/>
      <point x="254" y="320" type="line"/>
      <point x="218" y="320" type="line" smooth="yes"/>
      <point x="109" y="320"/>
      <point x="41" y="257"/>
      <point x="41" y="167" type="curve" smooth="yes"/>
      <point x="41" y="70"/>
      <point x="116" y="0"/>
      <point x="223" y="0" type="curve" smooth="yes"/>
      <point x="358" y="0"/>
      <point x="419" y="80"/>
      <point x="419" y="156" type="curve" smooth="yes"/>
    </contour>
    <contour>
      <point x="274" y="447" type="move" name="top"/>
    </contour>
    <contour>
      <point x="208" y="-25" type="move" name="bottom"/>
    </contour>
  </outline>
</glyph>
<glyph name="tthadeva" format="1">
  <advance width="464"/>
  <unicode hex="0920"/>
  <outline>
    <contour>
      <point x="-24" y="466" type="line"/>
      <point x="-24" y="396" type="line"/>
      <point x="488" y="396" type="line"/>
      <point x="488" y="466" type="line"/>
    </contour>
    <contour>
      <point x="422" y="238"/>
      <point x="354" y="297"/>
      <point x="304" y="326" type="curve"/>
      <point x="243" y="262" type="line"/>
      <point x="279" y="256"/>
      <point x="339" y="218"/>
      <point x="339" y="154" type="curve" smooth="yes"/>
      <point x="339" y="105"/>
      <point x="299" y="75"/>
      <point x="224" y="75" type="curve" smooth="yes"/>
      <point x="159" y="75"/>
      <point x="124" y="117"/>
      <point x="124" y="169" type="curve" smooth="yes"/>
      <point x="124" y="217"/>
      <point x="164" y="248"/>
      <point x="229" y="248" type="curve" smooth="yes"/>
      <point x="325" y="248" type="line"/>
      <point x="334" y="246" type="line"/>
      <point x="334" y="466" type="line"/>
      <point x="257" y="466" type="line"/>
      <point x="257" y="320" type="line"/>
      <point x="221" y="320" type="line" smooth="yes"/>
      <point x="112" y="320"/>
      <point x="44" y="257"/>
      <point x="44" y="167" type="curve" smooth="yes"/>
      <point x="44" y="70"/>
      <point x="119" y="0"/>
      <point x="226" y="0" type="curve" smooth="yes"/>
      <point x="361" y="0"/>
      <point x="422" y="80"/>
      <point x="422" y="156" type="curve" smooth="yes"/>
    </contour>
    <contour>
      <point x="277" y="447" type="move" name="top"/>
    </contour>
    <contour>
      <point x="211" y="-25" type="move" name="bottom"/>
    </contour>
  </outline>
</glyph>
<glyph name="dda-deva" format="1">
  <advance width="433"/>
  <unicode hex="0921"/>
  <outline>
    <contour>
      <point x="296" y="154"/>
      <point x="308" y="133"/>
      <point x="308" y="116" type="curve" smooth="yes"/>
      <point x="308" y="93"/>
      <point x="284" y="75"/>
      <point x="240" y="75" type="curve" smooth="yes"/>
      <point x="176" y="75"/>
      <point x="134" y="94"/>
      <point x="86" y="141" type="curve"/>
      <point x="34" y="85" type="line"/>
      <point x="84" y="36"/>
      <point x="145" y="-3"/>
      <point x="233" y="-3" type="curve" smooth="yes"/>
      <point x="329" y="-3"/>
      <point x="389" y="46"/>
      <point x="389" y="120" type="curve" smooth="yes"/>
      <point x="389" y="189"/>
      <point x="336" y="230"/>
      <point x="243" y="225" type="curve" smooth="yes"/>
      <point x="192" y="222"/>
      <point x="156" y="226"/>
      <point x="156" y="254" type="curve" smooth="yes"/>
      <point x="156" y="272"/>
      <point x="172" y="279"/>
      <point x="222" y="279" type="curve" smooth="yes"/>
      <point x="284" y="279"/>
      <point x="311" y="272"/>
      <point x="346" y="268" type="curve"/>
      <point x="356" y="275" type="line"/>
      <point x="356" y="456" type="line"/>
      <point x="280" y="456" type="line"/>
      <point x="280" y="348" type="line"/>
      <point x="259" y="350"/>
      <point x="247" y="351"/>
      <point x="214" y="351" type="curve" smooth="yes"/>
      <point x="137" y="351"/>
      <point x="76" y="322"/>
      <point x="76" y="250" type="curve" smooth="yes"/>
      <point x="76" y="172"/>
      <point x="148" y="144"/>
      <point x="236" y="150" type="curve" smooth="yes"/>
    </contour>
    <contour>
      <point x="-24" y="466" type="line"/>
      <point x="-24" y="396" type="line"/>
      <point x="457" y="396" type="line"/>
      <point x="457" y="466" type="line"/>
    </contour>
    <contour>
      <point x="318" y="447" type="move" name="top"/>
    </contour>
    <contour>
      <point x="241" y="-25" type="move" name="bottom"/>
    </contour>
  </outline>
</glyph>
<glyph name="ddadeva" format="1">
  <advance width="439"/>
  <unicode hex="0921"/>
  <outline>
    <contour>
      <point x="299" y="154"/>
      <point x="311" y="133"/>
      <point x="311" y="116" type="curve" smooth="yes"/>
      <point x="311" y="93"/>
      <point x="287" y="75"/>
      <point x="243" y="75" type="curve" smooth="yes"/>
      <point x="179" y="75"/>
      <point x="137" y="94"/>
      <point x="89" y="141" type="curve"/>
      <point x="37" y="85" type="line"/>
      <point x="87" y="36"/>
      <point x="148" y="-3"/>
      <point x="236" y="-3" type="curve" smooth="yes"/>
      <point x="332" y="-3"/>
      <point x="392" y="46"/>
      <point x="392" y="120" type="curve" smooth="yes"/>
      <point x="392" y="189"/>
      <point x="339" y="230"/>
      <point x="246" y="225" type="curve" smooth="yes"/>
      <point x="195" y="222"/>
      <point x="159" y="226"/>
      <point x="159" y="254" type="curve" smooth="yes"/>
      <point x="159" y="272"/>
      <point x="175" y="279"/>
      <point x="225" y="279" type="curve" smooth="yes"/>
      <point x="287" y="279"/>
      <point x="314" y="272"/>
      <point x="349" y="268" type="curve"/>
      <point x="359" y="275" type="line"/>
      <point x="359" y="456" type="line"/>
      <point x="283" y="456" type="line"/>
      <point x="283" y="348" type="line"/>
      <point x="262" y="350"/>
      <point x="250" y="351"/>
      <point x="217" y="351" type="curve" smooth="yes"/>
      <point x="140" y="351"/>
      <point x="79" y="322"/>
      <point x="79" y="250" type="curve" smooth="yes"/>
      <point x="79" y="172"/>
      <point x="151" y="144"/>
      <point x="239" y="150" type="curve" smooth="yes"/>
    </contour>
    <contour>
      <point x="-24" y="466" type="line"/>
      <point x="-24" y="396" type="line"/>
      <point x="463" y="396" type="line"/>
      <point x="463" y="466" type="line"/>
    </contour>
    <contour>
      <point x="321" y="447" type="move" name="top"/>
    </contour>
    <contour>
      <point x="244" y="-25" type="move" name="bottom"/>
    </contour>
  </outline>
</glyph>
<glyph name="ddha-deva" format="1">
  <advance width="418"/>
  <unicode hex="0922"/>
  <outline>
    <contour>
      <point x="-24" y="466" type="line"/>
      <point x="-24" y="396" type="line"/>
      <point x="442" y="396" type="line"/>
      <point x="442" y="466" type="line"/>
    </contour>
    <contour>
      <point x="374" y="165"/>
      <point x="336" y="205"/>
      <point x="274" y="205" type="curve" smooth="yes"/>
      <point x="225" y="205"/>
      <point x="178" y="172"/>
      <point x="178" y="111" type="curve" smooth="yes"/>
      <point x="178" y="57"/>
      <point x="201" y="31"/>
      <point x="211" y="18" type="curve"/>
      <point x="211" y="18"/>
      <point x="304" y="31"/>
      <point x="304" y="31" type="curve" smooth="yes"/>
      <point x="304" y="31"/>
      <point x="249" y="50"/>
      <point x="249" y="96" type="curve" smooth="yes"/>
      <point x="249" y="116"/>
      <point x="254" y="133"/>
      <point x="274" y="133" type="curve" smooth="yes"/>
      <point x="288" y="133"/>
      <point x="299" y="124"/>
      <point x="299" y="106" type="curve" smooth="yes"/>
      <point x="299" y="87"/>
      <point x="279" y="67"/>
      <point x="224" y="66" type="curve" smooth="yes"/>
      <point x="154" y="64"/>
      <point x="120" y="112"/>
      <point x="120" y="161" type="curve" smooth="yes"/>
      <point x="120" y="215"/>
      <point x="157" y="250"/>
      <point x="213" y="250" type="curve" smooth="yes"/>
      <point x="250" y="250"/>
      <point x="285" y="245"/>
      <point x="321" y="241" type="curve"/>
      <point x="330" y="248" type="line"/>
      <point x="330" y="466" type="line"/>
      <point x="254" y="466" type="line"/>
      <point x="254" y="326" type="line"/>
      <point x="228" y="328"/>
      <point x="222" y="328"/>
      <point x="208" y="328" type="curve" smooth="yes"/>
      <point x="99" y="328"/>
      <point x="39" y="254"/>
      <point x="39" y="167" type="curve" smooth="yes"/>
      <point x="39" y="67"/>
      <point x="115" y="-5"/>
      <point x="220" y="-5" type="curve" smooth="yes"/>
      <point x="291" y="-5"/>
      <point x="374" y="25"/>
      <point x="374" y="114" type="curve" smooth="yes"/>
    </contour>
    <contour>
      <point x="294" y="447" type="move" name="top"/>
    </contour>
    <contour>
      <point x="220" y="-35" type="move" name="bottom"/>
    </contour>
  </outline>
</glyph>
<glyph name="ddhadeva" format="1">
  <advance width="431"/>
  <unicode hex="0922"/>
  <outline>
    <contour>
      <point x="-24" y="466" type="line"/>
      <point x="-24" y="396" type="line"/>
      <point x="455" y="396" type="line"/>
      <point x="455" y="466" type="line"/>
    </contour>
    <contour>
      <point x="384" y="165"/>
      <point x="346" y="205"/>
      <point x="284" y="205" type="curve" smooth="yes"/>
      <point x="235" y="205"/>
      <point x="188" y="172"/>
      <point x="188" y="111" type="curve" smooth="yes"/>
      <point x="188" y="57"/>
      <point x="211" y="31"/>
      <point x="221" y="18" type="curve"/>
      <point x="221" y="18"/>
      <point x="314" y="31"/>
      <point x="314" y="31" type="curve" smooth="yes"/>
      <point x="314" y="31"/>
      <point x="259" y="50"/>
      <point x="259" y="96" type="curve" smooth="yes"/>
      <point x="259" y="116"/>
      <point x="264" y="133"/>
      <point x="284" y="133" type="curve" smooth="yes"/>
      <point x="298" y="133"/>
      <point x="309" y="124"/>
      <point x="309" y="106" type="curve" smooth="yes"/>
      <point x="309" y="87"/>
      <point x="289" y="67"/>
      <point x="234" y="66" type="curve" smooth="yes"/>
      <point x="164" y="64"/>
      <point x="130" y="112"/>
      <point x="130" y="161" type="curve" smooth="yes"/>
      <point x="130" y="215"/>
      <point x="167" y="250"/>
      <point x="223" y="250" type="curve" smooth="yes"/>
      <point x="260" y="250"/>
      <point x="295" y="245"/>
      <point x="331" y="241" type="curve"/>
      <point x="340" y="248" type="line"/>
      <point x="340" y="466" type="line"/>
      <point x="264" y="466" type="line"/>
      <point x="264" y="326" type="line"/>
      <point x="238" y="328"/>
      <point x="232" y="328"/>
      <point x="218" y="328" type="curve" smooth="yes"/>
      <point x="109" y="328"/>
      <point x="49" y="254"/>
      <point x="49" y="167" type="curve" smooth="yes"/>
      <point x="49" y="67"/>
      <point x="125" y="-5"/>
      <point x="230" y="-5" type="curve" smooth="yes"/>
      <point x="301" y="-5"/>
      <point x="384" y="25"/>
      <point x="384" y="114" type="curve" smooth="yes"/>
    </contour>
    <contour>
      <point x="287" y="447" type="move" name="top"/>
    </contour>
    <contour>
      <point x="215" y="-30" type="move" name="bottom"/>
    </contour>
  </outline>
</glyph>
<glyph name="nna-deva" format="1">
  <advance width="576"/>
  <unicode hex="0923"/>
  <outline>
    <contour>
      <point x="426" y="0" type="line"/>
      <point x="511" y="0" type="line"/>
      <point x="511" y="466" type="line"/>
      <point x="426" y="466" type="line"/>
    </contour>
    <contour>
      <point x="-24" y="466" type="line"/>
      <point x="-24" y="396" type="line"/>
      <point x="600" y="396" type="line"/>
      <point x="600" y="466" type="line"/>
    </contour>
    <contour>
      <point x="288" y="78"/>
      <point x="340" y="131"/>
      <point x="340" y="227" type="curve" smooth="yes"/>
      <point x="340" y="436" type="line"/>
      <point x="251" y="436" type="line"/>
      <point x="251" y="260" type="line" smooth="yes"/>
      <point x="251" y="196"/>
      <point x="249" y="161"/>
      <point x="200" y="161" type="curve" smooth="yes"/>
      <point x="151" y="161"/>
      <point x="149" y="196"/>
      <point x="149" y="260" type="curve" smooth="yes"/>
      <point x="149" y="436" type="line"/>
      <point x="60" y="436" type="line"/>
      <point x="60" y="227" type="line" smooth="yes"/>
      <point x="60" y="130"/>
      <point x="108" y="78"/>
      <point x="201" y="78" type="curve" smooth="yes"/>
    </contour>
    <contour>
      <point x="461" y="447" type="move" name="top"/>
    </contour>
    <contour>
      <point x="461" y="5" type="move" name="bottom"/>
    </contour>
  </outline>
</glyph>
<glyph name="nnadeva" format="1">
  <advance width="582"/>
  <unicode hex="0923"/>
  <outline>
    <contour>
      <point x="429" y="0" type="line"/>
      <point x="514" y="0" type="line"/>
      <point x="514" y="466" type="line"/>
      <point x="429" y="466" type="line"/>
    </contour>
    <contour>
      <point x="-24" y="466" type="line"/>
      <point x="-24" y="396" type="line"/>
      <point x="606" y="396" type="line"/>
      <point x="606" y="466" type="line"/>
    </contour>
    <contour>
      <point x="291" y="78"/>
      <point x="343" y="131"/>
      <point x="343" y="227" type="curve" smooth="yes"/>
      <point x="343" y="436" type="line"/>
      <point x="254" y="436" type="line"/>
      <point x="254" y="260" type="line" smooth="yes"/>
      <point x="254" y="196"/>
      <point x="252" y="161"/>
      <point x="203" y="161" type="curve" smooth="yes"/>
      <point x="154" y="161"/>
      <point x="152" y="196"/>
      <point x="152" y="260" type="curve" smooth="yes"/>
      <point x="152" y="436" type="line"/>
      <point x="63" y="436" type="line"/>
      <point x="63" y="227" type="line" smooth="yes"/>
      <point x="63" y="130"/>
      <point x="111" y="78"/>
      <point x="204" y="78" type="curve" smooth="yes"/>
    </contour>
    <contour>
      <point x="464" y="447" type="move" name="top"/>
    </contour>
    <contour>
      <point x="464" y="5" type="move" name="bottom"/>
    </contour>
  </outline>
</glyph>
<glyph name="ta-deva" format="1">
  <advance width="438"/>
  <unicode hex="0924"/>
  <outline>
    <contour>
      <point x="328" y="305"/>
      <point x="275" y="305"/>
      <point x="191" y="305" type="curve" smooth="yes"/>
      <point x="93" y="305"/>
      <point x="38" y="272"/>
      <point x="38" y="185" type="curve" smooth="yes"/>
      <point x="38" y="118"/>
      <point x="81" y="43"/>
      <point x="117" y="-17" type="curve"/>
      <point x="187" y="24" type="line"/>
      <point x="159" y="73"/>
      <point x="125" y="132"/>
      <point x="125" y="177" type="curve" smooth="yes"/>
      <point x="125" y="215"/>
      <point x="146" y="227"/>
      <point x="216" y="227" type="curve" smooth="yes"/>
      <point x="328" y="227" type="line"/>
      <point x="328" y="305" type="line"/>
    </contour>
    <contour>
      <point x="-24" y="466" type="line"/>
      <point x="-24" y="396" type="line"/>
      <point x="462" y="396" type="line"/>
      <point x="462" y="466" type="line"/>
    </contour>
    <contour>
      <point x="288" y="0" type="line"/>
      <point x="373" y="0" type="line"/>
      <point x="373" y="466" type="line"/>
      <point x="288" y="466" type="line"/>
    </contour>
    <contour>
      <point x="340" y="447" type="move" name="top"/>
    </contour>
    <contour>
      <point x="340" y="5" type="move" name="bottom"/>
    </contour>
  </outline>
</glyph>
<glyph name="tadeva" format="1">
  <advance width="444"/>
  <unicode hex="0924"/>
  <outline>
    <contour>
      <point x="331" y="305"/>
      <point x="278" y="305"/>
      <point x="194" y="305" type="curve" smooth="yes"/>
      <point x="96" y="305"/>
      <point x="41" y="272"/>
      <point x="41" y="185" type="curve" smooth="yes"/>
      <point x="41" y="118"/>
      <point x="84" y="43"/>
      <point x="120" y="-17" type="curve"/>
      <point x="190" y="24" type="line"/>
      <point x="162" y="73"/>
      <point x="128" y="132"/>
      <point x="128" y="177" type="curve" smooth="yes"/>
      <point x="128" y="215"/>
      <point x="149" y="227"/>
      <point x="219" y="227" type="curve" smooth="yes"/>
      <point x="331" y="227" type="line"/>
      <point x="331" y="305" type="line"/>
    </contour>
    <contour>
      <point x="-24" y="466" type="line"/>
      <point x="-24" y="396" type="line"/>
      <point x="468" y="396" type="line"/>
      <point x="468" y="466" type="line"/>
    </contour>
    <contour>
      <point x="291" y="0" type="line"/>
      <point x="376" y="0" type="line"/>
      <point x="376" y="466" type="line"/>
      <point x="291" y="466" type="line"/>
    </contour>
    <contour>
      <point x="343" y="447" type="move" name="top"/>
    </contour>
    <contour>
      <point x="343" y="5" type="move" name="bottom"/>
    </contour>
  </outline>
</glyph>
<glyph name="tha-deva" format="1">
  <advance width="491"/>
  <unicode hex="0925"/>
  <outline>
    <contour>
      <point x="164" y="405"/>
      <point x="177" y="377"/>
      <point x="177" y="350" type="curve" smooth="yes"/>
      <point x="177" y="280"/>
      <point x="105" y="247"/>
      <point x="49" y="217" type="curve"/>
      <point x="36" y="182" type="line"/>
      <point x="63" y="136"/>
      <point x="138" y="74"/>
      <point x="229" y="74" type="curve" smooth="yes"/>
      <point x="301" y="74"/>
      <point x="354" y="116"/>
      <point x="354" y="116" type="curve"/>
      <point x="354" y="224" type="line"/>
      <point x="328" y="179"/>
      <point x="275" y="156"/>
      <point x="224" y="156" type="curve" smooth="yes"/>
      <point x="192" y="156"/>
      <point x="166" y="167"/>
      <point x="147" y="181" type="curve"/>
      <point x="209" y="228"/>
      <point x="257" y="269"/>
      <point x="257" y="346" type="curve" smooth="yes"/>
      <point x="257" y="410"/>
      <point x="217" y="478"/>
      <point x="138" y="478" type="curve"/>
      <point x="71" y="478"/>
      <point x="30" y="434"/>
      <point x="30" y="379" type="curve"/>
      <point x="30" y="327"/>
      <point x="63" y="301"/>
      <point x="94" y="284" type="curve"/>
      <point x="134" y="341" type="line"/>
      <point x="121" y="350"/>
      <point x="106" y="361"/>
      <point x="106" y="379" type="curve"/>
      <point x="106" y="392"/>
      <point x="113" y="405"/>
      <point x="136" y="405" type="curve"/>
    </contour>
    <contour>
      <point x="295" y="466" type="line"/>
      <point x="295" y="396" type="line"/>
      <point x="515" y="396" type="line"/>
      <point x="515" y="466" type="line"/>
    </contour>
    <contour>
      <point x="341" y="0" type="line"/>
      <point x="426" y="0" type="line"/>
      <point x="426" y="466" type="line"/>
      <point x="341" y="466" type="line"/>
    </contour>
    <contour>
      <point x="383" y="447" type="move" name="top"/>
    </contour>
    <contour>
      <point x="383" y="5" type="move" name="bottom"/>
    </contour>
  </outline>
</glyph>
<glyph name="thadeva" format="1">
  <advance width="499"/>
  <unicode hex="0925"/>
  <outline>
    <contour>
      <point x="169" y="405"/>
      <point x="182" y="377"/>
      <point x="182" y="350" type="curve" smooth="yes"/>
      <point x="182" y="280"/>
      <point x="110" y="247"/>
      <point x="54" y="217" type="curve"/>
      <point x="41" y="182" type="line"/>
      <point x="68" y="136"/>
      <point x="143" y="74"/>
      <point x="234" y="74" type="curve" smooth="yes"/>
      <point x="306" y="74"/>
      <point x="359" y="116"/>
      <point x="359" y="116" type="curve"/>
      <point x="359" y="224" type="line"/>
      <point x="333" y="179"/>
      <point x="280" y="156"/>
      <point x="229" y="156" type="curve" smooth="yes"/>
      <point x="197" y="156"/>
      <point x="171" y="167"/>
      <point x="152" y="181" type="curve"/>
      <point x="214" y="228"/>
      <point x="262" y="269"/>
      <point x="262" y="346" type="curve" smooth="yes"/>
      <point x="262" y="410"/>
      <point x="222" y="478"/>
      <point x="143" y="478" type="curve"/>
      <point x="76" y="478"/>
      <point x="35" y="434"/>
      <point x="35" y="379" type="curve"/>
      <point x="35" y="327"/>
      <point x="68" y="301"/>
      <point x="99" y="284" type="curve"/>
      <point x="139" y="341" type="line"/>
      <point x="126" y="350"/>
      <point x="111" y="361"/>
      <point x="111" y="379" type="curve"/>
      <point x="111" y="392"/>
      <point x="118" y="405"/>
      <point x="141" y="405" type="curve"/>
    </contour>
    <contour>
      <point x="300" y="466" type="line"/>
      <point x="300" y="396" type="line"/>
      <point x="523" y="396" type="line"/>
      <point x="523" y="466" type="line"/>
    </contour>
    <contour>
      <point x="346" y="0" type="line"/>
      <point x="431" y="0" type="line"/>
      <point x="431" y="466" type="line"/>
      <point x="346" y="466" type="line"/>
    </contour>
    <contour>
      <point x="388" y="447" type="move" name="top"/>
    </contour>
    <contour>
      <point x="388" y="5" type="move" name="bottom"/>
    </contour>
  </outline>
</glyph>
<glyph name="dadeva" format="1">
  <advance width="443"/>
  <unicode hex="0926"/>
  <outline>
    <contour>
      <point x="311" y="102" type="line"/>
      <point x="286" y="89"/>
      <point x="264" y="76"/>
      <point x="230" y="76" type="curve" smooth="yes"/>
      <point x="168" y="76"/>
      <point x="131" y="111"/>
      <point x="131" y="163" type="curve" smooth="yes"/>
      <point x="131" y="213"/>
      <point x="168" y="244"/>
      <point x="236" y="244" type="curve" smooth="yes"/>
      <point x="273" y="244"/>
      <point x="298" y="239"/>
      <point x="334" y="235" type="curve"/>
      <point x="343" y="242" type="line"/>
      <point x="343" y="456" type="line"/>
      <point x="267" y="456" type="line"/>
      <point x="267" y="322" type="line"/>
      <point x="267" y="322"/>
      <point x="242" y="322"/>
      <point x="228" y="322" type="curve" smooth="yes"/>
      <point x="113" y="322"/>
      <point x="49" y="259"/>
      <point x="49" y="167" type="curve" smooth="yes"/>
      <point x="49" y="65"/>
      <point x="126" y="-2"/>
      <point x="229" y="-2" type="curve" smooth="yes"/>
      <point x="281" y="-2"/>
      <point x="316" y="17"/>
      <point x="345" y="32" type="curve"/>
    </contour>
    <contour>
      <point x="-24" y="466" type="line"/>
      <point x="-24" y="396" type="line"/>
      <point x="467" y="396" type="line"/>
      <point x="467" y="466" type="line"/>
    </contour>
    <contour>
      <point x="292" y="44"/>
      <point x="307" y="30"/>
      <point x="320" y="31" type="curve" smooth="yes"/>
      <point x="340" y="32"/>
      <point x="380" y="58"/>
      <point x="380" y="100" type="curve" smooth="yes"/>
      <point x="380" y="132"/>
      <point x="360" y="163"/>
      <point x="316" y="163" type="curve" smooth="yes"/>
      <point x="271" y="163"/>
      <point x="245" y="130"/>
      <point x="245" y="130" type="curve"/>
      <point x="283" y="49" type="line"/>
    </contour>
    <contour>
      <point x="279" y="56" type="line"/>
      <point x="279" y="56"/>
      <point x="353" y="-82"/>
      <point x="353" y="-82" type="curve" smooth="yes"/>
      <point x="353" y="-82"/>
      <point x="422" y="-44"/>
      <point x="422" y="-44" type="curve"/>
      <point x="340" y="87" type="line"/>
    </contour>
    <contour>
      <point x="289" y="447" type="move" name="top"/>
    </contour>
    <contour>
      <point x="221" y="-8" type="move" name="bottom"/>
    </contour>
  </outline>
</glyph>
<glyph name="dhadeva" format="1">
  <advance width="503"/>
  <unicode hex="0927"/>
  <outline>
    <contour>
      <point x="78" y="486"/>
      <point x="40" y="426"/>
      <point x="40" y="369" type="curve"/>
      <point x="40" y="283"/>
      <point x="113" y="239"/>
      <point x="129" y="227" type="curve"/>
      <point x="224" y="267" type="line"/>
      <point x="224" y="267"/>
      <point x="124" y="291"/>
      <point x="124" y="371" type="curve"/>
      <point x="124" y="396"/>
      <point x="132" y="417"/>
      <point x="159" y="417" type="curve"/>
      <point x="172" y="417"/>
      <point x="181" y="409"/>
      <point x="181" y="397" type="curve"/>
      <point x="181" y="385"/>
      <point x="175" y="375"/>
      <point x="162" y="363" type="curve"/>
      <point x="215" y="318" type="line"/>
      <point x="236" y="340"/>
      <point x="255" y="364"/>
      <point x="255" y="396" type="curve"/>
      <point x="255" y="441"/>
      <point x="225" y="486"/>
      <point x="157" y="486" type="curve"/>
    </contour>
    <contour>
      <point x="132" y="277"/>
      <point x="73" y="236"/>
      <point x="73" y="176" type="curve" smooth="yes"/>
      <point x="73" y="97"/>
      <point x="141" y="50"/>
      <point x="237" y="50" type="curve" smooth="yes"/>
      <point x="322" y="50"/>
      <point x="377" y="88"/>
      <point x="377" y="89" type="curve"/>
      <point x="377" y="183" type="line"/>
      <point x="377" y="183"/>
      <point x="334" y="129"/>
      <point x="234" y="129" type="curve" smooth="yes"/>
      <point x="196" y="129"/>
      <point x="159" y="139"/>
      <point x="159" y="169" type="curve" smooth="yes"/>
      <point x="159" y="195"/>
      <point x="204" y="204"/>
      <point x="271" y="212" type="curve"/>
      <point x="256" y="285" type="line"/>
    </contour>
    <contour>
      <point x="287" y="466" type="line"/>
      <point x="287" y="396" type="line"/>
      <point x="527" y="396" type="line"/>
      <point x="527" y="466" type="line"/>
    </contour>
    <contour>
      <point x="350" y="0" type="line"/>
      <point x="435" y="0" type="line"/>
      <point x="435" y="466" type="line"/>
      <point x="350" y="466" type="line"/>
    </contour>
    <contour>
      <point x="392" y="447" type="move" name="top"/>
    </contour>
    <contour>
      <point x="392" y="5" type="move" name="bottom"/>
    </contour>
  </outline>
</glyph>
<glyph name="na-deva" format="1">
  <advance width="431"/>
  <unicode hex="0928"/>
  <outline>
    <contour>
      <point x="281" y="0" type="line"/>
      <point x="366" y="0" type="line"/>
      <point x="366" y="466" type="line"/>
      <point x="281" y="466" type="line"/>
    </contour>
    <contour>
      <point x="-24" y="466" type="line"/>
      <point x="-24" y="396" type="line"/>
      <point x="455" y="396" type="line"/>
      <point x="455" y="466" type="line"/>
    </contour>
    <contour>
      <point x="44" y="270" type="line"/>
      <point x="34" y="228" type="line"/>
      <point x="95" y="95" type="line"/>
      <point x="95" y="95"/>
      <point x="152" y="95"/>
      <point x="152" y="95" type="curve"/>
      <point x="152" y="270" type="line"/>
    </contour>
    <contour>
      <point x="91" y="270" type="line"/>
      <point x="91" y="192" type="line"/>
      <point x="316" y="192" type="line"/>
      <point x="316" y="270" type="line"/>
    </contour>
    <contour>
      <point x="305" y="447" type="move" name="top"/>
    </contour>
    <contour>
      <point x="305" y="5" type="move" name="bottom"/>
    </contour>
  </outline>
</glyph>
<glyph name="nadeva" format="1">
  <advance width="437"/>
  <unicode hex="0928"/>
  <outline>
    <contour>
      <point x="284" y="0" type="line"/>
      <point x="369" y="0" type="line"/>
      <point x="369" y="466" type="line"/>
      <point x="284" y="466" type="line"/>
    </contour>
    <contour>
      <point x="-24" y="466" type="line"/>
      <point x="-24" y="396" type="line"/>
      <point x="461" y="396" type="line"/>
      <point x="461" y="466" type="line"/>
    </contour>
    <contour>
      <point x="47" y="270" type="line"/>
      <point x="37" y="228" type="line"/>
      <point x="98" y="95" type="line"/>
      <point x="98" y="95"/>
      <point x="155" y="95"/>
      <point x="155" y="95" type="curve"/>
      <point x="155" y="270" type="line"/>
    </contour>
    <contour>
      <point x="94" y="270" type="line"/>
      <point x="94" y="192" type="line"/>
      <point x="319" y="192" type="line"/>
      <point x="319" y="270" type="line"/>
    </contour>
    <contour>
      <point x="308" y="447" type="move" name="top"/>
    </contour>
    <contour>
      <point x="308" y="5" type="move" name="bottom"/>
    </contour>
  </outline>
</glyph>
<glyph name="nnna-deva" format="1">
  <advance width="431"/>
  <unicode hex="0929"/>
  <outline>
    <contour>
      <point x="281" y="0" type="line"/>
      <point x="366" y="0" type="line"/>
      <point x="366" y="466" type="line"/>
      <point x="281" y="466" type="line"/>
    </contour>
    <contour>
      <point x="-24" y="466" type="line"/>
      <point x="-24" y="396" type="line"/>
      <point x="455" y="396" type="line"/>
      <point x="455" y="466" type="line"/>
    </contour>
    <contour>
      <point x="44" y="280" type="line"/>
      <point x="34" y="238" type="line"/>
      <point x="95" y="105" type="line"/>
      <point x="95" y="105"/>
      <point x="152" y="105"/>
      <point x="152" y="105" type="curve"/>
      <point x="152" y="280" type="line"/>
    </contour>
    <contour>
      <point x="91" y="280" type="line"/>
      <point x="91" y="202" type="line"/>
      <point x="316" y="202" type="line"/>
      <point x="316" y="280" type="line"/>
    </contour>
    <component base="nuktadeva" xOffset="207" yOffset="84"/>
    <contour>
      <point x="305" y="447" type="move" name="top"/>
    </contour>
    <contour>
      <point x="305" y="5" type="move" name="bottom"/>
    </contour>
  </outline>
</glyph>
<glyph name="nnnadeva" format="1">
  <advance width="437"/>
  <unicode hex="0929"/>
  <outline>
    <contour>
      <point x="284" y="0" type="line"/>
      <point x="369" y="0" type="line"/>
      <point x="369" y="466" type="line"/>
      <point x="284" y="466" type="line"/>
    </contour>
    <contour>
      <point x="-24" y="466" type="line"/>
      <point x="-24" y="396" type="line"/>
      <point x="461" y="396" type="line"/>
      <point x="461" y="466" type="line"/>
    </contour>
    <contour>
      <point x="47" y="280" type="line"/>
      <point x="37" y="238" type="line"/>
      <point x="98" y="105" type="line"/>
      <point x="98" y="105"/>
      <point x="155" y="105"/>
      <point x="155" y="105" type="curve"/>
      <point x="155" y="280" type="line"/>
    </contour>
    <contour>
      <point x="94" y="280" type="line"/>
      <point x="94" y="202" type="line"/>
      <point x="319" y="202" type="line"/>
      <point x="319" y="280" type="line"/>
    </contour>
    <component base="nuktadeva" xOffset="210" yOffset="84"/>
    <contour>
      <point x="308" y="447" type="move" name="top"/>
    </contour>
    <contour>
      <point x="308" y="5" type="move" name="bottom"/>
    </contour>
  </outline>
</glyph>
<glyph name="pa-deva" format="1">
  <advance width="450"/>
  <unicode hex="092A"/>
  <outline>
    <contour>
      <point x="354" y="222"/>
      <point x="310" y="169"/>
      <point x="216" y="169" type="curve" smooth="yes"/>
      <point x="162" y="169"/>
      <point x="145" y="202"/>
      <point x="145" y="260" type="curve" smooth="yes"/>
      <point x="145" y="456" type="line"/>
      <point x="60" y="456" type="line"/>
      <point x="60" y="238" type="line" smooth="yes"/>
      <point x="60" y="157"/>
      <point x="118" y="91"/>
      <point x="218" y="91" type="curve" smooth="yes"/>
      <point x="291" y="91"/>
      <point x="354" y="131"/>
      <point x="354" y="131" type="curve"/>
      <point x="354" y="222" type="line"/>
    </contour>
    <contour>
      <point x="299" y="0" type="line"/>
      <point x="384" y="0" type="line"/>
      <point x="384" y="466" type="line"/>
      <point x="299" y="466" type="line"/>
    </contour>
    <contour>
      <point x="-24" y="466" type="line"/>
      <point x="-24" y="396" type="line"/>
      <point x="474" y="396" type="line"/>
      <point x="474" y="466" type="line"/>
    </contour>
    <contour>
      <point x="343" y="447" type="move" name="top"/>
    </contour>
    <contour>
      <point x="343" y="5" type="move" name="bottom"/>
    </contour>
  </outline>
</glyph>
<glyph name="padeva" format="1">
  <advance width="456"/>
  <unicode hex="092A"/>
  <outline>
    <contour>
      <point x="357" y="222"/>
      <point x="313" y="169"/>
      <point x="219" y="169" type="curve" smooth="yes"/>
      <point x="165" y="169"/>
      <point x="148" y="202"/>
      <point x="148" y="260" type="curve" smooth="yes"/>
      <point x="148" y="456" type="line"/>
      <point x="63" y="456" type="line"/>
      <point x="63" y="238" type="line" smooth="yes"/>
      <point x="63" y="157"/>
      <point x="121" y="91"/>
      <point x="221" y="91" type="curve" smooth="yes"/>
      <point x="294" y="91"/>
      <point x="357" y="131"/>
      <point x="357" y="131" type="curve"/>
      <point x="357" y="222" type="line"/>
    </contour>
    <contour>
      <point x="302" y="0" type="line"/>
      <point x="387" y="0" type="line"/>
      <point x="387" y="466" type="line"/>
      <point x="302" y="466" type="line"/>
    </contour>
    <contour>
      <point x="-24" y="466" type="line"/>
      <point x="-24" y="396" type="line"/>
      <point x="480" y="396" type="line"/>
      <point x="480" y="466" type="line"/>
    </contour>
    <contour>
      <point x="346" y="447" type="move" name="top"/>
    </contour>
    <contour>
      <point x="346" y="5" type="move" name="bottom"/>
    </contour>
  </outline>
</glyph>
<glyph name="pha-deva" format="1">
  <advance width="653"/>
  <unicode hex="092B"/>
  <outline>
    <contour>
      <point x="354" y="216"/>
      <point x="300" y="169"/>
      <point x="216" y="169" type="curve" smooth="yes"/>
      <point x="162" y="169"/>
      <point x="145" y="204"/>
      <point x="145" y="260" type="curve" smooth="yes"/>
      <point x="145" y="456" type="line"/>
      <point x="60" y="456" type="line"/>
      <point x="60" y="234" type="line" smooth="yes"/>
      <point x="60" y="154"/>
      <point x="118" y="93"/>
      <point x="218" y="93" type="curve" smooth="yes"/>
      <point x="291" y="93"/>
      <point x="354" y="133"/>
      <point x="354" y="133" type="curve"/>
      <point x="354" y="216" type="line"/>
    </contour>
    <contour>
      <point x="299" y="0" type="line"/>
      <point x="384" y="0" type="line"/>
      <point x="384" y="466" type="line"/>
      <point x="299" y="466" type="line"/>
    </contour>
    <contour>
      <point x="-24" y="466" type="line"/>
      <point x="-24" y="396" type="line"/>
      <point x="677" y="396" type="line"/>
      <point x="677" y="466" type="line"/>
    </contour>
    <contour>
      <point x="609" y="296"/>
      <point x="549" y="345"/>
      <point x="467" y="345" type="curve" smooth="yes"/>
      <point x="395" y="345"/>
      <point x="362" y="308"/>
      <point x="335" y="290" type="curve"/>
      <point x="349" y="210" type="line"/>
      <point x="365" y="222"/>
      <point x="417" y="267"/>
      <point x="463" y="267" type="curve" smooth="yes"/>
      <point x="508" y="267"/>
      <point x="527" y="241"/>
      <point x="527" y="205" type="curve" smooth="yes"/>
      <point x="527" y="159"/>
      <point x="494" y="132"/>
      <point x="473" y="112" type="curve"/>
      <point x="530" y="55" type="line"/>
      <point x="570" y="88"/>
      <point x="609" y="134"/>
      <point x="609" y="204" type="curve" smooth="yes"/>
    </contour>
    <contour>
      <point x="337" y="447" type="move" name="top"/>
    </contour>
    <contour>
      <point x="337" y="5" type="move" name="bottom"/>
    </contour>
  </outline>
</glyph>
<glyph name="phadeva" format="1">
  <advance width="659"/>
  <unicode hex="092B"/>
  <outline>
    <contour>
      <point x="357" y="216"/>
      <point x="303" y="169"/>
      <point x="219" y="169" type="curve" smooth="yes"/>
      <point x="165" y="169"/>
      <point x="148" y="204"/>
      <point x="148" y="260" type="curve" smooth="yes"/>
      <point x="148" y="456" type="line"/>
      <point x="63" y="456" type="line"/>
      <point x="63" y="234" type="line" smooth="yes"/>
      <point x="63" y="154"/>
      <point x="121" y="93"/>
      <point x="221" y="93" type="curve" smooth="yes"/>
      <point x="294" y="93"/>
      <point x="357" y="133"/>
      <point x="357" y="133" type="curve"/>
      <point x="357" y="216" type="line"/>
    </contour>
    <contour>
      <point x="302" y="0" type="line"/>
      <point x="387" y="0" type="line"/>
      <point x="387" y="466" type="line"/>
      <point x="302" y="466" type="line"/>
    </contour>
    <contour>
      <point x="-24" y="466" type="line"/>
      <point x="-24" y="396" type="line"/>
      <point x="683" y="396" type="line"/>
      <point x="683" y="466" type="line"/>
    </contour>
    <contour>
      <point x="612" y="296"/>
      <point x="552" y="345"/>
      <point x="470" y="345" type="curve" smooth="yes"/>
      <point x="398" y="345"/>
      <point x="365" y="308"/>
      <point x="338" y="290" type="curve"/>
      <point x="352" y="210" type="line"/>
      <point x="368" y="222"/>
      <point x="420" y="267"/>
      <point x="466" y="267" type="curve" smooth="yes"/>
      <point x="511" y="267"/>
      <point x="530" y="241"/>
      <point x="530" y="205" type="curve" smooth="yes"/>
      <point x="530" y="159"/>
      <point x="497" y="132"/>
      <point x="476" y="112" type="curve"/>
      <point x="533" y="55" type="line"/>
      <point x="573" y="88"/>
      <point x="612" y="134"/>
      <point x="612" y="204" type="curve" smooth="yes"/>
    </contour>
    <contour>
      <point x="340" y="447" type="move" name="top"/>
    </contour>
    <contour>
      <point x="340" y="5" type="move" name="bottom"/>
    </contour>
  </outline>
</glyph>
<glyph name="ba-deva" format="1">
  <advance width="435"/>
  <unicode hex="092C"/>
  <outline>
    <contour>
      <point x="-24" y="466" type="line"/>
      <point x="-24" y="396" type="line"/>
      <point x="459" y="396" type="line"/>
      <point x="459" y="466" type="line"/>
    </contour>
    <contour>
      <point x="115" y="245"/>
      <point x="157" y="268"/>
      <point x="203" y="268" type="curve" smooth="yes"/>
      <point x="255" y="268"/>
      <point x="281" y="241"/>
      <point x="297" y="228" type="curve"/>
      <point x="313" y="301" type="line"/>
      <point x="286" y="317"/>
      <point x="253" y="342"/>
      <point x="189" y="342" type="curve" smooth="yes"/>
      <point x="106" y="342"/>
      <point x="37" y="292"/>
      <point x="37" y="197" type="curve" smooth="yes"/>
      <point x="37" y="106"/>
      <point x="106" y="53"/>
      <point x="189" y="53" type="curve" smooth="yes"/>
      <point x="251" y="53"/>
      <point x="286" y="75"/>
      <point x="313" y="93" type="curve"/>
      <point x="297" y="170" type="line"/>
      <point x="281" y="158"/>
      <point x="255" y="125"/>
      <point x="203" y="125" type="curve" smooth="yes"/>
      <point x="157" y="125"/>
      <point x="115" y="149"/>
      <point x="115" y="197" type="curve" smooth="yes"/>
    </contour>
    <contour>
      <point x="285" y="0" type="line"/>
      <point x="370" y="0" type="line"/>
      <point x="370" y="466" type="line"/>
      <point x="285" y="466" type="line"/>
    </contour>
    <contour>
      <point x="272" y="90" type="line"/>
      <point x="314" y="130" type="line"/>
      <point x="145" y="306" type="line"/>
      <point x="96" y="270" type="line"/>
    </contour>
    <contour>
      <point x="311" y="447" type="move" name="top"/>
    </contour>
    <contour>
      <point x="311" y="5" type="move" name="bottom"/>
    </contour>
  </outline>
</glyph>
<glyph name="badeva" format="1">
  <advance width="441"/>
  <unicode hex="092C"/>
  <outline>
    <contour>
      <point x="-24" y="466" type="line"/>
      <point x="-24" y="396" type="line"/>
      <point x="465" y="396" type="line"/>
      <point x="465" y="466" type="line"/>
    </contour>
    <contour>
      <point x="118" y="245"/>
      <point x="160" y="268"/>
      <point x="206" y="268" type="curve" smooth="yes"/>
      <point x="258" y="268"/>
      <point x="284" y="241"/>
      <point x="300" y="228" type="curve"/>
      <point x="316" y="301" type="line"/>
      <point x="289" y="317"/>
      <point x="256" y="342"/>
      <point x="192" y="342" type="curve" smooth="yes"/>
      <point x="109" y="342"/>
      <point x="40" y="292"/>
      <point x="40" y="197" type="curve" smooth="yes"/>
      <point x="40" y="106"/>
      <point x="109" y="53"/>
      <point x="192" y="53" type="curve" smooth="yes"/>
      <point x="254" y="53"/>
      <point x="289" y="75"/>
      <point x="316" y="93" type="curve"/>
      <point x="300" y="170" type="line"/>
      <point x="284" y="158"/>
      <point x="258" y="125"/>
      <point x="206" y="125" type="curve" smooth="yes"/>
      <point x="160" y="125"/>
      <point x="118" y="149"/>
      <point x="118" y="197" type="curve" smooth="yes"/>
    </contour>
    <contour>
      <point x="288" y="0" type="line"/>
      <point x="373" y="0" type="line"/>
      <point x="373" y="466" type="line"/>
      <point x="288" y="466" type="line"/>
    </contour>
    <contour>
      <point x="275" y="90" type="line"/>
      <point x="317" y="130" type="line"/>
      <point x="148" y="306" type="line"/>
      <point x="99" y="270" type="line"/>
    </contour>
    <contour>
      <point x="314" y="447" type="move" name="top"/>
    </contour>
    <contour>
      <point x="314" y="5" type="move" name="bottom"/>
    </contour>
  </outline>
</glyph>
<glyph name="bhadeva" format="1">
  <advance width="538"/>
  <unicode hex="092D"/>
  <outline>
    <contour>
      <point x="385" y="0" type="line"/>
      <point x="470" y="0" type="line"/>
      <point x="470" y="466" type="line"/>
      <point x="385" y="466" type="line"/>
    </contour>
    <contour>
      <point x="250" y="125" type="line"/>
      <point x="250" y="310" type="line" smooth="yes"/>
      <point x="250" y="422"/>
      <point x="213" y="479"/>
      <point x="129" y="479" type="curve" smooth="yes"/>
      <point x="60" y="479"/>
      <point x="15" y="434"/>
      <point x="15" y="369" type="curve" smooth="yes"/>
      <point x="15" y="317"/>
      <point x="49" y="277"/>
      <point x="98" y="251" type="curve"/>
      <point x="136" y="311" type="line"/>
      <point x="112" y="325"/>
      <point x="89" y="341"/>
      <point x="89" y="369" type="curve" smooth="yes"/>
      <point x="89" y="389"/>
      <point x="103" y="403"/>
      <point x="122" y="403" type="curve" smooth="yes"/>
      <point x="168" y="403"/>
      <point x="163" y="329"/>
      <point x="163" y="310" type="curve" smooth="yes"/>
      <point x="163" y="125" type="line"/>
    </contour>
    <contour>
      <point x="304" y="466" type="line"/>
      <point x="304" y="396" type="line"/>
      <point x="562" y="396" type="line"/>
      <point x="562" y="466" type="line"/>
    </contour>
    <contour>
      <point x="216" y="206" type="line"/>
      <point x="216" y="131" type="line"/>
      <point x="445" y="131" type="line"/>
      <point x="445" y="206" type="line"/>
    </contour>
    <contour>
      <point x="97" y="206" type="line"/>
      <point x="97" y="164" type="line"/>
      <point x="196" y="41" type="line"/>
      <point x="196" y="41"/>
      <point x="250" y="41"/>
      <point x="250" y="41" type="curve"/>
      <point x="250" y="206" type="line"/>
    </contour>
    <contour>
      <point x="431" y="447" type="move" name="top"/>
    </contour>
    <contour>
      <point x="431" y="5" type="move" name="bottom"/>
    </contour>
  </outline>
</glyph>
<glyph name="ma-deva" format="1">
  <advance width="499"/>
  <unicode hex="092E"/>
  <outline>
    <contour>
      <point x="349" y="0" type="line"/>
      <point x="434" y="0" type="line"/>
      <point x="434" y="466" type="line"/>
      <point x="349" y="466" type="line"/>
    </contour>
    <contour>
      <point x="-24" y="466" type="line"/>
      <point x="-24" y="396" type="line"/>
      <point x="523" y="396" type="line"/>
      <point x="523" y="466" type="line"/>
    </contour>
    <contour>
      <point x="39" y="216" type="line"/>
      <point x="39" y="174" type="line"/>
      <point x="138" y="51" type="line"/>
      <point x="138" y="51"/>
      <point x="195" y="51"/>
      <point x="195" y="51" type="curve"/>
      <point x="195" y="216" type="line"/>
    </contour>
    <contour>
      <point x="134" y="216" type="line"/>
      <point x="134" y="138" type="line"/>
      <point x="387" y="138" type="line"/>
      <point x="387" y="216" type="line"/>
    </contour>
    <contour>
      <point x="110" y="138" type="line"/>
      <point x="195" y="138" type="line"/>
      <point x="195" y="466" type="line"/>
      <point x="110" y="466" type="line"/>
    </contour>
    <contour>
      <point x="365" y="447" type="move" name="top"/>
    </contour>
    <contour>
      <point x="366" y="5" type="move" name="bottom"/>
    </contour>
  </outline>
</glyph>
<glyph name="madeva" format="1">
  <advance width="505"/>
  <unicode hex="092E"/>
  <outline>
    <contour>
      <point x="352" y="0" type="line"/>
      <point x="437" y="0" type="line"/>
      <point x="437" y="466" type="line"/>
      <point x="352" y="466" type="line"/>
    </contour>
    <contour>
      <point x="-24" y="466" type="line"/>
      <point x="-24" y="396" type="line"/>
      <point x="529" y="396" type="line"/>
      <point x="529" y="466" type="line"/>
    </contour>
    <contour>
      <point x="42" y="216" type="line"/>
      <point x="42" y="174" type="line"/>
      <point x="141" y="51" type="line"/>
      <point x="141" y="51"/>
      <point x="198" y="51"/>
      <point x="198" y="51" type="curve"/>
      <point x="198" y="216" type="line"/>
    </contour>
    <contour>
      <point x="137" y="216" type="line"/>
      <point x="137" y="138" type="line"/>
      <point x="390" y="138" type="line"/>
      <point x="390" y="216" type="line"/>
    </contour>
    <contour>
      <point x="113" y="138" type="line"/>
      <point x="198" y="138" type="line"/>
      <point x="198" y="466" type="line"/>
      <point x="113" y="466" type="line"/>
    </contour>
    <contour>
      <point x="368" y="447" type="move" name="top"/>
    </contour>
    <contour>
      <point x="369" y="5" type="move" name="bottom"/>
    </contour>
  </outline>
</glyph>
<glyph name="ya-deva" format="1">
  <advance width="464"/>
  <unicode hex="092F"/>
  <outline>
    <contour>
      <point x="326" y="179"/>
      <point x="273" y="156"/>
      <point x="222" y="156" type="curve" smooth="yes"/>
      <point x="188" y="156"/>
      <point x="161" y="169"/>
      <point x="142" y="184" type="curve"/>
      <point x="184" y="225"/>
      <point x="206" y="253"/>
      <point x="206" y="306" type="curve" smooth="yes"/>
      <point x="206" y="356"/>
      <point x="172" y="414"/>
      <point x="118" y="456" type="curve"/>
      <point x="20" y="456" type="line"/>
      <point x="80" y="414"/>
      <point x="124" y="356"/>
      <point x="120" y="307" type="curve" smooth="yes"/>
      <point x="116" y="258"/>
      <point x="79" y="234"/>
      <point x="47" y="217" type="curve"/>
      <point x="34" y="185" type="line"/>
      <point x="61" y="131"/>
      <point x="136" y="76"/>
      <point x="227" y="76" type="curve" smooth="yes"/>
      <point x="299" y="76"/>
      <point x="352" y="118"/>
      <point x="352" y="118" type="curve"/>
      <point x="352" y="224" type="line"/>
    </contour>
    <contour>
      <point x="-24" y="466" type="line"/>
      <point x="-24" y="396" type="line"/>
      <point x="488" y="396" type="line"/>
      <point x="488" y="466" type="line"/>
    </contour>
    <contour>
      <point x="314" y="0" type="line"/>
      <point x="399" y="0" type="line"/>
      <point x="399" y="466" type="line"/>
      <point x="314" y="466" type="line"/>
    </contour>
    <contour>
      <point x="357" y="447" type="move" name="top"/>
    </contour>
    <contour>
      <point x="357" y="5" type="move" name="bottom"/>
    </contour>
  </outline>
</glyph>
<glyph name="yadeva" format="1">
  <advance width="470"/>
  <unicode hex="092F"/>
  <outline>
    <contour>
      <point x="329" y="179"/>
      <point x="276" y="156"/>
      <point x="225" y="156" type="curve" smooth="yes"/>
      <point x="191" y="156"/>
      <point x="164" y="169"/>
      <point x="145" y="184" type="curve"/>
      <point x="187" y="225"/>
      <point x="209" y="253"/>
      <point x="209" y="306" type="curve" smooth="yes"/>
      <point x="209" y="356"/>
      <point x="175" y="414"/>
      <point x="121" y="456" type="curve"/>
      <point x="23" y="456" type="line"/>
      <point x="83" y="414"/>
      <point x="127" y="356"/>
      <point x="123" y="307" type="curve" smooth="yes"/>
      <point x="119" y="258"/>
      <point x="82" y="234"/>
      <point x="50" y="217" type="curve"/>
      <point x="37" y="185" type="line"/>
      <point x="64" y="131"/>
      <point x="139" y="76"/>
      <point x="230" y="76" type="curve" smooth="yes"/>
      <point x="302" y="76"/>
      <point x="355" y="118"/>
      <point x="355" y="118" type="curve"/>
      <point x="355" y="224" type="line"/>
    </contour>
    <contour>
      <point x="-24" y="466" type="line"/>
      <point x="-24" y="396" type="line"/>
      <point x="494" y="396" type="line"/>
      <point x="494" y="466" type="line"/>
    </contour>
    <contour>
      <point x="317" y="0" type="line"/>
      <point x="402" y="0" type="line"/>
      <point x="402" y="466" type="line"/>
      <point x="317" y="466" type="line"/>
    </contour>
    <contour>
      <point x="360" y="447" type="move" name="top"/>
    </contour>
    <contour>
      <point x="360" y="5" type="move" name="bottom"/>
    </contour>
  </outline>
</glyph>
<glyph name="ra-deva" format="1">
  <advance width="315"/>
  <unicode hex="0930"/>
  <outline>
    <contour>
      <point x="92" y="423"/>
      <point x="172" y="403"/>
      <point x="172" y="306" type="curve" smooth="yes"/>
      <point x="172" y="217"/>
      <point x="69" y="216"/>
      <point x="69" y="216" type="curve" smooth="yes"/>
      <point x="69" y="216"/>
      <point x="99" y="148"/>
      <point x="99" y="148" type="curve"/>
      <point x="157" y="148"/>
      <point x="256" y="195"/>
      <point x="256" y="304" type="curve" smooth="yes"/>
      <point x="256" y="410"/>
      <point x="178" y="448"/>
      <point x="178" y="448" type="curve"/>
      <point x="92" y="423" type="line"/>
    </contour>
    <contour>
      <point x="195" y="-20" type="line"/>
      <point x="195" y="-20"/>
      <point x="263" y="27"/>
      <point x="263" y="27" type="curve"/>
      <point x="85" y="254" type="line"/>
      <point x="22" y="205" type="line"/>
    </contour>
    <contour>
      <point x="-24" y="466" type="line"/>
      <point x="-24" y="396" type="line"/>
      <point x="339" y="396" type="line"/>
      <point x="339" y="466" type="line"/>
    </contour>
    <contour>
      <point x="170" y="447" type="move" name="top"/>
    </contour>
    <contour>
      <point x="148" y="-50" type="move" name="bottom"/>
    </contour>
  </outline>
</glyph>
<glyph name="radeva" format="1">
  <advance width="321"/>
  <unicode hex="0930"/>
  <outline>
    <contour>
      <point x="95" y="423"/>
      <point x="175" y="403"/>
      <point x="175" y="306" type="curve" smooth="yes"/>
      <point x="175" y="217"/>
      <point x="72" y="216"/>
      <point x="72" y="216" type="curve" smooth="yes"/>
      <point x="72" y="216"/>
      <point x="102" y="148"/>
      <point x="102" y="148" type="curve"/>
      <point x="160" y="148"/>
      <point x="259" y="195"/>
      <point x="259" y="304" type="curve" smooth="yes"/>
      <point x="259" y="410"/>
      <point x="181" y="448"/>
      <point x="181" y="448" type="curve"/>
      <point x="95" y="423" type="line"/>
    </contour>
    <contour>
      <point x="198" y="-20" type="line"/>
      <point x="198" y="-20"/>
      <point x="266" y="27"/>
      <point x="266" y="27" type="curve"/>
      <point x="88" y="254" type="line"/>
      <point x="25" y="205" type="line"/>
    </contour>
    <contour>
      <point x="-24" y="466" type="line"/>
      <point x="-24" y="396" type="line"/>
      <point x="345" y="396" type="line"/>
      <point x="345" y="466" type="line"/>
    </contour>
    <contour>
      <point x="113" y="447" type="move" name="top"/>
    </contour>
  </outline>
</glyph>
<glyph name="rra-deva" format="1">
  <advance width="315"/>
  <unicode hex="0931"/>
  <outline>
    <component base="ra-deva"/>
    <component base="nukta-deva" xOffset="60" yOffset="88"/>
    <contour>
      <point x="150" y="447" type="move" name="top"/>
    </contour>
    <contour>
      <point x="148" y="-20" type="move" name="bottom"/>
    </contour>
  </outline>
</glyph>
<glyph name="la-deva" format="1">
  <advance width="545"/>
  <unicode hex="0932"/>
  <outline>
    <contour>
      <point x="396" y="0" type="line"/>
      <point x="480" y="0" type="line"/>
      <point x="480" y="466" type="line"/>
      <point x="396" y="466" type="line"/>
    </contour>
    <contour>
      <point x="-24" y="466" type="line"/>
      <point x="-24" y="396" type="line"/>
      <point x="569" y="396" type="line"/>
      <point x="569" y="466" type="line"/>
    </contour>
    <contour>
      <point x="279" y="277"/>
      <point x="239" y="311"/>
      <point x="174" y="311" type="curve" smooth="yes"/>
      <point x="99" y="311"/>
      <point x="42" y="259"/>
      <point x="42" y="172" type="curve" smooth="yes"/>
      <point x="42" y="74"/>
      <point x="140" y="-23"/>
      <point x="140" y="-23" type="curve"/>
      <point x="215" y="12" type="line"/>
      <point x="194" y="34"/>
      <point x="126" y="111"/>
      <point x="126" y="169" type="curve" smooth="yes"/>
      <point x="126" y="208"/>
      <point x="142" y="230"/>
      <point x="184" y="230" type="curve" smooth="yes"/>
      <point x="225" y="230"/>
      <point x="249" y="183"/>
      <point x="249" y="183" type="curve"/>
      <point x="307" y="236" type="line"/>
    </contour>
    <contour>
      <point x="228" y="118"/>
      <point x="309" y="105"/>
      <point x="309" y="105" type="curve"/>
      <point x="308" y="115"/>
      <point x="306" y="140"/>
      <point x="306" y="162" type="curve" smooth="yes"/>
      <point x="306" y="207"/>
      <point x="330" y="232"/>
      <point x="369" y="231" type="curve" smooth="yes"/>
      <point x="394" y="230"/>
      <point x="416" y="221"/>
      <point x="434" y="207" type="curve"/>
      <point x="428" y="294" type="line"/>
      <point x="405" y="307"/>
      <point x="384" y="309"/>
      <point x="365" y="309" type="curve" smooth="yes"/>
      <point x="289" y="309"/>
      <point x="225" y="271"/>
      <point x="225" y="169" type="curve" smooth="yes"/>
      <point x="225" y="159"/>
      <point x="226" y="128"/>
      <point x="228" y="118" type="curve"/>
    </contour>
    <contour>
      <point x="438" y="447" type="move" name="top"/>
    </contour>
    <contour>
      <point x="438" y="5" type="move" name="bottom"/>
    </contour>
  </outline>
</glyph>
<glyph name="ladeva" format="1">
  <advance width="551"/>
  <unicode hex="0932"/>
  <outline>
    <contour>
      <point x="399" y="0" type="line"/>
      <point x="483" y="0" type="line"/>
      <point x="483" y="466" type="line"/>
      <point x="399" y="466" type="line"/>
    </contour>
    <contour>
      <point x="-24" y="466" type="line"/>
      <point x="-24" y="396" type="line"/>
      <point x="575" y="396" type="line"/>
      <point x="575" y="466" type="line"/>
    </contour>
    <contour>
      <point x="282" y="277"/>
      <point x="242" y="311"/>
      <point x="177" y="311" type="curve" smooth="yes"/>
      <point x="102" y="311"/>
      <point x="45" y="259"/>
      <point x="45" y="172" type="curve" smooth="yes"/>
      <point x="45" y="74"/>
      <point x="143" y="-23"/>
      <point x="143" y="-23" type="curve"/>
      <point x="218" y="12" type="line"/>
      <point x="197" y="34"/>
      <point x="129" y="111"/>
      <point x="129" y="169" type="curve" smooth="yes"/>
      <point x="129" y="208"/>
      <point x="145" y="230"/>
      <point x="187" y="230" type="curve" smooth="yes"/>
      <point x="228" y="230"/>
      <point x="252" y="183"/>
      <point x="252" y="183" type="curve"/>
      <point x="310" y="236" type="line"/>
    </contour>
    <contour>
      <point x="231" y="118"/>
      <point x="312" y="105"/>
      <point x="312" y="105" type="curve"/>
      <point x="311" y="115"/>
      <point x="309" y="140"/>
      <point x="309" y="162" type="curve" smooth="yes"/>
      <point x="309" y="207"/>
      <point x="333" y="232"/>
      <point x="372" y="231" type="curve" smooth="yes"/>
      <point x="397" y="230"/>
      <point x="419" y="221"/>
      <point x="437" y="207" type="curve"/>
      <point x="431" y="294" type="line"/>
      <point x="408" y="307"/>
      <point x="387" y="309"/>
      <point x="368" y="309" type="curve" smooth="yes"/>
      <point x="292" y="309"/>
      <point x="228" y="271"/>
      <point x="228" y="169" type="curve" smooth="yes"/>
      <point x="228" y="159"/>
      <point x="229" y="128"/>
      <point x="231" y="118" type="curve"/>
    </contour>
    <contour>
      <point x="439" y="447" type="move" name="top"/>
    </contour>
    <contour>
      <point x="439" y="5" type="move" name="bottom"/>
    </contour>
  </outline>
</glyph>
